<svg width="98" height="88" viewBox="0 0 98 88" fill="none" xmlns="http://www.w3.org/2000/svg">
<path d="M20.5676 38.6315L35.9804 37.4607C37.4731 37.3458 38.9715 37.5968 40.349 38.1925L44.4488 39.9682C45.0001 40.9854 45.6778 41.9264 46.4651 42.7683C48.443 44.9147 56.0281 48.9051 60.0319 49.7442C60.9752 49.9147 61.9475 49.7421 62.7779 49.2564C64.5918 50.7352 66.4925 52.1006 68.4695 53.3454C68.4695 53.3454 64.7249 64.1848 50.7827 58.0577L39.6931 53.1697L42.1222 59.0919C42.055 62.4774 42.0358 66.9166 42.2567 69.8754C39.6532 70.6811 36.8763 70.7083 34.2582 69.953C33.2121 62.7332 32.4152 51.3376 35.1228 47.035L21.8724 46.9081C20.2028 43.8523 20.3498 42.1146 20.5676 38.6315Z" fill="#CDCCD9"/>
<path d="M45.1859 34.4359L43.5728 27.2258C43.5369 27.068 43.5647 26.9022 43.6491 26.765C43.734 26.6278 43.8689 26.5304 44.0241 26.4941C44.1792 26.4579 44.3424 26.4858 44.4774 26.5718C44.6128 26.6579 44.7083 26.7948 44.7442 26.9527L46.6453 35.4506" fill="#CDCCD9"/>
<path d="M45.1859 34.4359L43.5728 27.2258C43.5369 27.068 43.5647 26.9022 43.6491 26.765C43.734 26.6278 43.8689 26.5304 44.0241 26.4941C44.1792 26.4579 44.3424 26.4858 44.4774 26.5718C44.6128 26.6579 44.7083 26.7948 44.7442 26.9527L46.6453 35.4506C46.4062 36.3467 45.764 37.5484 45.1859 34.4359Z" fill="#CDCCD9"/>
<path d="M46.434 7.11732C46.434 8.32723 46.7872 9.50992 47.4487 10.5159C48.1102 11.5219 49.0503 12.306 50.1503 12.769C51.2503 13.232 52.4607 13.3532 53.6285 13.1171C54.7963 12.8811 55.869 12.2985 56.7109 11.4429C57.5528 10.5874 58.1262 9.4974 58.3585 8.31075C58.5907 7.1241 58.4715 5.89412 58.0159 4.77633C57.5602 3.65854 56.7886 2.70312 55.7986 2.03095C54.8086 1.35878 53.6447 1 52.4541 1C50.8577 1.00098 49.327 1.64578 48.1981 2.79278C47.0697 3.93979 46.435 5.49523 46.434 7.11732Z" fill="#CDCCD9"/>
<path d="M14.9978 39.4024C16.1024 42.0637 17.6629 44.5051 19.6064 46.6125C18.5407 46.7783 17.4749 47.0233 16.5628 47.1686C15.6128 46.7475 14.7219 46.2001 13.9138 45.5403C11.3871 43.4719 6.18217 40.9059 5.04213 39.4425C7.10643 39.139 12.1568 39.3439 14.9978 39.4024Z" fill="#512DA8"/>
<path d="M34.5287 75.8921C37.1893 74.8713 39.6508 73.378 41.7969 71.4817C41.9218 72.5652 42.1138 73.6579 42.229 74.5945C41.7787 75.5445 41.2072 76.4303 40.5296 77.2288C38.4071 79.7069 35.6899 84.8974 34.2129 86.0096C33.9814 83.9022 34.365 78.7801 34.5287 75.8921Z" fill="#512DA8"/>
<path d="M67.49 44.9635C67.6821 45.0611 67.8837 45.1489 68.0853 45.2367C69.027 44.1121 69.9119 42.9401 70.7363 41.7244C70.6499 41.9298 67.9999 47.7539 63.6025 49.9491C63.3145 49.7149 63.036 49.4905 62.7768 49.2661C64.4196 48.3588 66.1266 46.6026 67.49 44.9635Z" fill="#512DA8"/>
<path d="M42.2383 54.2809C42.2383 54.2809 42.1519 56.3396 42.1039 59.0811L39.6939 53.1687L42.2383 54.2809Z" fill="#512DA8"/>
<path d="M68.095 19.3624C68.095 19.3624 69.7763 16.1618 73.731 18.1136C77.6858 20.0654 76.9187 27.9091 76.9187 27.9091C76.9187 27.9091 80.4333 29.6165 82.3056 32.4947C85.2052 36.9534 83.7453 43.6854 74.7286 43.6854C75.1584 41.7635 75.3072 39.7877 75.1702 37.8217C74.9302 34.3582 73.6916 31.1873 72.5971 27.9384C71.2013 23.7385 71.501 24.0743 71.0128 22.5333C72.1751 21.4113 70.792 20.0649 70.1679 21.1571C69.9036 21.5987 69.8405 21.6162 69.6292 21.6835C68.4851 22.0475 66.4092 22.4537 65.2833 22.0747C65.2818 22.045 65.1858 19.3624 68.095 19.3624Z" fill="#512DA8"/>
<path d="M70.2266 29.2947L71.2539 26.6799C70.9112 27.1465 70.5074 27.5634 70.0537 27.919C70.1382 28.3737 70.1959 28.833 70.2266 29.2947Z" fill="#512DA8"/>
<path d="M56.6406 73.5992C56.5742 73.9294 56.6056 74.2719 56.7307 74.5836C56.8559 74.8953 57.0692 75.1623 57.3437 75.3513C57.6183 75.5398 57.9417 75.6414 58.2731 75.6435C58.6045 75.645 58.9289 75.5469 59.2055 75.3616C59.4821 75.1762 59.6983 74.9112 59.8268 74.6011C59.9554 74.2904 59.9905 73.9484 59.9276 73.6177C59.8648 73.287 59.7069 72.9825 59.4739 72.7432C59.2408 72.5039 58.9431 72.3401 58.6185 72.2724C58.4028 72.2261 58.1803 72.2241 57.9638 72.2662C57.7473 72.3083 57.5411 72.393 57.3572 72.5168C57.1733 72.64 57.0152 72.7992 56.8922 72.9851C56.7692 73.171 56.6837 73.3795 56.6406 73.5992Z" fill="#512DA8"/>
<path d="M46.4342 7.11732C46.4342 8.32723 46.7875 9.50992 47.4489 10.5159C48.1104 11.5219 49.0505 12.306 50.1505 12.769C51.2505 13.232 52.461 13.3532 53.6288 13.1171C54.7965 12.8811 55.8692 12.2985 56.7111 11.4429C57.553 10.5874 58.1264 9.4974 58.3587 8.31075C58.591 7.1241 58.4718 5.89412 58.0161 4.77633C57.5605 3.65854 56.7889 2.70312 55.7989 2.03095C54.8089 1.35878 53.6449 1 52.4543 1C50.8579 1.00098 49.3273 1.64578 48.1984 2.79278C47.0699 3.93979 46.4352 5.49523 46.4342 7.11732Z" stroke="#F8F8F8" stroke-width="0.75"/>
<path d="M33.271 57.8418L28.3071 60.3883C27.2883 60.9095 26.1073 60.9988 25.0239 60.6368C23.94 60.2748 23.042 59.4907 22.5265 58.4565L16.8425 47.0219" stroke="#F8F8F8" stroke-width="0.75" stroke-linecap="round" stroke-linejoin="round"/>
<path d="M13.2417 39.7829L9.73719 32.7387C9.22428 31.7035 9.13635 30.5037 9.49261 29.4026C9.84887 28.3015 10.6205 27.389 11.6383 26.8653L46.7142 8.85815M66.5972 32.292L56.4207 11.8079" stroke="#F8F8F8" stroke-width="0.75" stroke-linecap="round" stroke-linejoin="round"/>
<path d="M9.57411 29.1285L38.8685 33.9287L49.6968 12.5596" stroke="#F8F8F8" stroke-width="0.75" stroke-linecap="round" stroke-linejoin="round"/>
<path d="M54.9195 59.4711C57.1049 61.9128 59.7519 63.882 62.7026 65.2613C65.6533 66.6411 68.8471 67.4026 72.0937 67.5007C75.3403 67.5988 78.573 67.0313 81.5992 65.8323C84.6253 64.6333 87.3827 62.8273 89.7071 60.5222C92.0314 58.2166 93.8751 55.4596 95.128 52.4146C96.3809 49.3695 97.0174 46.099 96.9996 42.7987C96.9818 39.4982 96.31 36.2353 95.0244 33.2044C93.7387 30.1735 91.8654 27.4368 89.5163 25.1575" stroke="#F8F8F8" stroke-width="0.75" stroke-linecap="round" stroke-linejoin="round"/>
<path d="M70.2268 30.1042C70.2537 29.3647 70.1919 28.6246 70.0428 27.9002C68.8725 28.6956 67.9052 28.2011 67.1952 27.1721C66.2846 25.6744 65.8171 23.9421 65.8485 22.1819" stroke="#F8F8F8" stroke-width="0.75" stroke-linecap="round" stroke-linejoin="round"/>
<path d="M70.7365 41.7241C69.9123 42.9398 69.0279 44.1119 68.0865 45.2365C66.5735 44.592 65.1796 43.69 63.965 42.5693C63.0652 41.7394 62.2579 40.8114 61.5576 39.8021C63.2143 37.6008 64.7495 35.3077 66.1561 32.9335C66.8413 31.7756 67.8696 30.8679 69.0936 30.3403C69.6187 30.133 70.1856 30.0594 70.7451 30.1257C71.1606 30.2365 71.5958 30.2463 72.0158 30.1544C72.4356 30.0625 72.8283 29.8715 73.1621 29.5968" stroke="#F8F8F8" stroke-width="0.75" stroke-linecap="round" stroke-linejoin="round"/>
<path d="M20.4908 39.3923C19.185 39.4411 16.5926 39.4314 15.0083 39.4021C16.11 42.0625 17.6669 44.5037 19.6069 46.6121C20.0966 46.5341 21.1335 46.4268 21.604 46.3975" stroke="#F8F8F8" stroke-width="0.75" stroke-linecap="round" stroke-linejoin="round"/>
<path d="M5.04256 39.4409C4.49528 39.519 4.14357 39.6463 4.10163 39.8214C3.83582 40.9296 9.54309 43.6213 12.1092 45.7241C12.8556 46.3434 13.6904 46.8435 14.5853 47.2071C15.2382 47.3288 15.9083 47.3159 16.5562 47.1681C15.6046 46.748 14.7127 46.2006 13.9041 45.5398C11.3845 43.4755 6.18462 40.9141 5.04256 39.4409Z" stroke="#F8F8F8" stroke-width="0.75" stroke-linecap="round" stroke-linejoin="round"/>
<path d="M14.9977 39.4023C12.1557 39.3437 7.10538 39.1388 5.04259 39.4413C6.18516 40.9048 11.3871 43.4733 13.9143 45.5391C14.7223 46.2 15.6132 46.7479 16.5643 47.1684C17.4764 47.0221 18.5422 46.7782 19.6079 46.6123C17.6639 44.5049 16.1029 42.0637 14.9977 39.4023Z" stroke="#F8F8F8" stroke-width="0.75" stroke-linecap="round" stroke-linejoin="round"/>
<path d="M34.6437 70.0673C34.7301 71.5308 34.6437 73.687 34.5285 75.9017C37.1855 74.8788 39.643 73.3856 41.7871 71.4918C41.7295 70.9942 41.6911 70.4966 41.6815 70.0283" stroke="#F8F8F8" stroke-width="0.75" stroke-linecap="round" stroke-linejoin="round"/>
<path d="M34.2118 86.0093C34.2694 86.5742 34.374 86.9285 34.5479 86.985C35.6187 87.3316 38.486 81.5907 40.6448 79.0627C41.2845 78.3258 41.8091 77.4935 42.2002 76.5943C42.3407 75.9355 42.3508 75.2546 42.229 74.5917C41.7802 75.5427 41.2087 76.4285 40.5295 77.2259C38.4071 79.7149 35.6904 84.8971 34.2118 86.0093Z" stroke="#F8F8F8" stroke-width="0.75" stroke-linecap="round" stroke-linejoin="round"/>
<path d="M34.5287 75.8918C34.3655 78.7798 33.9814 83.9024 34.2119 86.0078C35.6905 84.8956 38.4143 79.7107 40.5286 77.2269C41.2072 76.429 41.7788 75.5432 42.228 74.5927C42.1128 73.6561 41.9208 72.5628 41.796 71.4799C39.6503 73.3767 37.1893 74.8705 34.5287 75.8918Z" stroke="#F8F8F8" stroke-width="0.75" stroke-linecap="round" stroke-linejoin="round"/>
<path d="M63.6015 49.949C67.9989 47.7538 70.6489 41.9291 70.7363 41.7242" stroke="#F8F8F8" stroke-width="0.75" stroke-linecap="round" stroke-linejoin="round"/>
<path d="M67.4902 44.9635C66.1258 46.6026 64.4168 48.367 62.776 49.2769C61.9434 49.7565 60.9721 49.9254 60.0299 49.755C56.0226 48.9334 48.4411 44.9255 46.4632 42.7791C42.8814 38.8919 43.1755 35.9305 43.4868 30.9835C43.6131 28.9736 43.8618 29.0219 44.1589 29.9565C44.6011 31.3511 45.159 34.732 45.6183 36.064C45.6613 36.1981 45.7497 36.3122 45.8679 36.386C46.2217 36.5914 46.4445 36.1421 46.6259 35.5079C46.8185 34.8347 46.9559 33.9381 47.1348 33.4026C47.4486 32.4582 48.0889 31.5976 48.191 34.3684C48.2506 35.9978 48.2546 38.8041 49.996 39.8321C51.3513 40.6169 52.7636 41.2953 54.2206 41.8614C55.7277 42.4612 57.3065 42.8549 58.9157 43.0322C59.7894 43.0795 60.9608 42.0663 62.0745 40.4955" stroke="#F8F8F8" stroke-width="0.75" stroke-linecap="round" stroke-linejoin="round"/>
<path d="M45.1861 34.4359L43.5731 27.2258C43.5372 27.068 43.565 26.9022 43.6494 26.765C43.7343 26.6278 43.8692 26.5304 44.0243 26.4941C44.1795 26.4579 44.3427 26.4858 44.4776 26.5718C44.613 26.6579 44.7086 26.7948 44.7444 26.9527L46.6455 35.4506" stroke="#F8F8F8" stroke-width="0.75" stroke-linecap="round" stroke-linejoin="round"/>
<path d="M42.2354 54.2902C40.7375 53.6365 39.6915 53.1687 39.6915 53.1687L42.104 59.0811" stroke="#F8F8F8" stroke-width="0.75" stroke-linecap="round" stroke-linejoin="round"/>
<path d="M62.7758 49.2755C64.5895 50.7498 66.491 52.109 68.4694 53.345C71.6952 51.0574 73.9352 47.6 74.7285 43.6851" stroke="#F8F8F8" stroke-width="0.75" stroke-linecap="round" stroke-linejoin="round"/>
<path d="M44.4565 39.9675L39.9535 38.026C38.8382 37.5471 37.6274 37.3432 36.4202 37.4308L20.5678 38.6309C20.211 42.002 20.2534 43.941 21.8736 46.9044L35.1048 47.0312" stroke="#F8F8F8" stroke-width="0.75" stroke-linecap="round" stroke-linejoin="round"/>
<path d="M68.095 19.3624C68.095 19.3624 69.7763 16.1618 73.731 18.1136C77.6858 20.0654 76.9187 27.9091 76.9187 27.9091C76.9187 27.9091 80.4333 29.6165 82.3056 32.4947C85.2052 36.9534 83.7453 43.6854 74.7286 43.6854C75.1584 41.7635 75.3072 39.7877 75.1702 37.8217C74.9302 34.3582 73.6916 31.1873 72.5971 27.9384C72.3474 27.1871 71.7521 25.3529 71.5505 24.5914C71.3681 23.8797 71.2817 23.3816 71.0128 22.5333C72.1751 21.4113 70.792 20.0649 70.1679 21.1571C69.8925 21.6193 69.8389 21.5926 69.5373 21.6937C68.7904 21.9433 66.7781 22.5097 65.2808 22.0532C65.2818 22.0547 65.1858 19.3624 68.095 19.3624Z" stroke="#F8F8F8" stroke-width="0.75" stroke-linecap="round" stroke-linejoin="round"/>
<path d="M87.0487 21.0397C90.4525 22.7081 93.655 24.7708 96.5925 27.1868C96.6752 27.2391 96.7441 27.3109 96.7935 27.3962C96.8428 27.4815 96.871 27.5777 96.8758 27.6765C96.8805 27.7753 96.8615 27.8738 96.8206 27.9635C96.7796 28.0533 96.7178 28.1316 96.6405 28.1917L94.4514 29.9577C93.1248 28.1897 91.3264 26.6954 89.5193 25.1518C90.9102 26.9802 92.1284 28.9378 93.1577 30.9985L90.8023 32.8944C90.7263 32.9557 90.6369 32.9975 90.5417 33.0164C90.4464 33.0353 90.3481 33.0307 90.255 33.003C90.1619 32.9752 90.0766 32.9252 90.0065 32.8571C89.9363 32.7889 89.8833 32.7047 89.8518 32.6114L86.1461 21.7648C86.1029 21.6432 86.0983 21.5108 86.1332 21.3864C86.168 21.2621 86.2405 21.152 86.3403 21.0718C86.4401 20.9916 86.5623 20.9453 86.6894 20.9396C86.8165 20.9338 86.9423 20.9688 87.0487 21.0397Z" stroke="#F8F8F8" stroke-width="0.75" stroke-linecap="round" stroke-linejoin="round"/>
<path d="M21.9504 2.44445C23.8611 1.47805 26.0022 2.85525 25.695 4.88358L26.5879 5.72212L25.3589 5.81969C24.274 7.68318 21.5184 7.76174 20.6158 5.92701C20.3399 5.28513 20.3258 4.55843 20.5759 3.90582C20.826 3.25322 21.3203 2.7278 21.9504 2.44445Z" stroke="#F8F8F8" stroke-width="0.75" stroke-linecap="round" stroke-linejoin="round"/>
<path d="M10.5825 58.8175C10.8726 58.665 11.1894 58.5721 11.5144 58.5439C11.8398 58.5156 12.1678 58.5526 12.479 58.6532C12.7898 58.7539 13.0789 58.9156 13.328 59.1298C13.5776 59.3439 13.7833 59.6058 13.9334 59.9005C13.9334 59.9005 15.556 63.1207 16.9194 63.0226L10.1408 66.5837C11.0146 65.5105 9.51676 62.2231 9.51676 62.2231C9.36667 61.9283 9.27471 61.6064 9.24742 61.2757C9.21962 60.945 9.25601 60.6122 9.35505 60.2959C9.4541 59.9796 9.61328 59.6864 9.824 59.4327C10.0347 59.1791 10.2925 58.9701 10.5825 58.8175Z" stroke="#F8F8F8" stroke-width="0.75" stroke-linecap="round" stroke-linejoin="round"/>
<path d="M12.416 65.3937C12.5686 65.6941 12.8329 65.92 13.1498 66.0227C13.4666 66.1249 13.8102 66.0951 14.1059 65.94C14.4015 65.785 14.6238 65.5164 14.7249 65.1944C14.8255 64.8725 14.7962 64.5233 14.6435 64.2229" stroke="#F8F8F8" stroke-width="0.75" stroke-linecap="round" stroke-linejoin="round"/>
<path d="M3.18892 21.5476L4.98438 27.8308" stroke="#F8F8F8" stroke-width="0.75" stroke-linecap="round" stroke-linejoin="round"/>
<path d="M0.999811 25.5968L7.18311 23.7723" stroke="#F8F8F8" stroke-width="0.75" stroke-linecap="round" stroke-linejoin="round"/>
<path d="M42.0947 66.652C39.3674 67.108 36.5891 67.1598 33.8471 66.806" stroke="#F8F8F8" stroke-width="0.75" stroke-linecap="round" stroke-linejoin="round"/>
<path d="M24.2352 38.3774C23.8027 41.3043 24.2686 44.2955 25.5698 46.9436" stroke="#F8F8F8" stroke-width="0.75" stroke-linecap="round" stroke-linejoin="round"/>
<path d="M56.6406 73.5992C56.5742 73.9294 56.6055 74.2719 56.7307 74.5836C56.8558 74.8953 57.0692 75.1623 57.3437 75.3513C57.6183 75.5398 57.9417 75.6414 58.2731 75.6435C58.6045 75.645 58.929 75.5469 59.2055 75.3616C59.4821 75.1762 59.6983 74.9112 59.8269 74.6011C59.9554 74.2904 59.9904 73.9484 59.9276 73.6177C59.8648 73.287 59.7069 72.9825 59.4739 72.7432C59.2408 72.5039 58.9432 72.3401 58.6185 72.2724C58.4028 72.2261 58.1803 72.2241 57.9638 72.2662C57.7473 72.3083 57.5412 72.393 57.3572 72.5168C57.1733 72.64 57.0153 72.7992 56.8923 72.9851C56.7693 73.171 56.6838 73.3795 56.6406 73.5992Z" stroke="#F8F8F8" stroke-width="0.75" stroke-linecap="round" stroke-linejoin="round"/>
<path d="M57.3992 68.2626C56.7555 67.651 55.9477 67.2469 55.078 67.1021C54.2084 66.9568 53.3159 67.0769 52.5134 67.4472C51.711 67.8174 51.0346 68.4213 50.5698 69.1823C50.105 69.9428 49.8727 70.827 49.9023 71.722C49.9318 72.6171 50.2218 73.4828 50.7358 74.2105C51.2497 74.9381 51.9644 75.4942 52.7894 75.809C53.6145 76.1238 54.5129 76.1828 55.371 75.979C56.2291 75.7751 57.0085 75.3171 57.6104 74.6629C58.4172 73.7853 58.8481 72.6186 58.8085 71.4181C58.7689 70.218 58.262 69.0832 57.3992 68.2626Z" stroke="#F8F8F8" stroke-width="0.75" stroke-linecap="round" stroke-linejoin="round"/>
<path d="M68.4697 53.3452C68.4697 53.3452 64.7252 64.1847 50.7829 58.0576L42.2357 54.29C42.1296 58.3888 41.9062 65.3256 42.2458 69.8722C39.6423 70.6779 36.866 70.7051 34.2478 69.9502C33.2013 62.7299 32.3922 51.3328 35.1023 47.0317C38.6134 41.4587 49.4084 45.0316 49.4084 45.0316" stroke="#F8F8F8" stroke-width="0.75" stroke-linecap="round" stroke-linejoin="round"/>
<path d="M70.0429 27.9001C70.5055 27.565 70.9119 27.1563 71.2466 26.6898L70.2268 29.2943" stroke="#F8F8F8" stroke-width="0.75" stroke-linecap="round" stroke-linejoin="round"/>
</svg>
