<svg width="642" height="578" viewBox="0 0 642 578" fill="none" xmlns="http://www.w3.org/2000/svg">
<path d="M510.549 253.043L407.797 245.201C397.845 244.432 387.856 246.112 378.673 250.102L351.341 261.995C347.665 268.808 343.148 275.111 337.899 280.749C324.713 295.126 274.146 321.852 247.454 327.472C241.165 328.614 234.683 327.458 229.147 324.204C217.054 334.109 204.383 343.254 191.203 351.591C191.203 351.591 216.167 424.19 309.115 383.153L383.046 350.415L366.851 390.08C367.299 412.755 367.427 442.487 365.955 462.304C383.312 467.7 401.824 467.883 419.278 462.823C426.252 414.468 431.565 338.144 413.514 309.326L501.85 308.477C512.981 288.01 512.001 276.371 510.549 253.043Z" fill="#CDCCD9"/>
<path d="M346.426 224.943L357.179 176.653C357.418 175.596 357.233 174.486 356.67 173.567C356.104 172.647 355.205 171.995 354.171 171.752C353.136 171.51 352.048 171.697 351.149 172.273C350.246 172.849 349.609 173.766 349.37 174.823L336.696 231.739" fill="#CDCCD9"/>
<path d="M346.426 224.943L357.179 176.653C357.418 175.596 357.233 174.486 356.67 173.567C356.104 172.647 355.205 171.995 354.171 171.752C353.136 171.51 352.048 171.697 351.149 172.273C350.246 172.849 349.609 173.766 349.37 174.823L336.696 231.739C338.29 237.741 342.572 245.79 346.426 224.943Z" fill="#CDCCD9"/>
<path d="M338.104 41.9718C338.104 50.0754 335.75 57.9966 331.34 64.7345C326.93 71.4723 320.663 76.7237 313.329 79.8249C305.996 82.926 297.926 83.7374 290.141 82.1563C282.356 80.5757 275.204 76.6735 269.592 70.9434C263.979 65.2132 260.157 57.9127 258.608 49.965C257.059 42.0172 257.854 33.7792 260.892 26.2926C263.929 18.806 269.073 12.407 275.673 7.90498C282.273 3.403 290.033 1 297.971 1C308.613 1.00653 318.817 5.3252 326.344 13.0075C333.866 20.6897 338.098 31.1075 338.104 41.9718Z" fill="#CDCCD9"/>
<path d="M547.681 258.206C540.316 276.03 529.913 292.382 516.956 306.496C524.061 307.607 531.166 309.248 537.247 310.221C543.581 307.401 549.52 303.735 554.907 299.315C571.752 285.462 606.451 268.276 614.052 258.474C600.29 256.442 566.621 257.814 547.681 258.206Z" fill="#512DA8"/>
<path d="M417.476 502.602C399.739 495.765 383.329 485.764 369.021 473.062C368.189 480.319 366.909 487.638 366.141 493.911C369.142 500.274 372.952 506.207 377.47 511.555C391.62 528.152 409.734 562.916 419.582 570.366C421.124 556.251 418.567 521.945 417.476 502.602Z" fill="#512DA8"/>
<path d="M197.732 295.453C196.452 296.106 195.108 296.694 193.764 297.282C187.486 289.75 181.587 281.9 176.09 273.758C176.666 275.134 194.333 314.141 223.649 328.844C225.57 327.276 227.426 325.773 229.154 324.27C218.202 318.193 206.822 306.431 197.732 295.453Z" fill="#512DA8"/>
<path d="M366.077 357.858C366.077 357.858 366.653 371.646 366.973 390.008L383.039 350.408L366.077 357.858Z" fill="#512DA8"/>
<path d="M193.7 123.986C193.7 123.986 182.491 102.549 156.126 115.621C129.761 128.694 134.875 181.229 134.875 181.229C134.875 181.229 111.444 192.664 98.9624 211.941C79.6316 241.804 89.3643 286.893 149.476 286.893C146.61 274.021 145.618 260.787 146.531 247.62C148.132 224.422 156.389 203.185 163.686 181.425C172.991 153.295 170.993 155.544 174.247 145.223C166.499 137.708 175.72 128.691 179.88 136.006C181.642 138.964 182.063 139.081 183.472 139.531C191.099 141.97 204.938 144.69 212.444 142.152C212.454 141.952 213.094 123.986 193.7 123.986Z" fill="#512DA8"/>
<path d="M179.489 190.507L172.64 172.994C174.925 176.119 177.617 178.911 180.641 181.293C180.078 184.338 179.694 187.415 179.489 190.507Z" fill="#512DA8"/>
<path d="M270.062 487.245C270.505 489.457 270.296 491.751 269.462 493.838C268.627 495.926 267.205 497.714 265.375 498.98C263.545 500.242 261.388 500.923 259.179 500.937C256.97 500.947 254.807 500.29 252.963 499.049C251.119 497.807 249.677 496.032 248.821 493.955C247.964 491.874 247.73 489.584 248.149 487.369C248.568 485.154 249.62 483.115 251.174 481.512C252.727 479.909 254.712 478.812 256.876 478.358C258.314 478.049 259.798 478.035 261.241 478.317C262.684 478.599 264.059 479.166 265.285 479.995C266.511 480.821 267.565 481.887 268.385 483.132C269.205 484.377 269.775 485.773 270.062 487.245Z" fill="#512DA8"/>
<path d="M338.104 41.9718C338.104 50.0754 335.75 57.9966 331.34 64.7345C326.93 71.4723 320.663 76.7237 313.329 79.8249C305.996 82.926 297.926 83.7374 290.141 82.1563C282.356 80.5757 275.204 76.6735 269.592 70.9434C263.979 65.2132 260.157 57.9127 258.608 49.965C257.059 42.0172 257.854 33.7792 260.892 26.2926C263.929 18.806 269.073 12.407 275.673 7.90498C282.273 3.403 290.033 1 297.971 1C308.613 1.00653 318.817 5.3252 326.344 13.0075C333.866 20.6897 338.098 31.1075 338.104 41.9718Z" stroke="#F8F8F8" stroke-width="0.75"/>
<path d="M425.861 381.707L458.954 398.762C465.746 402.253 473.619 402.851 480.842 400.427C488.068 398.002 494.055 392.75 497.491 385.824L535.384 309.238" stroke="#F8F8F8" stroke-width="0.75" stroke-linecap="round" stroke-linejoin="round"/>
<path d="M559.388 260.755L582.752 213.575C586.171 206.641 586.757 198.605 584.382 191.231C582.007 183.856 576.863 177.744 570.078 174.237L336.238 53.6309M203.685 210.583L271.528 73.3873" stroke="#F8F8F8" stroke-width="0.75" stroke-linecap="round" stroke-linejoin="round"/>
<path d="M583.839 189.395L388.544 221.545L316.355 78.4219" stroke="#F8F8F8" stroke-width="0.75" stroke-linecap="round" stroke-linejoin="round"/>
<path d="M281.537 392.62C266.967 408.974 249.321 422.163 229.65 431.401C209.978 440.642 188.686 445.743 167.042 446.399C145.398 447.056 123.847 443.256 103.672 435.225C83.4982 427.195 65.115 415.099 49.6194 399.66C34.1238 384.218 21.833 365.752 13.4801 345.358C5.12732 324.963 0.883736 303.058 1.00242 280.954C1.12111 258.848 5.59967 236.994 14.171 216.694C22.7422 196.394 35.2308 178.065 50.8912 162.799" stroke="#F8F8F8" stroke-width="0.75" stroke-linecap="round" stroke-linejoin="round"/>
<path d="M179.489 195.93C179.309 190.977 179.721 186.02 180.715 181.169C188.518 186.496 194.966 183.184 199.699 176.292C205.77 166.261 208.887 154.659 208.677 142.869" stroke="#F8F8F8" stroke-width="0.75" stroke-linecap="round" stroke-linejoin="round"/>
<path d="M176.09 273.756C181.585 281.898 187.481 289.749 193.757 297.28C203.844 292.964 213.136 286.923 221.234 279.417C227.232 273.858 232.614 267.643 237.283 260.883C226.238 246.139 216.003 230.781 206.626 214.879C202.058 207.124 195.203 201.044 187.043 197.511C183.542 196.123 179.763 195.629 176.033 196.074C173.263 196.816 170.361 196.881 167.562 196.266C164.763 195.651 162.145 194.371 159.919 192.531" stroke="#F8F8F8" stroke-width="0.75" stroke-linecap="round" stroke-linejoin="round"/>
<path d="M511.061 258.139C519.766 258.465 537.048 258.4 547.61 258.204C540.266 276.023 529.886 292.373 516.953 306.495C513.688 305.972 506.775 305.253 503.639 305.057" stroke="#F8F8F8" stroke-width="0.75" stroke-linecap="round" stroke-linejoin="round"/>
<path d="M614.049 258.465C617.698 258.988 620.042 259.841 620.322 261.013C622.094 268.435 584.046 286.464 566.938 300.548C561.962 304.695 556.397 308.045 550.43 310.48C546.078 311.295 541.611 311.209 537.292 310.219C543.635 307.405 549.582 303.739 554.972 299.313C571.769 285.487 606.435 268.332 614.049 258.465Z" stroke="#F8F8F8" stroke-width="0.75" stroke-linecap="round" stroke-linejoin="round"/>
<path d="M547.681 258.205C566.628 257.813 600.297 256.441 614.049 258.467C606.432 268.269 571.752 285.472 554.904 299.308C549.517 303.734 543.578 307.404 537.237 310.221C531.157 309.24 524.052 307.607 516.947 306.496C529.907 292.381 540.313 276.031 547.681 258.205Z" stroke="#F8F8F8" stroke-width="0.75" stroke-linecap="round" stroke-linejoin="round"/>
<path d="M416.708 463.59C416.132 473.391 416.708 487.833 417.476 502.666C399.762 495.815 383.379 485.814 369.085 473.13C369.469 469.797 369.725 466.465 369.789 463.328" stroke="#F8F8F8" stroke-width="0.75" stroke-linecap="round" stroke-linejoin="round"/>
<path d="M419.589 570.364C419.204 574.147 418.507 576.521 417.348 576.899C410.21 579.22 391.094 540.77 376.702 523.838C372.437 518.903 368.94 513.328 366.333 507.306C365.396 502.893 365.329 498.333 366.141 493.893C369.132 500.262 372.943 506.195 377.47 511.536C391.62 528.206 409.731 562.915 419.589 570.364Z" stroke="#F8F8F8" stroke-width="0.75" stroke-linecap="round" stroke-linejoin="round"/>
<path d="M417.476 502.601C418.564 521.943 421.125 556.253 419.588 570.354C409.731 562.905 391.573 528.178 377.477 511.543C372.953 506.198 369.142 500.266 366.147 493.9C366.915 487.626 368.196 480.304 369.028 473.051C383.332 485.755 399.739 495.76 417.476 502.601Z" stroke="#F8F8F8" stroke-width="0.75" stroke-linecap="round" stroke-linejoin="round"/>
<path d="M223.656 328.844C194.34 314.141 176.673 275.13 176.09 273.758" stroke="#F8F8F8" stroke-width="0.75" stroke-linecap="round" stroke-linejoin="round"/>
<path d="M197.732 295.452C206.828 306.431 218.222 318.248 229.161 324.342C234.711 327.554 241.186 328.686 247.468 327.544C274.183 322.041 324.727 295.198 337.912 280.822C361.791 254.787 359.831 234.953 357.755 201.819C356.913 188.358 355.256 188.681 353.275 194.94C350.327 204.281 346.608 226.925 343.545 235.847C343.259 236.745 342.669 237.509 341.881 238.003C339.523 239.379 338.037 236.37 336.828 232.122C335.544 227.613 334.628 221.608 333.435 218.021C331.343 211.696 327.075 205.932 326.394 224.49C325.997 235.403 325.97 254.199 314.361 261.084C305.325 266.34 295.91 270.884 286.197 274.676C276.149 278.693 265.624 281.33 254.896 282.517C249.071 282.834 241.262 276.048 233.837 265.528" stroke="#F8F8F8" stroke-width="0.75" stroke-linecap="round" stroke-linejoin="round"/>
<path d="M346.426 224.943L357.179 176.653C357.418 175.596 357.233 174.486 356.67 173.567C356.104 172.647 355.205 171.995 354.171 171.752C353.136 171.51 352.048 171.697 351.149 172.273C350.246 172.849 349.609 173.766 349.37 174.823L336.696 231.739" stroke="#F8F8F8" stroke-width="0.75" stroke-linecap="round" stroke-linejoin="round"/>
<path d="M366.097 357.92C376.082 353.541 383.056 350.408 383.056 350.408L366.972 390.008" stroke="#F8F8F8" stroke-width="0.75" stroke-linecap="round" stroke-linejoin="round"/>
<path d="M229.16 324.334C217.069 334.208 204.392 343.312 191.203 351.59C169.698 336.268 154.764 313.111 149.475 286.891" stroke="#F8F8F8" stroke-width="0.75" stroke-linecap="round" stroke-linejoin="round"/>
<path d="M351.29 261.992L381.311 248.988C388.746 245.781 396.818 244.415 404.866 245.002L510.549 253.039C512.927 275.618 512.644 288.605 501.844 308.453L413.635 309.302" stroke="#F8F8F8" stroke-width="0.75" stroke-linecap="round" stroke-linejoin="round"/>
<path d="M193.7 123.986C193.7 123.986 182.491 102.549 156.126 115.621C129.761 128.694 134.875 181.229 134.875 181.229C134.875 181.229 111.444 192.664 98.9624 211.941C79.6316 241.804 89.3643 286.893 149.476 286.893C146.61 274.021 145.618 260.787 146.531 247.62C148.132 224.422 156.389 203.185 163.686 181.425C165.35 176.393 169.319 164.108 170.663 159.008C171.879 154.241 172.455 150.905 174.247 145.223C166.499 137.708 175.72 128.691 179.88 136.006C181.716 139.101 182.073 138.922 184.085 139.6C189.064 141.271 202.479 145.065 212.461 142.007C212.454 142.018 213.094 123.986 193.7 123.986Z" stroke="#F8F8F8" stroke-width="0.75" stroke-linecap="round" stroke-linejoin="round"/>
<path d="M67.342 135.22C44.65 146.394 23.2995 160.209 3.7166 176.391C3.16545 176.741 2.70569 177.222 2.37675 177.793C2.04781 178.365 1.85956 179.009 1.82809 179.671C1.79659 180.332 1.92289 180.992 2.19608 181.593C2.46926 182.194 2.88121 182.719 3.39655 183.122L17.9908 194.949C26.8342 183.108 38.8241 173.1 50.8714 162.761C41.5984 175.007 33.4773 188.118 26.6152 201.92L42.3177 214.618C42.8244 215.029 43.4203 215.309 44.0554 215.436C44.6904 215.562 45.3457 215.531 45.9666 215.346C46.5874 215.16 47.1558 214.825 47.6234 214.369C48.091 213.912 48.4447 213.348 48.6546 212.723L73.3588 140.076C73.6472 139.261 73.6775 138.375 73.4454 137.542C73.213 136.709 72.7299 135.971 72.0645 135.435C71.3988 134.897 70.5845 134.588 69.7369 134.549C68.8896 134.51 68.0515 134.745 67.342 135.22Z" stroke="#F8F8F8" stroke-width="0.75" stroke-linecap="round" stroke-linejoin="round"/>
<path d="M501.331 10.6748C488.594 4.20212 474.319 13.4262 476.368 27.0112L470.415 32.6275L478.608 33.281C485.841 45.762 504.212 46.2882 510.229 33.9998C512.068 29.7007 512.162 24.8335 510.495 20.4626C508.827 16.0916 505.532 12.5726 501.331 10.6748Z" stroke="#F8F8F8" stroke-width="0.75" stroke-linecap="round" stroke-linejoin="round"/>
<path d="M577.118 388.242C575.185 387.221 573.072 386.598 570.906 386.409C568.737 386.22 566.55 386.468 564.475 387.142C562.403 387.816 560.476 388.899 558.815 390.333C557.151 391.768 555.78 393.522 554.779 395.496C554.779 395.496 543.962 417.063 534.872 416.406L580.063 440.258C574.238 433.07 584.223 411.051 584.223 411.051C585.224 409.077 585.837 406.921 586.019 404.706C586.204 402.491 585.962 400.262 585.302 398.144C584.641 396.025 583.58 394.061 582.175 392.363C580.77 390.664 579.052 389.264 577.118 388.242Z" stroke="#F8F8F8" stroke-width="0.75" stroke-linecap="round" stroke-linejoin="round"/>
<path d="M564.893 432.287C563.875 434.299 562.113 435.812 560.001 436.5C557.889 437.184 555.598 436.985 553.627 435.946C551.656 434.908 550.174 433.109 549.5 430.952C548.83 428.796 549.025 426.457 550.042 424.445" stroke="#F8F8F8" stroke-width="0.75" stroke-linecap="round" stroke-linejoin="round"/>
<path d="M626.406 138.622L614.436 180.704" stroke="#F8F8F8" stroke-width="0.75" stroke-linecap="round" stroke-linejoin="round"/>
<path d="M641 165.741L599.778 153.521" stroke="#F8F8F8" stroke-width="0.75" stroke-linecap="round" stroke-linejoin="round"/>
<path d="M367.036 440.715C385.219 443.769 403.741 444.116 422.02 441.747" stroke="#F8F8F8" stroke-width="0.75" stroke-linecap="round" stroke-linejoin="round"/>
<path d="M486.097 251.342C488.981 270.945 485.875 290.979 477.2 308.715" stroke="#F8F8F8" stroke-width="0.75" stroke-linecap="round" stroke-linejoin="round"/>
<path d="M270.063 487.245C270.505 489.457 270.297 491.751 269.462 493.838C268.628 495.926 267.206 497.714 265.375 498.98C263.545 500.242 261.389 500.923 259.18 500.937C256.97 500.947 254.807 500.29 252.963 499.049C251.119 497.807 249.678 496.032 248.821 493.955C247.964 491.874 247.731 489.584 248.149 487.369C248.568 485.154 249.621 483.115 251.174 481.512C252.728 479.909 254.712 478.812 256.877 478.358C258.315 478.049 259.798 478.035 261.241 478.317C262.685 478.599 264.059 479.166 265.285 479.995C266.512 480.821 267.565 481.887 268.385 483.132C269.205 484.377 269.775 485.773 270.063 487.245Z" stroke="#F8F8F8" stroke-width="0.75" stroke-linecap="round" stroke-linejoin="round"/>
<path d="M265.006 451.503C269.297 447.406 274.682 444.7 280.48 443.73C286.278 442.757 292.228 443.561 297.578 446.041C302.927 448.521 307.437 452.565 310.535 457.662C313.634 462.756 315.182 468.678 314.985 474.673C314.789 480.667 312.855 486.466 309.429 491.339C306.003 496.213 301.238 499.938 295.738 502.046C290.237 504.154 284.248 504.55 278.527 503.184C272.806 501.819 267.611 498.751 263.598 494.369C258.219 488.492 255.346 480.678 255.61 472.637C255.874 464.599 259.254 456.998 265.006 451.503Z" stroke="#F8F8F8" stroke-width="0.75" stroke-linecap="round" stroke-linejoin="round"/>
<path d="M191.203 351.591C191.203 351.591 216.167 424.19 309.115 383.153L366.097 357.919C366.804 385.371 368.293 431.832 366.029 462.283C383.386 467.679 401.895 467.861 419.349 462.806C426.326 414.446 431.72 338.112 413.652 309.305C390.245 271.979 318.278 295.909 318.278 295.909" stroke="#F8F8F8" stroke-width="0.75" stroke-linecap="round" stroke-linejoin="round"/>
<path d="M180.715 181.169C177.631 178.924 174.921 176.187 172.69 173.062L179.489 190.506" stroke="#F8F8F8" stroke-width="0.75" stroke-linecap="round" stroke-linejoin="round"/>
</svg>
