<svg width="328" height="328" viewBox="0 0 328 328" fill="none" xmlns="http://www.w3.org/2000/svg">
<path d="M260.535 138.918L260.043 135.638C259.955 135.063 259.981 134.476 260.12 133.911C260.258 133.346 260.507 132.814 260.852 132.345C261.196 131.877 261.629 131.48 262.126 131.179C262.625 130.878 263.176 130.678 263.751 130.59L257.083 131.587C256.053 131.747 255.113 132.264 254.426 133.047C253.741 133.83 253.35 134.829 253.326 135.871L240.663 137.511C242.253 139.006 243.717 140.463 244.87 141.748L254.039 140.64C254.353 141.641 255.015 142.497 255.904 143.055C256.793 143.612 257.852 143.833 258.89 143.679L265.516 142.68C264.942 142.765 264.355 142.735 263.792 142.592C263.228 142.448 262.7 142.194 262.236 141.844C261.772 141.493 261.383 141.054 261.091 140.552C260.799 140.05 260.611 139.494 260.535 138.918Z" fill="#E6E5EC"/>
<path d="M111.472 106.137C103.558 102.5 91.5923 86.8198 89.38 91.0576C88.232 93.2388 103.059 121.094 104.181 125.145C109.255 121.797 115.038 119.674 121.073 118.944C119.043 114.987 119.354 109.783 111.472 106.137Z" fill="#E6E5EC"/>
<path d="M81.7458 172.538C79.6948 172.262 77.6097 172.389 75.6073 172.912C67.1317 174.904 48.8113 169.827 48.9359 174.594C49.0294 177.74 81.2784 190.548 82.5871 191.855C84.3184 186.37 87.233 181.332 91.1249 177.095C88.232 175.747 85.8901 173.192 81.7458 172.538Z" fill="#E6E5EC"/>
<path d="M287.831 44.936C285.301 45.0931 282.875 45.9967 280.86 47.5327C278.843 49.0688 277.327 51.1681 276.504 53.5655C275.682 55.9628 275.589 58.5502 276.235 61.0007C276.883 63.4512 278.242 65.6547 280.143 67.3323C282.042 69.01 284.397 70.0865 286.91 70.426C289.421 70.7653 291.977 70.3522 294.254 69.2388C296.532 68.1254 298.427 66.3619 299.702 64.171C300.976 61.9803 301.573 59.4606 301.416 56.9309C301.312 55.2509 300.879 53.6076 300.141 52.0952C299.402 50.5828 298.372 49.2308 297.111 48.1167C295.849 47.0027 294.38 46.1482 292.788 45.6025C291.195 45.0567 289.511 44.8302 287.831 44.936ZM281.88 63.7304C281.368 63.576 280.914 63.2736 280.574 62.861C280.235 62.4485 280.025 61.9446 279.973 61.4129C279.918 60.8812 280.025 60.3457 280.276 59.8742C280.527 59.4026 280.912 59.0162 281.383 58.7638C281.855 58.5112 282.39 58.4041 282.921 58.456C283.453 58.5078 283.958 58.7161 284.371 59.0547C284.784 59.3932 285.088 59.8468 285.244 60.358C285.399 60.869 285.399 61.415 285.245 61.9264C285.143 62.2663 284.976 62.5828 284.752 62.8577C284.527 63.1326 284.25 63.3604 283.938 63.528C283.625 63.6956 283.282 63.7997 282.929 63.8345C282.575 63.8693 282.219 63.8338 281.88 63.7304ZM290.324 56.252C289.585 56.0304 288.929 55.5948 288.437 55C287.945 54.4051 287.64 53.678 287.562 52.9101C287.484 52.1424 287.635 51.3687 287.995 50.6866C288.356 50.0045 288.912 49.445 289.591 49.0783C290.27 48.7117 291.043 48.5546 291.81 48.6271C292.579 48.6994 293.309 48.9979 293.908 49.4848C294.506 49.9717 294.947 50.6251 295.174 51.3626C295.402 52.1001 295.405 52.8885 295.185 53.628C294.885 54.6182 294.206 55.4497 293.296 55.9412C292.384 56.4327 291.316 56.5444 290.324 56.252ZM292.35 65.108C291.974 64.9964 291.658 64.7401 291.471 64.3952C291.284 64.0505 291.241 63.6456 291.353 63.2695C291.464 62.8935 291.72 62.5773 292.066 62.3901C292.41 62.2032 292.815 62.1609 293.191 62.2724C293.567 62.3839 293.883 62.6404 294.07 62.9851C294.257 63.3299 294.3 63.7348 294.188 64.1108C294.077 64.4869 293.821 64.8032 293.475 64.9902C293.13 65.1772 292.725 65.2195 292.35 65.108Z" fill="#E6E5EC"/>
<path d="M272.064 225.539C272.342 226.945 272.197 228.401 271.646 229.723C271.097 231.047 270.167 232.177 268.975 232.97C267.782 233.764 266.382 234.187 264.948 234.186C263.517 234.182 262.116 233.756 260.927 232.959C259.737 232.16 258.81 231.029 258.264 229.703C257.718 228.38 257.577 226.924 257.859 225.518C258.141 224.114 258.831 222.825 259.846 221.813C260.862 220.802 262.152 220.114 263.558 219.837C264.491 219.652 265.452 219.654 266.383 219.84C267.317 220.026 268.204 220.395 268.993 220.925C269.783 221.454 270.462 222.135 270.989 222.927C271.515 223.717 271.881 224.606 272.064 225.539Z" fill="#E6E5EC"/>
<path d="M230.836 85.075C230.374 69.2145 242.121 72.3305 248.384 93.3635C245.892 82.7068 261.416 69.8066 262.525 131C261.951 131.259 261.449 131.653 261.06 132.148C257.327 123.21 250.207 128.617 251.182 135.92C251.312 136.897 250.603 137.414 249.127 135.802C247.581 134.072 245.779 135.032 245.608 136.894L241.519 137.392C235.563 131.443 230.736 124.453 227.284 116.763C220.336 102.211 224.262 85.3226 236.009 109.253C232.783 101.59 231.028 93.3876 230.836 85.075Z" fill="#A950FB"/>
<path d="M248.411 141.596C249.045 143.663 249.329 145.822 249.25 147.984C248.954 145.433 247.743 143.638 245.887 141.676L248.411 141.596Z" fill="#A950FB"/>
<path d="M206.569 96.1628C206.04 95.0148 205.257 93.4568 204.513 92.0234C206.91 92.3318 207.598 93.9504 206.569 96.1628Z" fill="#A950FB"/>
<path d="M196.068 152.408C193.731 153.405 193.077 157.799 193.95 163.938L207.753 161.632C204.106 156.241 199.278 151.1 196.068 152.408Z" fill="#A950FB"/>
<path d="M221.213 202.704C220.683 205.758 219.063 207.659 216.072 206.35C217.785 205.162 219.499 203.947 221.213 202.704Z" fill="#A950FB"/>
<path d="M188.311 106.917C185.476 106.761 184.539 105.016 185.91 102.43C186.627 103.969 187.427 105.467 188.311 106.917Z" fill="#A950FB"/>
<path d="M251.966 158.485C251.966 158.836 251.827 159.172 251.579 159.42C251.33 159.669 250.994 159.808 250.643 159.808C250.292 159.808 249.956 159.669 249.706 159.42C249.459 159.172 249.319 158.836 249.319 158.485C249.319 158.134 249.459 157.797 249.706 157.549C249.956 157.301 250.292 157.161 250.643 157.161C250.994 157.161 251.33 157.301 251.579 157.549C251.827 157.797 251.966 158.134 251.966 158.485Z" fill="#A950FB"/>
<path d="M273.747 151.131C273.736 151.474 273.59 151.799 273.344 152.038C273.096 152.276 272.766 152.41 272.424 152.41C272.079 152.41 271.75 152.276 271.502 152.038C271.256 151.799 271.11 151.474 271.099 151.131C271.11 150.788 271.256 150.463 271.502 150.224C271.75 149.986 272.079 149.853 272.424 149.853C272.766 149.853 273.096 149.986 273.344 150.224C273.59 150.463 273.736 150.788 273.747 151.131Z" fill="#A950FB"/>
<path d="M282.408 127.513C282.396 127.857 282.25 128.182 282.004 128.42C281.757 128.659 281.427 128.792 281.083 128.792C280.74 128.792 280.41 128.659 280.163 128.42C279.917 128.182 279.771 127.857 279.759 127.513C279.753 127.336 279.782 127.158 279.846 126.992C279.91 126.826 280.007 126.674 280.13 126.546C280.255 126.418 280.402 126.316 280.566 126.247C280.73 126.177 280.906 126.142 281.083 126.142C281.262 126.142 281.437 126.177 281.601 126.247C281.765 126.316 281.913 126.418 282.037 126.546C282.16 126.674 282.257 126.826 282.321 126.992C282.385 127.158 282.414 127.336 282.408 127.513Z" fill="#A950FB"/>
<path d="M302.908 115.673C302.896 116.016 302.75 116.341 302.504 116.579C302.257 116.818 301.927 116.951 301.584 116.951C301.24 116.951 300.91 116.818 300.663 116.579C300.417 116.341 300.271 116.016 300.259 115.673C300.271 115.329 300.417 115.004 300.663 114.766C300.91 114.527 301.24 114.394 301.584 114.394C301.927 114.394 302.257 114.527 302.504 114.766C302.75 115.004 302.896 115.329 302.908 115.673Z" fill="#A950FB"/>
<path d="M246.577 180.577C246.566 180.92 246.42 181.245 246.174 181.484C245.926 181.722 245.596 181.856 245.252 181.856C244.909 181.856 244.58 181.722 244.332 181.484C244.086 181.245 243.94 180.92 243.929 180.577C243.94 180.234 244.086 179.91 244.332 179.67C244.58 179.432 244.909 179.298 245.252 179.298C245.596 179.298 245.926 179.432 246.174 179.67C246.42 179.91 246.566 180.234 246.577 180.577Z" fill="#A950FB"/>
<path d="M223.238 172.6C223.227 172.943 223.081 173.267 222.835 173.507C222.587 173.745 222.258 173.879 221.913 173.879C221.57 173.879 221.241 173.745 220.993 173.507C220.747 173.267 220.601 172.943 220.59 172.6C220.601 172.257 220.747 171.933 220.993 171.693C221.241 171.455 221.57 171.321 221.913 171.321C222.258 171.321 222.587 171.455 222.835 171.693C223.081 171.933 223.227 172.257 223.238 172.6Z" fill="#A950FB"/>
<path d="M230.156 149.568C230.144 149.911 229.998 150.236 229.752 150.475C229.505 150.713 229.175 150.847 228.831 150.847C228.488 150.847 228.158 150.713 227.911 150.475C227.665 150.236 227.519 149.911 227.507 149.568C227.519 149.225 227.665 148.9 227.911 148.661C228.158 148.423 228.488 148.29 228.831 148.29C229.175 148.29 229.505 148.423 229.752 148.661C229.998 148.9 230.144 149.225 230.156 149.568Z" fill="#A950FB"/>
<path d="M224.08 125.519C224.068 125.862 223.922 126.187 223.676 126.426C223.429 126.664 223.099 126.797 222.755 126.797C222.412 126.797 222.082 126.664 221.835 126.426C221.589 126.187 221.443 125.862 221.431 125.519C221.443 125.176 221.589 124.85 221.835 124.612C222.082 124.374 222.412 124.24 222.755 124.24C223.099 124.24 223.429 124.374 223.676 124.612C223.922 124.85 224.068 125.176 224.08 125.519Z" fill="#A950FB"/>
<path d="M198.592 115.673C198.581 116.016 198.435 116.341 198.189 116.579C197.941 116.818 197.612 116.951 197.267 116.951C196.925 116.951 196.595 116.818 196.347 116.579C196.101 116.341 195.955 116.016 195.944 115.673C195.955 115.329 196.101 115.004 196.347 114.766C196.595 114.527 196.925 114.394 197.267 114.394C197.612 114.394 197.941 114.527 198.189 114.766C198.435 115.004 198.581 115.329 198.592 115.673Z" fill="#A950FB"/>
<path d="M215.448 152.207H210.65L223.238 164.311L215.448 152.207Z" fill="#A950FB"/>
<path d="M256.266 149.635C255.09 149.322 253.96 148.861 252.901 148.264L256.079 152.471C255.996 151.522 256.058 150.565 256.266 149.635Z" fill="#A950FB"/>
<path d="M257.014 157.487C258.146 163.243 257.173 169.215 254.272 174.314L258.634 170.481C259.213 166.083 258.656 161.609 257.014 157.487Z" fill="#A950FB"/>
<path d="M262.529 131.003C261.408 69.8066 245.892 82.7068 248.384 93.3635C242.121 72.3305 230.377 69.2145 230.836 85.075C231.03 93.3875 232.785 101.589 236.009 109.253C224.262 85.3242 220.339 102.21 227.284 116.763C230.727 124.436 235.537 131.411 241.475 137.349M249.25 147.984C248.954 145.427 247.735 143.631 245.872 141.663" stroke="#EFF5F7" stroke-width="1.23" stroke-linecap="round" stroke-linejoin="round"/>
<path d="M96.391 206.906C82.6923 207.865 69.0583 204.294 57.5886 196.743C46.119 189.192 37.4501 178.078 32.9171 165.117C28.384 152.154 28.2384 138.061 32.5024 125.007C36.7665 111.954 45.2038 100.664 56.5148 92.8775C67.8258 85.0906 81.3832 81.2386 95.0989 81.9143C108.815 82.5901 121.927 87.7563 132.418 96.6173C142.909 105.478 150.196 117.543 153.156 130.952C156.116 144.361 154.586 158.372 148.801 170.826" stroke="#EFF5F7" stroke-width="1.23" stroke-linecap="round" stroke-linejoin="round"/>
<path d="M109.977 156.74C100.816 162.255 90.9691 167.802 81.7457 172.538" stroke="#EFF5F7" stroke-width="1.23" stroke-linecap="round" stroke-linejoin="round"/>
<path d="M138.088 102.087C158.186 94.4856 172.461 92.2699 175.385 97.3195C179.224 103.953 162.298 121.344 134.785 140.663" stroke="#EFF5F7" stroke-width="1.23" stroke-linecap="round" stroke-linejoin="round"/>
<path d="M61.6492 182.229C33.5741 194.784 12.3869 199.777 8.74117 193.476C5.78097 188.365 15.1601 176.838 32.2653 162.972" stroke="#EFF5F7" stroke-width="1.23" stroke-linecap="round" stroke-linejoin="round"/>
<path d="M210.65 152.207L223.238 164.312L185.661 105.826" stroke="#EFF5F7" stroke-width="1.23" stroke-linecap="round" stroke-linejoin="round"/>
<path d="M262.935 142.282C262.997 154.341 252.901 148.264 252.901 148.264" stroke="#EFF5F7" stroke-width="1.23" stroke-linecap="round" stroke-linejoin="round"/>
<path d="M252.901 148.264L256.081 152.4" stroke="#EFF5F7" stroke-width="1.23" stroke-linecap="round" stroke-linejoin="round"/>
<path d="M261.096 132.063C257.529 123.371 250.07 128.403 251.173 136.042C251.281 136.794 250.681 137.518 249.132 135.802C247.601 134.096 245.81 135.034 245.62 136.87M246.141 148.42C248.198 150.508 250.659 150.57 248.416 141.596C248.309 141.519 248.204 141.442 248.104 141.364" stroke="#EFF5F7" stroke-width="1.23" stroke-linecap="round" stroke-linejoin="round"/>
<path d="M206.755 93.2393C215.575 108.339 236.252 141.847 250.472 152.191C251.259 152.845 252.186 153.311 253.18 153.554C254.175 153.797 255.212 153.81 256.212 153.593C256.012 152.269 256.032 150.921 256.275 149.604" stroke="#EFF5F7" stroke-width="1.23" stroke-linecap="round" stroke-linejoin="round"/>
<path d="M258.385 170.724C260.099 165.24 257.014 157.481 257.014 157.481C257.014 157.481 264.327 181.054 220.062 205.91" stroke="#EFF5F7" stroke-width="1.23" stroke-linecap="round" stroke-linejoin="round"/>
<path d="M215.448 152.207H197.915" stroke="#EFF5F7" stroke-width="1.23" stroke-linecap="round" stroke-linejoin="round"/>
<path d="M254.272 174.314C254.272 174.314 285.619 148.238 307.367 113.024C304.632 108.317 300.281 104.763 295.123 103.02C288.246 112.938 280.799 122.447 272.819 131.5" stroke="#EFF5F7" stroke-width="1.23" stroke-linecap="round" stroke-linejoin="round"/>
<path d="M207.788 202.948C188.221 209.118 167.28 212.401 145.44 214.384C141.072 214.776 136.698 213.709 133.004 211.345C129.31 208.982 126.505 205.458 125.03 201.328C117.453 180.049 110.426 159.487 101.008 127.513C104.508 124.611 108.502 122.362 112.799 120.875C116.585 119.579 120.535 118.824 124.532 118.633L149.112 171.479L207.754 161.639" stroke="#EFF5F7" stroke-width="1.23" stroke-linecap="round" stroke-linejoin="round"/>
<path d="M216.072 206.345C224.888 210.202 221.344 190.147 215.448 176.121C212.121 168.205 201.725 149.14 195.788 152.581C193.679 153.803 193.113 158.083 193.95 163.969" stroke="#EFF5F7" stroke-width="1.23" stroke-linecap="round" stroke-linejoin="round"/>
<path d="M120.102 187.337L93.1503 175.037C87.2635 180.61 83.2009 187.832 81.4965 195.757C100.942 210.947 121.727 224.337 143.597 235.765C146.202 237.155 149.086 237.941 152.036 238.066C154.987 238.19 157.927 237.647 160.64 236.481C182.001 227.46 202.312 216.131 221.213 202.697" stroke="#EFF5F7" stroke-width="1.23" stroke-linecap="round" stroke-linejoin="round"/>
<path d="M121.068 118.944C115.033 119.674 109.25 121.797 104.176 125.145C103.054 121.094 88.2271 93.2405 89.3751 91.0577C91.5989 86.8249 103.555 102.487 111.468 106.146C119.358 109.778 119.043 114.987 121.068 118.944Z" stroke="#EFF5F7" stroke-width="1.23" stroke-linecap="round" stroke-linejoin="round"/>
<path d="M81.7458 172.538C79.6948 172.262 77.6097 172.389 75.6073 172.912C67.1317 174.904 48.8113 169.827 48.9359 174.594C49.0294 177.74 81.2784 190.548 82.5871 191.855C84.3184 186.37 87.233 181.332 91.1249 177.095C88.232 175.747 85.8901 173.192 81.7458 172.538Z" stroke="#EFF5F7" stroke-width="1.23" stroke-linecap="round" stroke-linejoin="round"/>
<path d="M192.236 75.6648C192.236 75.6648 192.236 71.9567 192.205 66.1921C192.172 60.1471 194.517 58.9893 195.414 65.8494C195.511 66.5972 196.661 74.1068 197.003 76.3191C197.19 77.5344 198.061 80.8898 199.185 80.7471C202.266 80.3453 208.073 73.6033 209.902 75.6057C211.093 76.9177 207.509 81.6541 204.854 84.8603C204.106 85.7613 203.642 86.8637 203.521 88.0284C203.398 89.1931 203.624 90.3677 204.17 91.4039C204.262 91.5875 206.404 95.8958 206.569 96.1599" stroke="#EFF5F7" stroke-width="1.23" stroke-linecap="round" stroke-linejoin="round"/>
<path d="M192.7 77.1918C192.7 77.1918 188.713 64.572 188.462 63.7306C186.484 57.1198 184.372 58.622 185.346 64.572C186.274 70.2447 187.314 77.1606 187.314 77.1606" stroke="#EFF5F7" stroke-width="1.23" stroke-linecap="round" stroke-linejoin="round"/>
<path d="M188.31 79.2119C186.379 75.3701 184.682 71.416 183.226 67.3711C180.851 60.8931 179.075 62.5118 180.172 68.4617C180.769 72.1378 181.646 75.7628 182.796 79.3054" stroke="#EFF5F7" stroke-width="1.23" stroke-linecap="round" stroke-linejoin="round"/>
<path d="M185.892 102.463C184.548 105.031 185.489 106.763 188.311 106.917C194.051 107.228 204.157 101.313 206.569 96.1633C207.606 93.9542 206.911 92.3355 204.513 92.0239" stroke="#EFF5F7" stroke-width="1.23" stroke-linecap="round" stroke-linejoin="round"/>
<path d="M185.003 82.5543C182.739 79.552 180.846 76.2864 179.367 72.8291C176.662 66.4331 174.962 68.1896 176.469 74.2625C176.871 75.8828 177.289 77.2834 177.653 78.4691C178.719 81.8639 179.741 85.2931 180.707 88.7207C181.763 92.4927 185.44 102.712 188.311 106.925" stroke="#EFF5F7" stroke-width="1.23" stroke-linecap="round" stroke-linejoin="round"/>
<path d="M194.729 76.5684C188.933 78.4068 185.661 81.367 181.891 86.1656" stroke="#EFF5F7" stroke-width="1.23" stroke-linecap="round" stroke-linejoin="round"/>
<path d="M196.162 79.2793C194.12 81.3395 192.531 83.8031 191.495 86.5127C190.46 89.2223 190 92.1182 190.148 95.0151" stroke="#EFF5F7" stroke-width="1.23" stroke-linecap="round" stroke-linejoin="round"/>
<path d="M296.432 103.551C296.432 103.551 300.358 96.3224 299.203 90.6529C297.834 83.9289 298.938 83.7895 302.288 89.6558C304.51 93.5442 305.778 102.866 305.778 102.866" stroke="#EFF5F7" stroke-width="1.23" stroke-linecap="round" stroke-linejoin="round"/>
<path d="M306.432 111.528C306.432 111.528 312.413 101.775 313.848 95.2003C315.093 89.498 312.945 92.0548 312.166 93.8883" stroke="#EFF5F7" stroke-width="1.23" stroke-linecap="round" stroke-linejoin="round"/>
<path d="M307.1 90.4314C307.406 88.3181 307.506 86.1797 307.398 84.0469C306.993 78.0019 305.555 78.4053 304.594 83.6107C304.159 86.0536 303.577 88.4678 302.849 90.8398" stroke="#EFF5F7" stroke-width="1.23" stroke-linecap="round" stroke-linejoin="round"/>
<path d="M305.965 89.126C308.637 91.9833 310.327 95.6171 310.795 99.5006" stroke="#EFF5F7" stroke-width="1.23" stroke-linecap="round" stroke-linejoin="round"/>
<path d="M307.398 87.1939C307.866 85.8819 308.304 84.4173 308.71 82.8003C310.137 77.1275 311.39 78.2821 311.11 83.3923C310.887 86.9812 310.245 90.5318 309.199 93.972" stroke="#EFF5F7" stroke-width="1.23" stroke-linecap="round" stroke-linejoin="round"/>
<path d="M310.795 87.1007C312.259 80.931 313.727 81.9281 313.319 87.5057C312.968 91.2459 312.054 94.9116 310.608 98.3789" stroke="#EFF5F7" stroke-width="1.23" stroke-linecap="round" stroke-linejoin="round"/>
<path d="M90.5952 236.693L91.3431 240.993" stroke="#EFF5F7" stroke-width="1.23" stroke-linecap="round" stroke-linejoin="round"/>
<path d="M88.009 245.761L83.6777 246.54" stroke="#EFF5F7" stroke-width="1.23" stroke-linecap="round" stroke-linejoin="round"/>
<path d="M100.442 243.58L96.1105 244.327" stroke="#EFF5F7" stroke-width="1.23" stroke-linecap="round" stroke-linejoin="round"/>
<path d="M93.5242 253.426L92.7764 249.095" stroke="#EFF5F7" stroke-width="1.23" stroke-linecap="round" stroke-linejoin="round"/>
<path d="M96.1039 244.327C95.5716 244.426 95.0253 244.416 94.4966 244.301C93.9677 244.186 93.4671 243.966 93.0237 243.657C92.5802 243.347 92.2027 242.951 91.9131 242.494C91.6234 242.036 91.4275 241.526 91.3364 240.993C91.434 241.526 91.425 242.072 91.3097 242.6C91.1946 243.13 90.9755 243.63 90.6653 244.073C90.3552 244.518 89.9602 244.895 89.5031 245.183C89.0459 245.474 88.5358 245.67 88.0023 245.761C88.5347 245.664 89.0809 245.672 89.6097 245.787C90.1386 245.903 90.6391 246.121 91.0826 246.431C91.5262 246.741 91.9036 247.137 92.1932 247.594C92.4828 248.052 92.6788 248.562 92.7698 249.095C92.6722 248.562 92.6812 248.016 92.7965 247.488C92.9117 246.958 93.1308 246.458 93.4409 246.015C93.751 245.57 94.1461 245.193 94.6032 244.905C95.0604 244.614 95.5704 244.417 96.1039 244.327Z" stroke="#EFF5F7" stroke-width="1.23" stroke-linecap="round" stroke-linejoin="round"/>
<path d="M152.851 51.8276L153.381 54.8502" stroke="#EFF5F7" stroke-width="1.23" stroke-linecap="round" stroke-linejoin="round"/>
<path d="M151.013 58.2153L147.99 58.745" stroke="#EFF5F7" stroke-width="1.23" stroke-linecap="round" stroke-linejoin="round"/>
<path d="M159.798 56.6885L156.746 57.2182" stroke="#EFF5F7" stroke-width="1.23" stroke-linecap="round" stroke-linejoin="round"/>
<path d="M154.908 63.6372L154.378 60.5835" stroke="#EFF5F7" stroke-width="1.23" stroke-linecap="round" stroke-linejoin="round"/>
<path d="M156.746 57.2183C156.37 57.2848 155.984 57.2765 155.61 57.1933C155.237 57.1102 154.884 56.9542 154.571 56.7341C154.258 56.514 153.992 56.2343 153.788 55.9109C153.584 55.5876 153.445 55.2271 153.381 54.8501C153.448 55.2271 153.44 55.6135 153.358 55.9874C153.275 56.3614 153.119 56.7151 152.899 57.0283C152.679 57.3418 152.399 57.6084 152.075 57.8129C151.751 58.0174 151.39 58.156 151.013 58.2203C151.389 58.1537 151.775 58.1621 152.149 58.2452C152.522 58.3284 152.875 58.4843 153.188 58.7044C153.501 58.9245 153.767 59.2043 153.971 59.5277C154.175 59.8509 154.314 60.2114 154.378 60.5885C154.311 60.2116 154.319 59.825 154.401 59.4511C154.484 59.0772 154.64 58.7234 154.86 58.4102C155.081 58.0968 155.36 57.8303 155.684 57.6256C156.008 57.4211 156.369 57.2827 156.746 57.2183Z" stroke="#EFF5F7" stroke-width="1.23" stroke-linecap="round" stroke-linejoin="round"/>
<path d="M302.568 136.768L303.908 144.307" stroke="#EFF5F7" stroke-width="1.23" stroke-linecap="round" stroke-linejoin="round"/>
<path d="M298.05 152.658L290.511 153.998" stroke="#EFF5F7" stroke-width="1.23" stroke-linecap="round" stroke-linejoin="round"/>
<path d="M319.8 148.825L312.259 150.165" stroke="#EFF5F7" stroke-width="1.23" stroke-linecap="round" stroke-linejoin="round"/>
<path d="M307.741 166.026L306.401 158.485" stroke="#EFF5F7" stroke-width="1.23" stroke-linecap="round" stroke-linejoin="round"/>
<path d="M312.256 150.165C310.372 150.495 308.433 150.063 306.869 148.965C305.302 147.866 304.236 146.191 303.905 144.307C304.235 146.191 303.803 148.129 302.705 149.695C301.606 151.261 299.931 152.327 298.047 152.658C299.931 152.328 301.87 152.76 303.434 153.858C305.001 154.957 306.067 156.632 306.398 158.516C306.068 156.632 306.5 154.694 307.598 153.128C308.697 151.562 310.372 150.496 312.256 150.165Z" stroke="#EFF5F7" stroke-width="1.23" stroke-linecap="round" stroke-linejoin="round"/>
<path d="M264.96 226.942L207.16 250.684" stroke="#EFF5F7" stroke-width="1.23" stroke-linecap="round" stroke-linejoin="round"/>
<path d="M193.513 268.352L264.96 226.942L177.933 294.618" stroke="#EFF5F7" stroke-width="1.23" stroke-linecap="round" stroke-linejoin="round"/>
<path d="M272.064 225.539C272.342 226.945 272.197 228.401 271.646 229.723C271.097 231.047 270.167 232.177 268.975 232.97C267.782 233.764 266.382 234.187 264.948 234.186C263.517 234.182 262.116 233.756 260.927 232.959C259.737 232.16 258.81 231.029 258.264 229.703C257.718 228.38 257.577 226.924 257.859 225.518C258.141 224.114 258.831 222.825 259.846 221.813C260.862 220.802 262.152 220.114 263.558 219.837C264.491 219.652 265.452 219.654 266.383 219.84C267.317 220.026 268.204 220.395 268.993 220.925C269.783 221.454 270.462 222.135 270.989 222.927C271.515 223.717 271.881 224.606 272.064 225.539Z" stroke="#EFF5F7" stroke-width="1.23" stroke-linecap="round" stroke-linejoin="round"/>
<path d="M267.609 130.069C302.319 95.699 241.934 67.7485 276.645 33.3823" stroke="#EFF5F7" stroke-width="1.23" stroke-linecap="round" stroke-linejoin="round"/>
<path d="M115.179 120.128L137.645 181.107" stroke="#EFF5F7" stroke-width="1.23" stroke-linecap="round" stroke-linejoin="round"/>
<path d="M137.645 181.107C138.764 184.131 140.898 186.673 143.683 188.298C146.468 189.924 149.73 190.53 152.914 190.017" stroke="#EFF5F7" stroke-width="1.23" stroke-linecap="round" stroke-linejoin="round"/>
<path d="M152.945 190.017L216.851 179.611" stroke="#EFF5F7" stroke-width="1.23" stroke-linecap="round" stroke-linejoin="round"/>
<path d="M244.863 141.753L254.147 140.632L253.431 135.864L240.657 137.516L244.863 141.753Z" stroke="#EFF5F7" stroke-width="1.23" stroke-linecap="round" stroke-linejoin="round"/>
<path d="M263.745 130.629L257.077 131.627C256.501 131.714 255.95 131.915 255.451 132.216C254.954 132.517 254.521 132.914 254.177 133.382C253.833 133.851 253.583 134.383 253.446 134.948C253.306 135.513 253.28 136.099 253.368 136.674L253.86 139.954C254.031 141.115 254.656 142.16 255.596 142.861C256.537 143.561 257.716 143.86 258.877 143.692L265.516 142.68" stroke="#EFF5F7" stroke-width="1.23" stroke-linecap="round" stroke-linejoin="round"/>
<path d="M270.506 141.939C271.082 141.851 271.633 141.651 272.13 141.35C272.629 141.049 273.062 140.652 273.406 140.184C273.75 139.715 273.998 139.183 274.137 138.619C274.277 138.054 274.303 137.468 274.215 136.893L273.723 133.613C273.552 132.452 272.929 131.406 271.987 130.705C271.048 130.004 269.867 129.705 268.706 129.874L263.751 130.621C263.176 130.709 262.625 130.91 262.126 131.211C261.629 131.512 261.196 131.908 260.852 132.377C260.507 132.846 260.258 133.378 260.12 133.943C259.981 134.508 259.955 135.094 260.043 135.669L260.535 138.941C260.616 139.514 260.809 140.065 261.103 140.564C261.398 141.062 261.787 141.497 262.249 141.845C262.712 142.192 263.24 142.445 263.799 142.588C264.36 142.731 264.944 142.763 265.516 142.68L270.506 141.939Z" stroke="#EFF5F7" stroke-width="1.23" stroke-linecap="round" stroke-linejoin="round"/>
<path d="M287.831 44.936C285.301 45.0931 282.875 45.9967 280.86 47.5327C278.843 49.0688 277.327 51.1681 276.504 53.5655C275.682 55.9628 275.589 58.5502 276.235 61.0007C276.883 63.4512 278.242 65.6547 280.143 67.3323C282.042 69.01 284.397 70.0865 286.91 70.426C289.421 70.7653 291.977 70.3522 294.254 69.2388C296.532 68.1254 298.427 66.3619 299.702 64.171C300.976 61.9803 301.573 59.4606 301.416 56.9309C301.312 55.2509 300.879 53.6076 300.141 52.0952C299.402 50.5828 298.372 49.2308 297.111 48.1167C295.849 47.0027 294.38 46.1482 292.788 45.6025C291.195 45.0567 289.511 44.8302 287.831 44.936ZM281.88 63.7304C281.368 63.576 280.914 63.2736 280.574 62.861C280.235 62.4485 280.025 61.9446 279.973 61.4129C279.918 60.8812 280.025 60.3457 280.276 59.8742C280.527 59.4026 280.912 59.0162 281.383 58.7638C281.855 58.5112 282.39 58.4041 282.921 58.456C283.453 58.5078 283.958 58.7161 284.371 59.0547C284.784 59.3932 285.088 59.8468 285.244 60.358C285.399 60.869 285.399 61.415 285.245 61.9264C285.143 62.2663 284.976 62.5828 284.752 62.8577C284.527 63.1326 284.25 63.3604 283.938 63.528C283.625 63.6956 283.282 63.7997 282.929 63.8345C282.575 63.8693 282.219 63.8338 281.88 63.7304ZM290.324 56.252C289.585 56.0304 288.929 55.5948 288.437 55C287.945 54.4051 287.64 53.678 287.562 52.9101C287.484 52.1424 287.635 51.3687 287.995 50.6866C288.356 50.0045 288.912 49.445 289.591 49.0783C290.27 48.7117 291.043 48.5546 291.81 48.6271C292.579 48.6994 293.309 48.9979 293.908 49.4848C294.506 49.9717 294.947 50.6251 295.174 51.3626C295.402 52.1001 295.405 52.8885 295.185 53.628C294.885 54.6182 294.206 55.4497 293.296 55.9412C292.384 56.4327 291.316 56.5444 290.324 56.252ZM292.35 65.108C291.974 64.9964 291.658 64.7401 291.471 64.3952C291.284 64.0505 291.241 63.6456 291.353 63.2695C291.464 62.8935 291.72 62.5773 292.066 62.3901C292.41 62.2032 292.815 62.1609 293.191 62.2724C293.567 62.3839 293.883 62.6404 294.07 62.9851C294.257 63.3299 294.3 63.7348 294.188 64.1108C294.077 64.4869 293.821 64.8032 293.475 64.9902C293.13 65.1772 292.725 65.2195 292.35 65.108Z" stroke="#EFF5F7" stroke-width="1.23"/>
</svg>
