<svg width="298" height="358" viewBox="0 0 298 358" fill="none" xmlns="http://www.w3.org/2000/svg">
<path d="M166.793 329.516C175.611 330.127 176.705 316.785 167.915 315.876L83.6376 304.237C82.742 304.046 81.8172 304.037 80.9176 304.209C80.0181 304.38 79.1619 304.73 78.3994 305.24C77.6369 305.747 76.9835 306.403 76.4776 307.167C75.9716 307.932 75.6233 308.79 75.453 309.691C75.2828 310.592 75.2942 311.52 75.4862 312.417C75.6785 313.313 76.0477 314.164 76.5721 314.915C77.0965 315.668 77.7658 316.307 78.5404 316.796C79.3151 317.285 80.1794 317.615 81.0829 317.765C80.142 317.712 79.2 317.851 78.3143 318.173C77.4284 318.495 76.6171 318.994 75.9293 319.64C75.2414 320.285 74.6912 321.064 74.3121 321.928C73.9331 322.792 73.733 323.725 73.7238 324.669C73.7249 326.35 74.341 327.97 75.4552 329.226C76.5695 330.483 78.1047 331.285 79.7701 331.483C78.8613 331.388 77.9425 331.474 77.0677 331.738C76.1926 332.002 75.3791 332.439 74.6746 333.022C73.9701 333.604 73.3887 334.324 72.9645 335.133C72.5403 335.944 72.2819 336.832 72.2043 337.745C72.1267 338.657 72.2314 339.575 72.5125 340.447C72.7936 341.318 73.2452 342.124 73.8411 342.817C74.4369 343.512 75.165 344.08 75.9828 344.488C76.8004 344.896 77.6912 345.138 78.6031 345.198L162.798 356.846C172.396 357.918 173.61 344.887 165.417 343.291C173.92 343.486 174.928 330.871 166.793 329.516Z" fill="#CDCCD9"/>
<path fill-rule="evenodd" clip-rule="evenodd" d="M52.312 128.406C73.8831 124.181 95.7767 121.819 117.751 121.348C116.307 130.758 115.763 140.285 116.124 149.798C115.326 149.788 114.529 149.778 113.731 149.768L113.718 149.768L113.706 149.767C94.571 149.52 75.2951 149.27 54.0887 152.824C50.5432 145.174 49.9112 136.49 52.312 128.406ZM61.2361 132.61C61.5692 132.276 61.7564 131.823 61.7564 131.351C61.7564 130.879 61.5692 130.426 61.2361 130.092C60.9028 129.758 60.451 129.571 59.9797 129.571C59.5084 129.571 59.0566 129.758 58.7233 130.092C58.3902 130.426 58.203 130.879 58.203 131.351C58.203 131.823 58.3902 132.276 58.7233 132.61C59.0566 132.943 59.5084 133.131 59.9797 133.131C60.451 133.131 60.9028 132.943 61.2361 132.61ZM86.0593 143.737C86.0593 144.209 85.8721 144.662 85.5388 144.996C85.2057 145.33 84.7539 145.517 84.2826 145.517C83.8113 145.517 83.3595 145.33 83.0264 144.996C82.6932 144.662 82.506 144.209 82.506 143.737C82.506 143.265 82.6932 142.813 83.0264 142.479C83.3595 142.145 83.8113 141.957 84.2826 141.957C84.7539 141.957 85.2057 142.145 85.5388 142.479C85.8721 142.813 86.0593 143.265 86.0593 143.737ZM112.114 128.48C112.447 128.146 112.634 127.694 112.634 127.221C112.634 126.749 112.447 126.297 112.114 125.963C111.781 125.629 111.329 125.442 110.858 125.442C110.387 125.442 109.935 125.629 109.602 125.963C109.268 126.297 109.081 126.749 109.081 127.221C109.081 127.694 109.268 128.146 109.602 128.48C109.935 128.814 110.387 129.001 110.858 129.001C111.329 129.001 111.781 128.814 112.114 128.48Z" fill="#CDCCD9"/>
<path fill-rule="evenodd" clip-rule="evenodd" d="M150.118 118.678C150.118 120.458 151.186 121.491 154.062 121.562C156.294 121.597 159.002 121.704 161.986 121.848C156.41 130.186 151.975 139.236 148.805 148.757L124.538 148.223C123.633 140.836 124.82 128.196 125.568 121.277L134.628 121.491C135.774 121.556 136.919 121.337 137.96 120.852C139.001 120.368 139.907 119.633 140.597 118.714V118.678H150.118ZM138.381 143.217C138.714 142.883 138.901 142.43 138.901 141.958C138.901 141.486 138.714 141.033 138.381 140.699C138.047 140.366 137.596 140.178 137.124 140.178C136.653 140.178 136.201 140.366 135.868 140.699C135.535 141.033 135.348 141.486 135.348 141.958C135.348 142.43 135.535 142.883 135.868 143.217C136.201 143.55 136.653 143.738 137.124 143.738C137.596 143.738 138.047 143.55 138.381 143.217Z" fill="#CDCCD9"/>
<path fill-rule="evenodd" clip-rule="evenodd" d="M169.127 122.243C185.401 123.311 225.088 126.942 241.147 133.277C242.999 141.687 242.256 150.462 239.015 158.44C208.603 152.18 187.64 149.825 160.601 149.931L158.114 158.55C152.464 154.385 163.586 131.355 169.127 122.243ZM178.59 130.26C178.923 129.926 179.11 129.473 179.11 129.001C179.11 128.529 178.923 128.077 178.59 127.743C178.257 127.409 177.805 127.221 177.333 127.221C176.862 127.221 176.409 127.409 176.077 127.743C175.744 128.077 175.557 128.529 175.557 129.001C175.557 129.473 175.744 129.926 176.077 130.26C176.409 130.594 176.862 130.781 177.333 130.781C177.805 130.781 178.257 130.594 178.59 130.26ZM205.369 146.906C205.369 147.378 205.182 147.83 204.849 148.164C204.516 148.498 204.064 148.685 203.592 148.685C203.121 148.685 202.669 148.498 202.336 148.164C202.003 147.83 201.816 147.378 201.816 146.906C201.816 146.434 202.003 145.981 202.336 145.647C202.669 145.313 203.121 145.126 203.592 145.126C204.064 145.126 204.516 145.313 204.849 145.647C205.182 145.981 205.369 146.434 205.369 146.906ZM234.907 138.375C235.24 138.041 235.427 137.588 235.427 137.116C235.427 136.644 235.24 136.191 234.907 135.857C234.574 135.524 234.121 135.336 233.65 135.336C233.179 135.336 232.726 135.524 232.393 135.857C232.06 136.191 231.873 136.644 231.873 137.116C231.873 137.588 232.06 138.041 232.393 138.375C232.726 138.708 233.179 138.896 233.65 138.896C234.121 138.896 234.574 138.708 234.907 138.375Z" fill="#CDCCD9"/>
<path d="M147.242 112.911L142.019 116.257C142.513 115.185 142.894 114.063 143.156 112.911C144.517 112.991 145.881 112.991 147.242 112.911Z" fill="#512DA8"/>
<path d="M199.044 100.988C210.308 75.3941 168.842 96.8658 168.842 96.8658C175.452 84.3369 157.047 87.1848 149.088 93.2347C157.189 87.7188 158.611 95.7266 156.372 100.283C155.981 101.244 156.443 101.707 158.398 101.209C162.484 100.176 162.594 106.642 155.626 106.762C155.052 107.03 154.552 107.433 154.169 107.937C152.037 112.599 150.083 116.336 150.083 118.721C150.083 120.537 151.149 121.569 154.027 121.605C177.537 122.333 200.965 124.748 224.129 128.831C227.435 127.644 230.446 125.758 232.959 123.301C235.473 120.844 237.429 117.874 238.695 114.592C252.623 81.3035 199.044 100.988 199.044 100.988Z" fill="#512DA8"/>
<path d="M119.741 260.811C115.577 265.727 109.99 269.223 103.753 270.814C106.276 275.369 107.519 283.343 108.615 288.54C110.481 298.607 113.398 308.449 117.319 317.905C125.137 300.293 126.06 285.194 128.619 274.728C126.061 269.843 123.091 265.187 119.741 260.811Z" fill="#512DA8"/>
<path d="M233.33 198.981C228.11 201.761 223.141 204.99 218.479 208.628C222.993 213.074 226.253 218.637 227.931 224.753C238.684 219.366 256.933 219.392 276.286 211.013C258.805 203.004 243.741 201.686 233.33 198.981Z" fill="#512DA8"/>
<path d="M184.975 221.016L169.022 234.292L163.657 229.595C171.057 227.532 178.207 224.654 184.975 221.016Z" fill="#512DA8"/>
<path d="M117.929 216.779C118.426 218.879 119.03 221.015 119.741 223.149C129.428 221.476 138.885 218.666 147.917 214.78C138.714 218.482 127.68 218.325 117.929 216.779Z" fill="#512DA8"/>
<path d="M120.672 309.352L167.889 315.81C176.959 316.749 175.332 330.569 166.393 329.445C175.323 330.473 173.712 344.059 164.872 343.201C173.825 344.334 172.14 357.843 163.398 356.959L78.3391 345.177C77.4393 345.086 76.5665 344.816 75.7711 344.385C74.9759 343.952 74.2737 343.367 73.705 342.663C73.1364 341.958 72.7127 341.147 72.4581 340.278C72.2036 339.409 72.1234 338.498 72.2221 337.597C72.3209 336.696 72.5965 335.824 73.0334 335.03C73.4701 334.237 74.0594 333.537 74.767 332.973C75.4747 332.409 76.2869 331.991 77.1568 331.742C78.0266 331.494 78.937 331.421 79.8352 331.526C78.9286 331.436 78.0485 331.168 77.246 330.736C76.4435 330.305 75.7347 329.716 75.1603 329.008C74.586 328.3 74.1576 327.483 73.9 326.608C73.6425 325.733 73.5608 324.815 73.6597 323.908C73.7586 322.999 74.0362 322.121 74.4764 321.323C74.9165 320.522 75.5104 319.82 76.2241 319.252C76.9376 318.684 77.7563 318.263 78.6329 318.016C79.5096 317.766 80.4268 317.695 81.3314 317.804C80.4114 317.695 79.5231 317.399 78.7202 316.936C77.9174 316.474 77.2166 315.852 76.6604 315.11C76.1042 314.366 75.704 313.519 75.4841 312.618C75.2643 311.716 75.2292 310.78 75.3812 309.863C75.5331 308.947 75.8688 308.072 76.3681 307.291C76.8673 306.508 77.5196 305.837 78.2856 305.314C79.0516 304.792 79.9153 304.432 80.8245 304.254C81.7338 304.076 82.6696 304.083 83.5756 304.278L113.575 308.381" stroke="#F8F8F8" stroke-width="0.75" stroke-linecap="round" stroke-linejoin="round"/>
<path d="M231.162 95.4697C225.718 79.0709 215.795 64.5292 202.519 53.4941C189.242 42.4593 173.144 35.3729 156.052 33.039C107.306 26.3389 63.6546 59.5956 58.4163 107.288C57.7024 113.905 57.7501 120.581 58.5584 127.186" stroke="#F8F8F8" stroke-width="0.75" stroke-linecap="round" stroke-linejoin="round"/>
<path d="M234.929 131.28C235.317 127.644 235.471 123.986 235.388 120.329" stroke="#F8F8F8" stroke-width="0.75" stroke-linecap="round" stroke-linejoin="round"/>
<path d="M228.295 156.323C227.819 157.443 227.248 158.521 226.59 159.545C211.03 185.214 202.038 200.203 195.713 215.004" stroke="#F8F8F8" stroke-width="0.75" stroke-linecap="round" stroke-linejoin="round"/>
<path d="M126.079 287.851L177.406 294.884C178.863 286.983 182.268 263.17 183.553 256.94" stroke="#F8F8F8" stroke-width="0.75" stroke-linecap="round" stroke-linejoin="round"/>
<path d="M81.1128 248.424C81.0417 253.326 78.8125 275.423 78.6273 281.314L107.939 285.194" stroke="#F8F8F8" stroke-width="0.75" stroke-linecap="round" stroke-linejoin="round"/>
<path d="M65.2385 151.249C69.1453 163.137 72.2012 172.497 74.5108 180.756" stroke="#F8F8F8" stroke-width="0.75" stroke-linecap="round" stroke-linejoin="round"/>
<path d="M138.927 103.408L117.964 100.524C115.297 100.103 112.573 100.227 109.955 100.887C107.336 101.547 104.878 102.73 102.728 104.366C100.578 106.002 98.7794 108.056 97.4411 110.405C96.103 112.754 95.2524 115.35 94.9407 118.037C94.7899 119.528 94.7993 121.031 94.9687 122.521" stroke="#F8F8F8" stroke-width="0.75" stroke-linecap="round" stroke-linejoin="round"/>
<path d="M128.02 288.113L132.851 246.431" stroke="#F8F8F8" stroke-width="0.75" stroke-linecap="round" stroke-linejoin="round"/>
<path d="M117.751 121.312C117.751 121.312 112.889 149.718 119.457 171.324C118.421 173.914 117.682 176.612 117.254 179.368" stroke="#F8F8F8" stroke-width="0.75" stroke-linecap="round" stroke-linejoin="round"/>
<path d="M116.046 149.79C96.1134 149.54 76.1455 149.113 54.0101 152.814C50.4841 145.161 49.8651 136.483 52.269 128.406C79.3598 123.071 106.958 120.767 134.557 121.535C138.181 121.687 140.558 119.398 142.019 116.267C142.513 115.194 142.894 114.072 143.156 112.921C138.106 112.493 131.187 109.722 145.536 96.1554C146.649 95.0981 147.837 94.1227 149.09 93.2363" stroke="#F8F8F8" stroke-width="0.75" stroke-linecap="round" stroke-linejoin="round"/>
<path d="M241.147 133.308C225.172 127.069 186.312 123.377 169.091 122.274C163.55 131.387 152.428 154.418 158.078 158.581L160.601 149.93C187.64 149.824 208.602 152.179 239.015 158.438C242.299 150.483 243.044 141.704 241.147 133.308Z" stroke="#F8F8F8" stroke-width="0.75" stroke-linecap="round" stroke-linejoin="round"/>
<path d="M156.447 100.114C158.577 95.5331 157.096 87.7689 149.088 93.223C157.047 87.1731 175.457 84.3252 168.842 96.854C168.842 96.854 210.306 75.3899 199.044 100.976C257.393 79.5512 244.061 121.518 224.129 128.812C200.966 124.704 177.539 122.277 154.027 121.55C151.149 121.511 150.083 120.482 150.083 118.667C150.083 116.282 152.095 112.57 154.169 107.882C154.554 107.379 155.054 106.976 155.626 106.707C162.594 106.582 162.482 100.118 158.398 101.154C156.469 101.654 156.05 100.972 156.447 100.114Z" stroke="#F8F8F8" stroke-width="0.75" stroke-linecap="round" stroke-linejoin="round"/>
<path d="M257.668 141.424C260.582 142.45 263.44 143.627 266.232 144.949C282.877 152.99 271.88 151.107 267.12 149.258" stroke="#F8F8F8" stroke-width="0.75" stroke-linecap="round" stroke-linejoin="round"/>
<path d="M264.775 156.943C266.782 158.286 268.659 159.811 270.385 161.5C274.472 165.594 272.164 166.161 268.22 164.205C264.986 162.601 261.151 161.031 257.098 159.506C251.682 157.273 245.993 155.778 240.18 155.062" stroke="#F8F8F8" stroke-width="0.75" stroke-linecap="round" stroke-linejoin="round"/>
<path d="M264.988 159.755C264.9 154.828 263.133 150.08 259.978 146.3" stroke="#F8F8F8" stroke-width="0.75" stroke-linecap="round" stroke-linejoin="round"/>
<path d="M267.404 158.865C269.003 159.684 271.027 160.612 273.123 161.606C276.959 163.426 278.594 162.854 274.936 159.545C271.481 156.426 267.562 153.869 263.318 151.965" stroke="#F8F8F8" stroke-width="0.75" stroke-linecap="round" stroke-linejoin="round"/>
<path d="M269.465 155.306C283.357 162.532 285.513 160.378 274.083 153.057C269.615 150.352 264.891 148.098 259.978 146.331" stroke="#F8F8F8" stroke-width="0.75" stroke-linecap="round" stroke-linejoin="round"/>
<path d="M247.401 148.686C249.277 149.115 251.244 148.86 252.95 147.968C254.656 147.075 255.989 145.603 256.709 143.815C258.052 141.212 257.064 139.97 258.557 138.154C260.866 135.344 260.414 133.974 257.1 135.413C254.938 136.35 249.887 138.902 246.015 137.763C244.392 137.309 242.761 136.873 241.763 136.618" stroke="#F8F8F8" stroke-width="0.75" stroke-linecap="round" stroke-linejoin="round"/>
<path d="M35.5384 135.471C32.5293 136.368 29.575 137.441 26.6906 138.683C9.74122 146.051 20.7921 144.592 25.6246 142.954" stroke="#F8F8F8" stroke-width="0.75" stroke-linecap="round" stroke-linejoin="round"/>
<path d="M27.6127 150.716C25.5537 151.979 23.6171 153.432 21.8283 155.057C17.5979 159.008 19.8365 159.647 23.8537 157.867C27.1564 156.406 31.0688 155.031 35.1514 153.667C47.3075 149.607 52.9181 149.895 52.9181 149.895" stroke="#F8F8F8" stroke-width="0.75" stroke-linecap="round" stroke-linejoin="round"/>
<path d="M27.2926 153.525C27.5905 148.605 29.5551 143.934 32.862 140.284" stroke="#F8F8F8" stroke-width="0.75" stroke-linecap="round" stroke-linejoin="round"/>
<path d="M24.9476 152.529C23.3131 153.278 21.2521 154.131 19.1201 155.021C15.2115 156.656 13.6087 156.049 17.379 152.885C20.9441 149.896 24.9742 147.513 29.3089 145.831" stroke="#F8F8F8" stroke-width="0.75" stroke-linecap="round" stroke-linejoin="round"/>
<path d="M22.9932 148.863C8.77992 155.483 6.74704 153.192 18.4805 146.407C23.0641 143.902 27.8809 141.852 32.8622 140.284" stroke="#F8F8F8" stroke-width="0.75" stroke-linecap="round" stroke-linejoin="round"/>
<path d="M51.4162 131.992C47.4738 132.951 38.3455 130.561 36.2453 129.536C33.0174 127.958 32.4844 129.281 34.6818 132.204C36.0714 134.053 35.1139 135.121 35.89 137.401C36.6773 139.713 38.6952 143.275 43.352 142.385" stroke="#F8F8F8" stroke-width="0.75" stroke-linecap="round" stroke-linejoin="round"/>
<path d="M119.741 260.774L121.837 263.622" stroke="#F8F8F8" stroke-width="0.75" stroke-linecap="round" stroke-linejoin="round"/>
<path d="M121.838 263.623C124.382 267.144 126.651 270.857 128.625 274.728C126.066 285.194 125.142 300.286 117.325 317.905C113.405 308.449 110.487 298.607 108.621 288.54C107.377 282.732 106.454 276.116 103.759 270.85" stroke="#F8F8F8" stroke-width="0.75" stroke-linecap="round" stroke-linejoin="round"/>
<path d="M218.479 208.664C223.147 205.031 228.114 201.803 233.33 199.017C243.741 201.687 258.805 203.004 276.286 211.008C266.813 214.841 256.965 217.668 246.904 219.439C238.925 221.062 234.747 221.335 227.912 224.751" stroke="#F8F8F8" stroke-width="0.75" stroke-linecap="round" stroke-linejoin="round"/>
<path d="M54.2943 260.063L31.1284 222.866" stroke="#F8F8F8" stroke-width="0.75" stroke-linecap="round" stroke-linejoin="round"/>
<path d="M28.4635 234.292L31.1285 222.866L42.5347 225.536" stroke="#F8F8F8" stroke-width="0.75" stroke-linecap="round" stroke-linejoin="round"/>
<path d="M297 124.908C297 126.042 296.665 127.15 296.035 128.092C295.407 129.035 294.515 129.769 293.469 130.203C292.424 130.637 291.274 130.75 290.163 130.529C289.054 130.308 288.034 129.762 287.234 128.961C286.433 128.159 285.889 127.138 285.669 126.026C285.448 124.915 285.56 123.762 285.994 122.715C286.426 121.668 287.159 120.772 288.102 120.143C289.042 119.513 290.148 119.177 291.279 119.177C292.031 119.176 292.775 119.324 293.469 119.612C294.163 119.9 294.795 120.322 295.326 120.854C295.857 121.387 296.278 122.019 296.566 122.714C296.852 123.41 297 124.155 297 124.908Z" stroke="#F8F8F8" stroke-width="0.75" stroke-linecap="round" stroke-linejoin="round"/>
<path d="M207.608 330.543C207.608 331.289 207.387 332.02 206.974 332.64C206.558 333.26 205.971 333.743 205.283 334.03C204.595 334.315 203.837 334.39 203.106 334.243C202.375 334.099 201.705 333.739 201.178 333.211C200.651 332.683 200.291 332.012 200.147 331.279C200.002 330.547 200.076 329.788 200.361 329.099C200.647 328.409 201.129 327.821 201.748 327.405C202.367 326.991 203.097 326.77 203.841 326.77C204.337 326.766 204.828 326.861 205.287 327.051C205.745 327.238 206.162 327.515 206.512 327.868C206.863 328.218 207.14 328.636 207.327 329.095C207.516 329.554 207.611 330.047 207.608 330.543Z" stroke="#F8F8F8" stroke-width="0.75" stroke-linecap="round" stroke-linejoin="round"/>
<path d="M49.2841 52.6836L62.0405 60.1949" stroke="#F8F8F8" stroke-width="0.75" stroke-linecap="round" stroke-linejoin="round"/>
<path d="M114.908 1L119.35 15.024" stroke="#F8F8F8" stroke-width="0.75" stroke-linecap="round" stroke-linejoin="round"/>
<path d="M196.059 19.5094L203.13 6.66016" stroke="#F8F8F8" stroke-width="0.75" stroke-linecap="round" stroke-linejoin="round"/>
<path d="M250.704 70.9815L263.993 64.5381" stroke="#F8F8F8" stroke-width="0.75" stroke-linecap="round" stroke-linejoin="round"/>
<path d="M8.6021 84.5068L7.11157 98.2105" stroke="#F8F8F8" stroke-width="0.75" stroke-linecap="round" stroke-linejoin="round"/>
<path d="M14.6785 92.1231L1 90.6299" stroke="#F8F8F8" stroke-width="0.75" stroke-linecap="round" stroke-linejoin="round"/>
<path d="M161.951 121.848C156.374 130.186 151.94 139.237 148.77 148.759L124.538 148.223C123.401 139.109 125.533 121.276 125.533 121.276" stroke="#F8F8F8" stroke-width="0.75" stroke-linecap="round" stroke-linejoin="round"/>
<path d="M125.32 154.415L126.67 168.655L135.125 174.562L144.08 168.512L147.242 154.735L125.32 154.415Z" stroke="#F8F8F8" stroke-width="0.75" stroke-linecap="round" stroke-linejoin="round"/>
<path d="M140.526 118.714H150.047" stroke="#F8F8F8" stroke-width="0.75" stroke-linecap="round" stroke-linejoin="round"/>
<path d="M184.975 221.016L169.022 234.292L163.685 229.587" stroke="#F8F8F8" stroke-width="0.75" stroke-linecap="round" stroke-linejoin="round"/>
<path d="M158.078 158.581L154.631 170.471C154.631 170.471 175.556 200.044 151.826 213.002C146.183 216.084 138.145 218.178 127.513 217.749C117.32 217.187 107.279 215.023 97.7571 211.334C105.546 226.246 114.318 240.622 124.014 254.367C121.323 259.789 117.13 264.32 111.937 267.417C107.252 270.064 102.051 271.661 96.6911 272.101C83.3024 252.664 71.0449 232.47 59.9796 211.619C58.3378 208.554 57.473 205.131 57.4614 201.651C57.4496 198.174 58.2916 194.745 59.9128 191.669C61.5339 188.592 63.8849 185.962 66.7588 184.009C69.6327 182.057 72.9416 180.843 76.3941 180.472C94.4077 178.546 115.193 178.194 131.003 180.899" stroke="#F8F8F8" stroke-width="0.75" stroke-linecap="round" stroke-linejoin="round"/>
<path d="M97.7573 211.334C95.7674 207.667 94.204 204.179 94.204 204.179" stroke="#F8F8F8" stroke-width="0.75" stroke-linecap="round" stroke-linejoin="round"/>
<path d="M117.929 216.779C121.653 233.01 131.04 247.375 144.399 257.286C148.038 260.054 152.288 261.901 156.789 262.677C161.291 263.451 165.912 263.128 170.264 261.736C191.496 254.89 211.449 244.57 229.316 231.196C227.472 219.557 222.93 211.304 213.149 204.179C198.309 213.594 180.525 225.214 163.685 229.587C158.882 224.725 154.96 219.066 152.089 212.861" stroke="#F8F8F8" stroke-width="0.75" stroke-linecap="round" stroke-linejoin="round"/>
<path d="M147.917 214.78C138.885 218.666 129.428 221.472 119.741 223.145" stroke="#F8F8F8" stroke-width="0.75" stroke-linecap="round" stroke-linejoin="round"/>
<path d="M143.156 112.911C144.517 112.99 145.881 112.99 147.242 112.911L142.019 116.257" stroke="#F8F8F8" stroke-width="0.75" stroke-linecap="round" stroke-linejoin="round"/>
</svg>
