<svg width="537" height="538" viewBox="0 0 537 538" fill="none" xmlns="http://www.w3.org/2000/svg">
<path d="M372.838 146.389C371.323 136.542 362.987 126.37 355.194 121.446C354.381 120.906 353.571 120.417 352.758 119.932C335.115 132.149 302.854 151.91 264.966 157.916C262.044 158.402 258.472 157.697 256.252 159.7C249.272 165.923 247.865 187.675 230.599 188.161C228.215 194.224 226.052 200.066 223.724 205.044C226.546 201.092 247.171 204.839 252.409 206.018C257.548 207.155 279.714 213.193 278.77 217.923C282.666 209.533 281.152 201.041 278.608 192.164C309.513 186.215 352.326 164.354 372.838 146.389Z" fill="#CDCCD9"/>
<path d="M102.54 237.673C97.0428 242.955 90.1024 246.489 82.5961 247.828C75.0901 249.166 67.3553 248.25 60.3703 245.194C53.3853 242.139 47.4635 237.081 43.3538 230.66C39.2441 224.24 37.1313 216.746 37.2822 209.125C37.4334 201.504 39.8415 194.099 44.2024 187.846C48.5631 181.594 54.6807 176.774 61.7814 173.998C68.8821 171.221 76.647 170.612 84.0942 172.247C91.5413 173.882 98.3362 177.688 103.62 183.183C107.131 186.83 109.889 191.133 111.735 195.847C113.581 200.56 114.48 205.591 114.38 210.652C114.279 215.713 113.182 220.704 111.15 225.341C109.119 229.977 106.193 234.168 102.54 237.673Z" fill="#CDCCD9"/>
<path d="M223.073 415.795C218.148 418.665 208.948 412.713 198.881 401.348C199.057 405.269 200.17 409.093 202.127 412.497C208.948 425.265 208.624 456.758 216.201 454.547C218.313 453.896 220.802 443.182 223.022 430.902C224.171 424.97 225.69 419.114 227.57 413.369C226.629 413.849 224.017 415.167 223.073 415.795Z" fill="#5E35B1"/>
<path d="M254.575 144.443C255.569 147.332 257.032 150.037 258.906 152.449C263.667 151.748 268.959 150.304 269.945 148.122C270.118 147.755 270.263 147.375 270.38 146.986C269.135 150.935 261.936 148.284 254.575 144.443Z" fill="#5E35B1"/>
<path d="M260.961 115.385C251.381 105.322 220.152 113.22 198.989 128.535C177.719 143.9 183.835 158.294 211.384 151.694C209.761 152.18 192.114 157.481 180.587 170.73C163.645 190.21 178.367 197.676 197.355 193.781C220.032 189.127 239.518 170.514 246.12 157.635C249.152 150.047 251.209 142.104 252.242 133.998C244.341 127.56 249.158 121.716 253.487 126.154C255.814 128.535 258.412 127.398 255.544 119.619C258.435 117.826 261.905 117.252 260.961 115.385Z" fill="#5E35B1"/>
<path d="M333.219 429.973C332.218 417.125 332.363 404.215 333.651 391.392C323.382 394.29 312.488 394.123 302.314 390.906C302.53 399.89 299.716 404.433 302.044 410.008C303.442 413.133 305.426 415.96 307.887 418.338C318.065 428.621 326.779 458.92 333.435 454.593C335.276 453.396 334.572 442.418 333.219 429.973Z" fill="#5E35B1"/>
<path d="M231.409 203.313C230.922 205.825 230.16 208.275 229.135 210.618C220.313 206.234 222.371 203.367 231.409 203.313Z" fill="#5E35B1"/>
<path d="M278.824 217.857C278.605 218.886 277.144 219.537 274.708 219.846C275.629 218.17 276.442 216.653 277.144 215.138C278.389 216.19 278.983 217.11 278.824 217.857Z" fill="#5E35B1"/>
<path d="M303.07 300.87L297.386 317.156C297.17 310.826 296.954 304.603 296.843 298.489L303.07 300.87Z" fill="#5E35B1"/>
<path d="M108.69 415.85C94.1555 390.977 74.869 369.793 65.7573 373.302C53.4254 378.053 70.1568 416.148 79.7518 432.786C95.8807 460.707 115.366 479.644 123.495 475.274C135.309 468.694 116.008 428.371 108.69 415.85Z" fill="#5E35B1"/>
<path d="M208.624 357.252C192.603 329.547 173.172 310.826 165.16 315.486C157.097 320.137 163.591 346.327 179.558 374.029C195.525 401.731 215.01 420.401 223.019 415.796C231.085 411.144 224.591 384.954 208.624 357.252Z" fill="#5E35B1"/>
<path d="M227.567 413.361C225.692 419.106 224.174 424.961 223.019 430.894C220.825 443.179 218.316 453.908 216.198 454.539C208.635 456.812 208.92 425.274 202.124 412.488C200.163 409.087 199.05 405.263 198.878 401.339" stroke="#F8F8F8" stroke-width="1.25" stroke-linecap="round" stroke-linejoin="round"/>
<path d="M414.892 209.752C413.812 208.004 412.363 206.516 410.643 205.391C408.924 204.267 406.98 203.534 404.945 203.245C402.91 202.955 400.838 203.117 398.874 203.717C396.91 204.318 395.1 205.343 393.576 206.72C392.974 204.665 391.902 202.776 390.453 201.2C389.001 199.625 387.204 198.405 385.204 197.636C383.206 196.866 381.054 196.568 378.92 196.763C376.785 196.959 374.728 197.644 372.9 198.765C371.32 199.737 369.947 201.012 368.862 202.516C367.773 204.02 366.994 205.724 366.568 207.53C364.32 205.836 361.614 204.86 358.803 204.73C355.993 204.601 353.207 205.323 350.814 206.803C348.421 208.283 346.531 210.451 345.391 213.024C344.252 215.596 343.919 218.453 344.431 221.219C342.603 220.74 340.699 220.633 338.832 220.903C336.962 221.173 335.168 221.814 333.551 222.79C331.727 223.91 330.186 225.433 329.044 227.243C327.901 229.053 327.191 231.101 326.966 233.228C326.742 235.356 327.009 237.507 327.748 239.516C328.484 241.524 329.675 243.336 331.224 244.812C329.325 245.56 327.614 246.714 326.21 248.192C324.806 249.67 323.74 251.438 323.092 253.371C322.442 255.303 322.223 257.355 322.45 259.381C322.675 261.408 323.342 263.36 324.403 265.102C325.883 267.549 328.097 269.472 330.726 270.597C333.358 271.722 336.277 271.995 339.071 271.378L414.628 225.066C416.529 223.921 418.84 216.125 414.892 209.752Z" stroke="#F8F8F8" stroke-width="1.25" stroke-linecap="round" stroke-linejoin="round"/>
<path d="M357.576 231.231C359.361 232.913 360.512 235.158 360.836 237.589C361.16 240.02 360.637 242.488 359.352 244.578C358.067 246.668 356.103 248.252 353.79 249.064C351.474 249.875 348.95 249.865 346.642 249.034" stroke="#F8F8F8" stroke-width="1.25" stroke-linecap="round" stroke-linejoin="round"/>
<path d="M391.24 221.71C390.939 223.899 389.973 225.942 388.466 227.559C386.96 229.176 384.99 230.289 382.83 230.745C380.668 231.201 378.417 230.977 376.385 230.106C374.355 229.234 372.644 227.757 371.485 225.876C370.993 225.063 370.612 224.19 370.348 223.279" stroke="#F8F8F8" stroke-width="1.25" stroke-linecap="round" stroke-linejoin="round"/>
<path d="M393.568 206.72C392.113 208.092 390.905 209.704 389.995 211.485" stroke="#F8F8F8" stroke-width="1.25" stroke-linecap="round" stroke-linejoin="round"/>
<path d="M336.152 243.901C334.472 243.985 332.812 244.293 331.215 244.816" stroke="#F8F8F8" stroke-width="1.25" stroke-linecap="round" stroke-linejoin="round"/>
<path d="M366.56 207.533C366.204 209.296 366.147 211.106 366.386 212.888" stroke="#F8F8F8" stroke-width="1.25" stroke-linecap="round" stroke-linejoin="round"/>
<path d="M349.785 223.731C348.163 222.582 346.346 221.732 344.422 221.222" stroke="#F8F8F8" stroke-width="1.25" stroke-linecap="round" stroke-linejoin="round"/>
<path d="M434.162 241.025C430.146 234.414 421.858 233.235 420.414 234.317L344.8 280.689C342.638 281.987 339.668 289.843 343.774 296.486C344.843 298.222 346.278 299.705 347.978 300.828C349.68 301.953 351.607 302.689 353.625 302.987C355.643 303.282 357.701 303.135 359.656 302.552C361.609 301.97 363.413 300.967 364.937 299.612C365.803 302.592 367.645 305.197 370.163 307.013C372.681 308.829 375.734 309.749 378.837 309.633C381.941 309.513 384.917 308.363 387.29 306.36C389.663 304.359 391.297 301.62 391.937 298.583C394.17 300.293 396.87 301.291 399.681 301.441C402.492 301.595 405.283 300.893 407.69 299.43C410.095 297.967 412.002 295.813 413.161 293.247C414.318 290.682 414.673 287.826 414.182 285.056C417.18 285.815 420.346 285.556 423.183 284.323C426.019 283.087 428.367 280.945 429.853 278.234C431.339 275.521 431.882 272.392 431.396 269.335C430.91 266.282 429.424 263.475 427.17 261.357C429.089 260.629 430.825 259.488 432.255 258.015C433.681 256.541 434.77 254.771 435.438 252.831C436.103 250.89 436.336 248.826 436.114 246.786C435.895 244.746 435.227 242.779 434.162 241.025Z" stroke="#F8F8F8" stroke-width="1.25" stroke-linecap="round" stroke-linejoin="round"/>
<path d="M388.967 282.419C388.41 280.535 387.347 278.842 385.891 277.524C384.436 276.205 382.649 275.313 380.719 274.944C378.789 274.575 376.797 274.745 374.958 275.433C373.119 276.123 371.505 277.302 370.294 278.848C369.109 280.373 368.344 282.183 368.074 284.096" stroke="#F8F8F8" stroke-width="1.25" stroke-linecap="round" stroke-linejoin="round"/>
<path d="M412.729 256.783C410.646 256.064 408.39 256.004 406.269 256.613C404.152 257.222 402.271 258.469 400.886 260.184C399.502 261.9 398.678 264 398.533 266.199C398.385 268.399 398.92 270.591 400.062 272.475C400.551 273.293 401.154 274.041 401.85 274.694" stroke="#F8F8F8" stroke-width="1.25" stroke-linecap="round" stroke-linejoin="round"/>
<path d="M427.179 261.371C425.272 262.076 423.257 262.443 421.224 262.454" stroke="#F8F8F8" stroke-width="1.25" stroke-linecap="round" stroke-linejoin="round"/>
<path d="M367.932 295.708C367.122 297.151 366.113 298.472 364.937 299.637" stroke="#F8F8F8" stroke-width="1.25" stroke-linecap="round" stroke-linejoin="round"/>
<path d="M414.19 285.071C412.448 284.571 410.8 283.789 409.31 282.758" stroke="#F8F8F8" stroke-width="1.25" stroke-linecap="round" stroke-linejoin="round"/>
<path d="M392.099 292.801C392.357 294.73 392.303 296.685 391.945 298.597" stroke="#F8F8F8" stroke-width="1.25" stroke-linecap="round" stroke-linejoin="round"/>
<path d="M344.8 280.689L336.737 285.556" stroke="#F8F8F8" stroke-width="1.25" stroke-linecap="round" stroke-linejoin="round"/>
<path d="M339.065 271.381L331.107 276.197" stroke="#F8F8F8" stroke-width="1.25" stroke-linecap="round" stroke-linejoin="round"/>
<path d="M297.118 309.635L211.168 361.795" stroke="#F8F8F8" stroke-width="1.25" stroke-linecap="round" stroke-linejoin="round"/>
<path d="M295.385 297.893L205.699 352.382" stroke="#F8F8F8" stroke-width="1.25" stroke-linecap="round" stroke-linejoin="round"/>
<path d="M371.701 147.364C390.951 145.584 410.305 149.401 427.435 158.358C444.564 167.313 458.743 181.026 468.261 197.847C497.012 247.242 481.952 311.036 434.648 340.315C405.059 358.63 396.848 348.947 339.389 365.318" stroke="#F8F8F8" stroke-width="1.25" stroke-linecap="round" stroke-linejoin="round"/>
<path d="M223.639 415.375C249.923 401.672 273.413 389.693 297.604 379.814" stroke="#F8F8F8" stroke-width="1.25" stroke-linecap="round" stroke-linejoin="round"/>
<path d="M226.646 269.378C208.408 283.988 188.434 298.219 165.106 315.426" stroke="#F8F8F8" stroke-width="1.25" stroke-linecap="round" stroke-linejoin="round"/>
<path d="M305.02 184.428C293.677 201.477 280.95 217.565 266.969 232.53" stroke="#F8F8F8" stroke-width="1.25" stroke-linecap="round" stroke-linejoin="round"/>
<path d="M352.704 119.986C361.85 125.125 371.161 135.678 372.838 146.389C352.324 164.354 309.513 186.215 278.608 192.164C281.152 201.041 282.666 209.536 278.77 217.923C279.714 213.198 257.872 207.237 252.409 206.018C247.078 204.828 226.524 201.129 223.724 205.044C226.052 200.066 228.218 194.222 230.599 188.161C247.865 187.675 249.243 165.892 256.252 159.7C258.46 157.751 261.936 158.405 264.966 157.916C302.831 151.759 335.115 132.16 352.758 119.932L352.704 119.986Z" stroke="#F8F8F8" stroke-width="1.25" stroke-linecap="round" stroke-linejoin="round"/>
<path d="M226.822 214.676C242.317 214.429 257.578 218.481 270.909 226.382" stroke="#F8F8F8" stroke-width="1.25" stroke-linecap="round" stroke-linejoin="round"/>
<path d="M270.13 147.563C268.365 150.648 261.544 148.08 254.575 144.437C255.568 147.326 257.032 150.032 258.907 152.444" stroke="#F8F8F8" stroke-width="1.25" stroke-linecap="round" stroke-linejoin="round"/>
<path d="M262.959 158.118C259.188 157.192 260.197 155.356 258.906 152.449C269.081 150.946 270.843 149.074 270.425 143.977C269.814 136.573 265.466 120.44 260.961 115.385" stroke="#F8F8F8" stroke-width="1.25" stroke-linecap="round" stroke-linejoin="round"/>
<path d="M278.608 192.164C275.467 192.761 272.438 193.193 269.621 193.466" stroke="#F8F8F8" stroke-width="1.25" stroke-linecap="round" stroke-linejoin="round"/>
<path d="M255.55 119.608C258.418 127.398 255.834 128.535 253.492 126.143C249.161 121.707 244.346 127.563 252.247 133.987C251.217 142.096 249.162 150.041 246.131 157.632C239.529 170.511 220.044 189.124 197.366 193.778C178.367 197.674 163.645 190.207 180.598 170.727C192.126 157.47 209.772 152.168 211.395 151.691C183.847 158.291 177.736 143.906 199.001 128.532C220.169 113.226 251.392 105.319 260.973 115.383C261.888 117.235 258.332 117.889 255.55 119.608Z" stroke="#F8F8F8" stroke-width="1.25" stroke-linecap="round" stroke-linejoin="round"/>
<path d="M230.599 188.161C233.458 180.429 237.142 173.028 241.587 166.085C243.344 163.456 244.848 160.667 246.077 157.754" stroke="#F8F8F8" stroke-width="1.25" stroke-linecap="round" stroke-linejoin="round"/>
<path d="M267.052 232.445C270.805 226.919 274.185 221.15 277.172 215.176" stroke="#F8F8F8" stroke-width="1.25" stroke-linecap="round" stroke-linejoin="round"/>
<path d="M384.638 117.335C392.809 115.386 399.536 119.068 398.979 122.205C398.854 122.833 398.596 123.428 398.223 123.95C397.848 124.472 397.371 124.909 396.817 125.233" stroke="#F8F8F8" stroke-width="1.25" stroke-linecap="round" stroke-linejoin="round"/>
<path d="M383.879 112.357C392.485 110.3 401.037 114.63 397.357 119.176" stroke="#F8F8F8" stroke-width="1.25" stroke-linecap="round" stroke-linejoin="round"/>
<path d="M371.917 142.494C377.01 136.682 383.544 132.316 390.862 129.833" stroke="#F8F8F8" stroke-width="1.25" stroke-linecap="round" stroke-linejoin="round"/>
<path d="M384.311 123.176C392.269 121.554 397.51 124.691 397.195 127.776C396.805 131.564 389.237 137.3 382.85 133.621" stroke="#F8F8F8" stroke-width="1.25" stroke-linecap="round" stroke-linejoin="round"/>
<path d="M377.601 109.487C377.709 109.379 381.012 104.782 379.551 103.319C378.306 102.074 360.335 116.846 355.302 121.554" stroke="#F8F8F8" stroke-width="1.25" stroke-linecap="round" stroke-linejoin="round"/>
<path d="M387.938 111.814C402.228 104.944 406.065 96.6561 403.365 98.1762C394.355 102.685 385.101 106.695 375.651 110.189C368.336 112.971 361.464 116.799 355.248 121.554" stroke="#F8F8F8" stroke-width="1.25" stroke-linecap="round" stroke-linejoin="round"/>
<path d="M333.651 391.392C332.375 404.215 332.23 417.125 333.219 429.973C334.597 442.415 335.274 453.399 333.435 454.593C326.773 458.914 318.045 428.641 307.887 418.338C305.42 415.963 303.437 413.133 302.044 410.008C299.711 404.425 302.539 399.873 302.311 390.861" stroke="#F8F8F8" stroke-width="1.25" stroke-linecap="round" stroke-linejoin="round"/>
<path d="M208.624 357.252C224.611 384.943 231.091 411.153 223.019 415.781C215.016 420.39 195.525 401.714 179.558 374.015C163.591 346.316 157.102 320.142 165.16 315.48C173.217 310.817 192.623 329.535 208.624 357.252Z" stroke="#F8F8F8" stroke-width="1.25" stroke-linecap="round" stroke-linejoin="round"/>
<path d="M126.473 460.022C122.426 434.841 98.0975 392.944 78.3449 377.814C68.1417 369.913 60.8347 371.31 61.6703 384.562C63.2562 409.707 91.2651 458.218 112.172 472.453C123.779 480.352 128.769 474.317 126.473 460.022Z" stroke="#F8F8F8" stroke-width="1.25" stroke-linecap="round" stroke-linejoin="round"/>
<path d="M124.032 474.99L140.101 465.696C141.649 464.483 142.702 462.747 143.061 460.815C143.419 458.883 143.06 456.885 142.051 455.198C148.445 464.827 160.993 454.885 155.96 446.541C160.63 454.496 175.312 449.359 169.275 437.289C170.643 439.062 172.593 440.293 174.781 440.767C176.969 441.244 179.255 440.932 181.235 439.886C187.772 435.715 185.347 427.604 181.292 414.4C173.705 391.724 161.671 370.787 145.893 352.817C142.101 348.302 137.76 344.276 132.97 340.838C125.396 336.141 116.875 339.662 119.806 352.439C117.395 348.424 114.568 345.799 109.79 347.08C108.584 347.415 107.472 348.026 106.541 348.862C105.61 349.7 104.885 350.74 104.424 351.904C103.963 353.067 103.778 354.322 103.883 355.57C103.988 356.817 104.38 358.022 105.03 359.093C105.03 359.093 99.4221 352.007 93.0671 357.039C91.4889 358.269 90.4257 360.042 90.0852 362.011C89.7447 363.983 90.1511 366.008 91.2254 367.696C90.7139 366.793 90.0283 366.003 89.2087 365.366C88.389 364.73 87.4517 364.264 86.4501 363.991C85.4489 363.718 84.4038 363.65 83.375 363.784C82.3461 363.917 81.3545 364.255 80.4567 364.775L65.3311 373.475" stroke="#F8F8F8" stroke-width="1.25" stroke-linecap="round" stroke-linejoin="round"/>
<path d="M529.531 129.941L522.44 145.821H535.429L528.284 161.703" stroke="#F8F8F8" stroke-width="1.25" stroke-linecap="round" stroke-linejoin="round"/>
<path d="M277.144 522.175L248.351 523.039" stroke="#F8F8F8" stroke-width="1.25" stroke-linecap="round" stroke-linejoin="round"/>
<path d="M263.181 537L262.314 508.213" stroke="#F8F8F8" stroke-width="1.25" stroke-linecap="round" stroke-linejoin="round"/>
<path d="M231.409 203.313C230.922 205.825 230.16 208.274 229.135 210.618C220.314 206.234 222.371 203.367 231.409 203.313Z" stroke="#F8F8F8" stroke-width="1.25" stroke-linecap="round" stroke-linejoin="round"/>
<path d="M278.77 217.923C278.509 218.904 277.119 219.543 274.768 219.861" stroke="#F8F8F8" stroke-width="1.25" stroke-linecap="round" stroke-linejoin="round"/>
<path d="M231.409 203.313C230.522 209.461 227.401 215.065 222.641 219.057C201.371 235.939 201.041 259.584 216.579 277.28" stroke="#F8F8F8" stroke-width="1.25" stroke-linecap="round" stroke-linejoin="round"/>
<path d="M64.3846 374.066L40.403 387.659" stroke="#F8F8F8" stroke-width="1.25" stroke-linecap="round" stroke-linejoin="round"/>
<path d="M122.932 475.583L101.403 488.139" stroke="#F8F8F8" stroke-width="1.25" stroke-linecap="round" stroke-linejoin="round"/>
<path d="M91.0094 494.686L75.0425 503.993" stroke="#F8F8F8" stroke-width="1.25" stroke-linecap="round" stroke-linejoin="round"/>
<path d="M29.2533 394.64L12.9623 403.894" stroke="#F8F8F8" stroke-width="1.25" stroke-linecap="round" stroke-linejoin="round"/>
<path d="M79.8058 432.786L27.3577 463.79" stroke="#F8F8F8" stroke-width="1.25" stroke-linecap="round" stroke-linejoin="round"/>
<path d="M16.9129 470.339L1 479.59" stroke="#F8F8F8" stroke-width="1.25" stroke-linecap="round" stroke-linejoin="round"/>
<path d="M102.54 237.672C97.0428 242.955 90.1024 246.489 82.5961 247.827C75.0901 249.166 67.3553 248.25 60.3703 245.194C53.3853 242.138 47.4635 237.08 43.3538 230.66C39.2441 224.24 37.1313 216.745 37.2822 209.125C37.4334 201.504 39.8415 194.099 44.2024 187.846C48.5631 181.593 54.6807 176.774 61.7814 173.997C68.8821 171.221 76.647 170.612 84.0942 172.246C91.5413 173.882 98.3362 177.687 103.62 183.183C107.131 186.83 109.889 191.133 111.735 195.847C113.581 200.56 114.48 205.591 114.38 210.652C114.279 215.713 113.182 220.704 111.15 225.34C109.119 229.977 106.193 234.168 102.54 237.672Z" stroke="#F8F8F8" stroke-width="1.25" stroke-linecap="round" stroke-linejoin="round"/>
<path d="M114.337 212.175C126.3 217.858 133.379 223.256 132.362 226.665C130.54 232.822 103.62 230.453 72.1748 221.361C40.7298 212.269 16.6885 199.901 18.4818 193.736C19.505 190.215 28.6026 189.459 42.0713 191.139" stroke="#F8F8F8" stroke-width="1.25" stroke-linecap="round" stroke-linejoin="round"/>
<path d="M218.705 252.387C220.274 262.235 225.81 271.265 233.265 273.6C256.545 280.879 296.86 298.543 296.86 298.543C297.363 326.41 299.887 357.073 297.187 389.122C310.096 394.555 324.585 394.881 337.726 390.04C340 359.795 341.458 330.791 340.918 304.007C340.796 297.342 339.253 290.781 336.388 284.76C333.52 278.743 329.402 273.404 324.303 269.108C303.269 251.724 279.816 237.489 254.683 226.85" stroke="#F8F8F8" stroke-width="1.25" stroke-linecap="round" stroke-linejoin="round"/>
<path d="M296.846 298.543L303.07 300.87L297.389 317.156" stroke="#F8F8F8" stroke-width="1.25" stroke-linecap="round" stroke-linejoin="round"/>
<path d="M298.309 367.747C311.468 372.262 325.636 372.955 339.173 369.75" stroke="#F8F8F8" stroke-width="1.25" stroke-linecap="round" stroke-linejoin="round"/>
<path d="M286.401 1V10.038" stroke="#F8F8F8" stroke-width="1.25" stroke-linecap="round" stroke-linejoin="round"/>
<path d="M303.991 18.5845H294.95" stroke="#F8F8F8" stroke-width="1.25" stroke-linecap="round" stroke-linejoin="round"/>
<path d="M286.401 36.1718V27.1338" stroke="#F8F8F8" stroke-width="1.25" stroke-linecap="round" stroke-linejoin="round"/>
<path d="M268.811 18.5845H277.855" stroke="#F8F8F8" stroke-width="1.25" stroke-linecap="round" stroke-linejoin="round"/>
<path d="M294.95 18.5843C293.827 18.5872 292.713 18.3684 291.676 17.9399C290.636 17.5115 289.692 16.8818 288.899 16.0877C288.103 15.2936 287.475 14.3503 287.046 13.3118C286.617 12.2737 286.398 11.161 286.401 10.0378C286.404 11.1608 286.185 12.2732 285.756 13.3113C285.329 14.3494 284.699 15.2925 283.906 16.0869C283.11 16.881 282.166 17.5103 281.129 17.9391C280.091 18.3675 278.977 18.5869 277.855 18.5843C278.977 18.5818 280.091 18.8011 281.129 19.2298C282.169 19.6586 283.113 20.2882 283.906 21.0829C284.699 21.8773 285.329 22.8209 285.759 23.8594C286.185 24.8976 286.404 26.0105 286.401 27.1336C286.398 26.0102 286.617 24.8973 287.046 23.8585C287.472 22.82 288.103 21.8762 288.896 21.0818C289.692 20.2874 290.636 19.6577 291.673 19.229C292.713 18.8003 293.827 18.5812 294.95 18.5843Z" stroke="#F8F8F8" stroke-width="1.25" stroke-linecap="round" stroke-linejoin="round"/>
</svg>
