<svg width="480" height="420" viewBox="0 0 480 420" fill="none" xmlns="http://www.w3.org/2000/svg">
<path d="M329.942 129.822C329.926 139.312 327.123 148.584 321.89 156.465C316.656 164.346 309.226 170.483 300.54 174.099C291.854 177.715 282.301 178.648 273.089 176.78C263.878 174.912 255.422 170.327 248.79 163.605C242.159 156.883 237.65 148.325 235.833 139.015C234.016 129.704 234.974 120.058 238.585 111.297C242.196 102.536 248.297 95.0535 256.118 89.7952C263.939 84.537 273.128 81.7394 282.524 81.7562C288.766 81.751 294.949 82.992 300.715 85.4078C306.481 87.8236 311.718 91.3667 316.125 95.8333C320.531 100.3 324.02 105.602 326.392 111.435C328.763 117.268 329.969 123.517 329.942 129.822Z" fill="#F2F2F2"/>
<path d="M409.002 157.792L415.681 144.91C409.692 137.604 390.041 128.744 390.041 128.744L363.444 104.292C363.161 103.201 362.598 102.205 361.813 101.403C361.027 100.602 360.046 100.024 358.969 99.7269C357.892 99.4301 356.756 99.4251 355.676 99.7125C354.597 99.9999 353.611 100.57 352.818 101.364C352.026 102.159 351.455 103.15 351.162 104.238C350.869 105.327 350.866 106.474 351.152 107.564C351.438 108.654 352.003 109.649 352.79 110.449C353.578 111.248 354.56 111.824 355.638 112.118L384.371 146.927L409.002 157.792Z" fill="#9E616A"/>
<path d="M405.767 156.903L415.198 159.936C422.056 162.142 429.446 161.976 436.201 159.464C438.244 158.695 440.033 157.365 441.367 155.623C442.701 153.882 443.526 151.798 443.749 149.607C444.032 146.636 443.186 143.667 441.384 141.301C439.582 138.935 436.958 137.348 434.042 136.861C425.198 135.393 413.802 134.669 409.736 139.556L409.695 139.606L405.767 156.903Z" fill="#3F3D56"/>
<path d="M337.93 196.339C364.165 196.339 385.433 174.857 385.433 148.358C385.433 121.859 364.165 100.377 337.93 100.377C311.695 100.377 290.427 121.859 290.427 148.358C290.427 174.857 311.695 196.339 337.93 196.339Z" fill="white"/>
<path d="M318.544 129.59C317.892 133.129 316.822 136.575 315.359 139.856C306.98 157.762 330.843 151.926 339.371 151.926C348.695 151.926 357.616 156.878 356.254 134.873C355.672 125.473 348.695 117.82 339.371 117.82C331.407 117.82 320.209 121.396 318.544 129.59Z" fill="#2F2E41"/>
<path d="M337.974 151.921C345.551 151.921 351.693 145.717 351.693 138.064C351.693 130.411 345.551 124.207 337.974 124.207C330.397 124.207 324.255 130.411 324.255 138.064C324.255 145.717 330.397 151.921 337.974 151.921Z" fill="#FFB6B6"/>
<path d="M328.657 123.938C331.061 122.458 333.815 121.657 336.63 121.62C339.446 121.582 342.219 122.309 344.661 123.725C347.103 125.141 349.123 127.194 350.511 129.668C351.899 132.142 352.603 134.948 352.549 137.791C345.559 139.564 338.215 140.921 330.76 138.216L328.999 133.863L327.961 138.219C325.691 139.156 323.415 139.949 321.139 138.21C321.046 135.374 321.691 132.564 323.011 130.06C324.33 127.555 326.277 125.444 328.657 123.938Z" fill="#2F2E41"/>
<path d="M374.866 180.263C366.636 189.721 355.054 195.531 342.62 196.439C330.186 197.347 317.897 193.279 308.406 185.114L312.481 173.631C313.402 171.591 314.855 169.843 316.684 168.574C318.514 167.305 320.651 166.563 322.866 166.427L325.458 166.267L331.639 160.882C331.639 160.882 348.292 160.282 348.045 159.994L358.133 166.123L358.125 166.081L362.09 166.326C364.305 166.461 366.443 167.203 368.272 168.472C370.102 169.741 371.555 171.489 372.475 173.529L374.866 180.263Z" fill="#512DA8"/>
<path d="M333.763 377.973L332.582 361.391C324.85 357.487 316.292 355.548 307.65 355.744C319.808 365.236 318.834 384.208 327.254 397.192C329.911 401.222 333.432 404.596 337.555 407.064C341.678 409.532 346.298 411.031 351.073 411.451L361.192 417.331C362.349 409.603 361.835 401.714 359.683 394.207C357.531 386.7 353.794 379.754 348.729 373.846C345.854 370.561 342.582 367.654 338.989 365.194C336.777 371.608 333.763 377.973 333.763 377.973Z" fill="#F2F2F2"/>
<path d="M26.113 84.0552L24.9326 67.4729C17.2007 63.5688 8.64206 61.6302 0 61.8254C12.1582 71.3179 11.1844 90.2901 19.6046 103.274C22.2615 107.304 25.782 110.677 29.9052 113.145C34.0285 115.614 38.6488 117.113 43.4237 117.532L53.5422 123.412C54.6997 115.685 54.1849 107.796 52.0333 100.289C49.8817 92.7822 46.1445 85.8356 41.079 79.928C38.2048 76.6423 34.9324 73.7353 31.339 71.2755C29.1273 77.6895 26.113 84.0552 26.113 84.0552Z" fill="#F2F2F2"/>
<path d="M378.027 411.724L370.134 411.724L366.379 380.974H378.028L378.027 411.724Z" fill="#9E616A"/>
<path d="M380.04 419.452L354.59 419.451V419.126C354.59 416.472 355.634 413.928 357.492 412.051C359.349 410.175 361.869 409.121 364.496 409.121H364.497L369.145 405.558L377.819 409.121L380.04 409.121L380.04 419.452Z" fill="#2F2E41"/>
<path d="M447.589 411.724L439.696 411.724L435.941 380.974H447.59L447.589 411.724Z" fill="#9E616A"/>
<path d="M449.602 419.452L424.152 419.451V419.126C424.152 416.472 425.196 413.928 427.054 412.051C428.911 410.175 431.431 409.121 434.058 409.121H434.058L438.707 405.558L447.381 409.121L449.602 409.121L449.602 419.452Z" fill="#2F2E41"/>
<path d="M435.584 247.147L442.223 310.848C442.223 310.848 451.06 374.631 449.4 383.431C447.741 392.232 449.815 393.489 449.815 393.489L434.672 392.4C434.672 392.4 435.087 386.952 432.598 384.437C430.108 381.923 431.353 374.379 431.353 374.379L401.977 270.616L384.136 325.097C384.136 325.097 381.232 385.026 380.817 385.864C380.402 386.702 379.157 398.017 379.157 398.017H363.806C363.806 398.017 365.88 391.312 362.976 389.217C360.072 387.121 357.582 388.798 360.072 385.026C362.561 381.254 363.391 376.644 362.561 374.549C361.731 372.453 361.731 364.072 361.731 364.072C361.731 364.072 362.976 250.919 370.029 247.147C377.083 243.375 435.584 247.147 435.584 247.147Z" fill="#2F2E41"/>
<path d="M404.146 118.169C413.164 118.169 420.474 110.786 420.474 101.677C420.474 92.5687 413.164 85.1849 404.146 85.1849C395.128 85.1849 387.818 92.5687 387.818 101.677C387.818 110.786 395.128 118.169 404.146 118.169Z" fill="#9E616A"/>
<path d="M441.227 254.09C409.606 260.686 367.702 249.346 367.702 249.346L378.88 200.402L374.906 149.181C374.421 142.917 377.953 137.046 383.448 134.965L391.035 132.095L397.306 123.026L415.22 123.62L422.381 133.141L428.032 136.169L440.284 142.732L440.338 142.759V142.787L436.493 180.456L434.174 203.169C434.174 203.169 441.216 228.714 439.771 232.102C438.326 235.484 439.583 233.85 439.933 235.658C440.284 237.467 441.357 237.581 441.518 241.143C441.686 244.7 441.227 254.09 441.227 254.09Z" fill="#3F3D56"/>
<path d="M479.453 420H235.195C235.05 419.999 234.912 419.941 234.809 419.837C234.707 419.734 234.65 419.594 234.65 419.447C234.65 419.301 234.707 419.161 234.809 419.057C234.912 418.954 235.05 418.895 235.195 418.895H479.453C479.598 418.895 479.737 418.953 479.84 419.057C479.942 419.16 480 419.301 480 419.447C480 419.594 479.942 419.734 479.84 419.838C479.737 419.942 479.598 420 479.453 420Z" fill="#CCCCCC"/>
<path d="M403.352 117.377C406.215 117.348 409.071 117.071 411.889 116.55C414.677 115.901 420.831 111.095 422.508 108.256C423.754 106.147 424.502 102.884 424.91 100.518C425.461 97.3872 425.355 94.1744 424.598 91.0877C423.842 88.001 422.452 85.1092 420.519 82.5996C419.773 81.5482 418.761 80.7198 417.588 80.202C417.484 80.1641 417.377 80.1309 417.27 80.1029C415.569 79.6981 414.027 78.7892 412.842 77.4929C412.612 77.2305 412.363 76.9851 412.098 76.7587C410.769 75.6834 409.206 74.9412 407.538 74.5928C404.843 73.9391 400.988 74.7582 396.081 77.0295C393.615 78.1706 390.879 77.8523 388.77 77.4474C388.652 77.4275 388.53 77.4393 388.418 77.4815C388.306 77.5236 388.206 77.5948 388.129 77.6879C387.259 78.5573 386.094 79.0617 384.871 79.0995C384.122 79.1523 383.362 80.2213 382.446 81.6134C382.238 81.9294 381.996 82.2982 381.82 82.5232L381.785 82.1006L381.373 82.5838C380.725 83.3434 380.278 84.2561 380.074 85.237C379.87 86.2179 379.914 87.2351 380.204 88.1938C380.494 89.1526 381.019 90.0217 381.73 90.7203C382.442 91.4189 383.317 91.9242 384.274 92.1892C385.034 92.3722 385.809 92.4764 386.59 92.5002C387.063 92.5308 387.552 92.5624 388.022 92.6322C389.531 92.9036 390.945 93.5657 392.126 94.5538C393.306 95.542 394.213 96.8225 394.757 98.2702C394.886 98.6048 395.089 98.905 395.35 99.1478C395.612 99.3906 395.925 99.5694 396.266 99.6704C396.607 99.7715 396.966 99.792 397.316 99.7305C397.666 99.669 397.998 99.5271 398.285 99.3157C398.762 98.9196 399.328 98.6462 399.932 98.5186C400.537 98.3909 401.164 98.413 401.758 98.5828C402.275 98.8558 402.684 99.3 402.915 99.841C403.195 100.443 403.645 100.948 404.21 101.29C406.135 102.23 406.378 106.609 405.789 110.281C405.222 113.82 403.986 116.402 402.786 116.56C401.862 116.681 401.757 116.75 401.694 116.917L401.638 117.067L401.746 117.203C402.262 117.377 402.81 117.436 403.352 117.377Z" fill="#2F2E41"/>
<path d="M337.93 196.94C328.418 196.94 319.118 194.091 311.209 188.753C303.299 183.415 297.134 175.827 293.494 166.95C289.853 158.073 288.901 148.304 290.757 138.88C292.613 129.456 297.193 120.8 303.92 114.005C310.647 107.211 319.217 102.584 328.547 100.709C337.877 98.8349 347.548 99.7969 356.337 103.474C365.125 107.151 372.637 113.378 377.922 121.367C383.207 129.357 386.028 138.75 386.028 148.358C386.014 161.238 380.942 173.587 371.925 182.695C362.908 191.803 350.682 196.926 337.93 196.94ZM337.93 100.978C328.653 100.978 319.584 103.757 311.87 108.963C304.156 114.169 298.144 121.569 294.593 130.227C291.043 138.884 290.114 148.411 291.924 157.602C293.734 166.792 298.201 175.235 304.762 181.861C311.322 188.487 319.68 193 328.779 194.828C337.878 196.656 347.31 195.718 355.881 192.132C364.452 188.546 371.778 182.473 376.933 174.681C382.087 166.89 384.838 157.729 384.838 148.358C384.824 135.797 379.877 123.754 371.084 114.871C362.29 105.989 350.367 100.992 337.93 100.978Z" fill="#3F3D56"/>
<path d="M171.907 96.5635C198.142 96.5635 219.409 75.0816 219.409 48.5822C219.409 22.0829 198.142 0.600983 171.907 0.600983C145.671 0.600983 124.404 22.0829 124.404 48.5822C124.404 75.0816 145.671 96.5635 171.907 96.5635Z" fill="white"/>
<path d="M174.105 53.4766C182.66 53.4766 189.595 46.4717 189.595 37.8308C189.595 29.1898 182.66 22.1849 174.105 22.1849C165.55 22.1849 158.615 29.1898 158.615 37.8308C158.615 46.4717 165.55 53.4766 174.105 53.4766Z" fill="#FFB8B8"/>
<path d="M187.743 27.4948C187.743 27.4948 191.776 19.7073 182.904 18.9993C182.904 18.9993 175.34 12.0686 167.63 17.7323C167.63 17.7323 163.424 17.7323 161.125 22.5391C161.125 22.5391 157.817 21.2721 157.09 24.663C157.09 24.663 154.67 31.7426 157.09 38.1142C159.51 44.4858 160.314 45.1938 160.314 45.1938C160.314 45.1938 158.616 37.287 168.296 36.579C177.977 35.871 186.857 29.7457 187.664 37.5333C188.471 45.3208 189.358 41.8029 189.358 41.8029C189.358 41.8029 197.02 30.6807 187.743 27.4948Z" fill="#2F2E41"/>
<path d="M207.631 80.4868C199.401 89.9452 187.819 95.7554 175.385 96.6631C162.951 97.5708 150.662 93.5031 141.171 85.3382L145.246 73.8546C146.166 71.815 147.619 70.067 149.449 68.7981C151.278 67.5291 153.415 66.7871 155.631 66.6516L158.223 66.4908L164.403 61.1065C164.403 61.1065 181.057 60.5058 180.81 60.2182L190.898 66.347L190.889 66.3047L194.855 66.55C197.07 66.685 199.207 67.4268 201.037 68.6958C202.867 69.9648 204.319 71.7132 205.24 73.7531L207.631 80.4868Z" fill="#512DA8"/>
<path d="M171.907 97.1645C162.394 97.1645 153.095 94.3152 145.185 88.9769C137.275 83.6386 131.111 76.0511 127.47 67.1739C123.83 58.2966 122.877 48.5284 124.733 39.1043C126.589 29.6803 131.17 21.0238 137.896 14.2294C144.623 7.43507 153.193 2.80806 162.523 0.933499C171.853 -0.941059 181.524 0.0210277 190.313 3.6981C199.102 7.37518 206.614 13.6021 211.899 21.5914C217.184 29.5807 220.005 38.9736 220.005 48.5822C219.99 61.4626 214.918 73.8112 205.901 82.9189C196.884 92.0267 184.659 97.1499 171.907 97.1645ZM171.907 1.20212C162.629 1.20212 153.56 3.98091 145.846 9.18711C138.132 14.3933 132.12 21.7931 128.57 30.4507C125.019 39.1082 124.09 48.6348 125.9 57.8256C127.71 67.0165 132.178 75.4588 138.738 82.085C145.298 88.7113 153.656 93.2238 162.755 95.052C171.855 96.8802 181.286 95.9419 189.858 92.3558C198.429 88.7697 205.755 82.6969 210.909 74.9052C216.063 67.1136 218.814 57.9532 218.814 48.5822C218.8 36.0206 213.854 23.9776 205.06 15.0952C196.266 6.21277 184.343 1.21637 171.907 1.20212Z" fill="#3F3D56"/>
<path d="M61.0318 172.297C87.2669 172.297 108.535 150.815 108.535 124.316C108.535 97.8164 87.2669 76.3345 61.0318 76.3345C34.7967 76.3345 13.5289 97.8164 13.5289 124.316C13.5289 150.815 34.7967 172.297 61.0318 172.297Z" fill="white"/>
<path d="M39.0146 108.707C40.9788 102.385 45.4455 96.5853 51.6228 94.4478C57.8006 92.3103 66.8463 95.5664 71.4906 100.242C79.9858 108.793 82.059 138.172 76.2224 147.456C75.0615 147.394 71.0556 147.348 69.8806 147.303L68.2185 141.708V147.248C66.3465 147.19 64.46 147.15 62.5588 147.127C56.1844 147.047 50.0889 144.474 45.5538 139.949C41.0186 135.424 38.3971 129.299 38.2403 122.862C38.0882 116.704 38.2405 111.199 39.0146 108.707Z" fill="#2F2E41"/>
<path d="M60.3272 129.663C67.804 129.663 73.8652 123.541 73.8652 115.989C73.8652 108.437 67.804 102.315 60.3272 102.315C52.8503 102.315 46.7892 108.437 46.7892 115.989C46.7892 123.541 52.8503 129.663 60.3272 129.663Z" fill="#9E616A"/>
<path d="M48.6436 103.98L64.2312 96.0958C67.4181 97.5463 70.1627 99.8315 72.1804 102.715C74.1982 105.598 75.4155 108.973 75.7063 112.492L76.0949 117.192L69.5675 115.514L68.8524 109.503L67.7439 115.045L64.7316 114.271L64.7603 104.939L61.7461 114.264L50.9873 111.768L48.6436 103.98Z" fill="#2F2E41"/>
<path d="M96.282 156.068C88.0523 165.526 76.4702 171.336 64.0361 172.244C51.6019 173.152 39.3131 169.084 29.8224 160.919L33.8968 149.436C34.8176 147.396 36.2706 145.648 38.1001 144.379C39.9296 143.11 42.0665 142.368 44.2818 142.233L46.8738 142.072L53.0546 136.687C53.0546 136.687 69.7082 136.087 69.4612 135.799L79.5488 141.928L79.5405 141.886L83.506 142.131C85.7214 142.266 87.8586 143.008 89.6882 144.277C91.5178 145.546 92.9707 147.294 93.891 149.334L96.282 156.068Z" fill="#512DA8"/>
<path d="M61.0319 172.898C51.519 172.898 42.2198 170.049 34.3101 164.71C26.4005 159.372 20.2356 151.785 16.5952 142.907C12.9548 134.03 12.0023 124.262 13.8582 114.838C15.714 105.414 20.2949 96.7572 27.0215 89.9629C33.7481 83.1686 42.3183 78.5415 51.6484 76.667C60.9785 74.7924 70.6494 75.7545 79.4381 79.4316C88.2268 83.1087 95.7387 89.3356 101.024 97.3249C106.309 105.314 109.13 114.707 109.13 124.316C109.115 137.196 104.043 149.545 95.0262 158.652C86.0092 167.76 73.7838 172.883 61.0319 172.898ZM61.0319 76.9356C51.7544 76.9356 42.6852 79.7144 34.9713 84.9206C27.2574 90.1268 21.2451 97.5265 17.6948 106.184C14.1444 114.842 13.2155 124.368 15.0254 133.559C16.8354 142.75 21.3029 151.192 27.8631 157.819C34.4232 164.445 42.7814 168.957 51.8806 170.785C60.9798 172.614 70.4114 171.675 78.9827 168.089C87.5539 164.503 94.8799 158.43 100.034 150.639C105.188 142.847 107.94 133.687 107.94 124.316C107.925 111.754 102.979 99.7111 94.1851 90.8286C85.3912 81.9462 73.4682 76.9498 61.0319 76.9356V76.9356Z" fill="#3F3D56"/>
<path d="M381.803 173.25L374.611 160.653C365.295 161.848 347.361 173.863 347.361 173.863L312.672 183.45C311.609 183.107 310.474 183.053 309.383 183.294C308.293 183.535 307.284 184.062 306.459 184.822C305.634 185.581 305.021 186.547 304.683 187.622C304.345 188.697 304.293 189.843 304.533 190.944C304.772 192.046 305.295 193.064 306.048 193.897C306.802 194.729 307.759 195.347 308.823 195.687C309.888 196.027 311.022 196.078 312.112 195.835C313.203 195.591 314.21 195.062 315.034 194.3L359.525 188.439L381.803 173.25Z" fill="#9E616A"/>
<path d="M379.327 175.534L395.427 161.912L397.77 150.947C398.222 148.793 398.068 146.554 397.327 144.483C396.585 142.413 395.285 140.593 393.573 139.229C391.24 137.396 388.305 136.527 385.362 136.796C382.419 137.066 379.687 138.454 377.718 140.681C371.753 147.438 365.043 156.77 366.951 162.856L366.97 162.917L379.327 175.534Z" fill="#3F3D56"/>
<path d="M132.549 222.855H72.0515C70.4302 222.853 68.8758 222.202 67.7293 221.044C66.5829 219.886 65.938 218.316 65.9362 216.678V179.042C65.938 177.404 66.5829 175.834 67.7293 174.676C68.8758 173.518 70.4302 172.867 72.0515 172.865H132.549C134.17 172.867 135.725 173.518 136.871 174.676C138.018 175.834 138.663 177.404 138.664 179.042V216.678C138.663 218.316 138.018 219.886 136.871 221.044C135.725 222.202 134.17 222.853 132.549 222.855Z" fill="#E6E6E6"/>
<path d="M108.512 218.007H76.3041C74.7856 218.005 73.3298 217.395 72.256 216.311C71.1823 215.226 70.5783 213.756 70.5765 212.222V183.498C70.5783 181.964 71.1823 180.493 72.256 179.409C73.3298 178.324 74.7856 177.714 76.3041 177.713H128.297C129.815 177.714 131.271 178.324 132.344 179.409C133.418 180.493 134.022 181.964 134.024 183.498V192.239C134.016 199.071 131.326 205.621 126.543 210.451C121.76 215.282 115.276 217.999 108.512 218.007Z" fill="white"/>
<path d="M123.11 193.442H81.4905C81.1305 193.442 80.7853 193.297 80.5307 193.04C80.2762 192.783 80.1332 192.434 80.1332 192.071C80.1332 191.707 80.2762 191.358 80.5307 191.101C80.7853 190.844 81.1305 190.7 81.4905 190.7H123.11C123.47 190.7 123.815 190.844 124.07 191.101C124.324 191.358 124.467 191.707 124.467 192.071C124.467 192.434 124.324 192.783 124.07 193.04C123.815 193.297 123.47 193.442 123.11 193.442Z" fill="#512DA8"/>
<path d="M88.0009 198.859H81.4906C81.1306 198.859 80.7853 198.715 80.5308 198.458C80.2762 198.2 80.1332 197.852 80.1332 197.488C80.1332 197.124 80.2762 196.776 80.5308 196.519C80.7853 196.261 81.1306 196.117 81.4906 196.117H88.0009C88.3609 196.117 88.7062 196.261 88.9608 196.519C89.2153 196.776 89.3583 197.124 89.3583 197.488C89.3583 197.852 89.2153 198.2 88.9608 198.458C88.7062 198.715 88.3609 198.859 88.0009 198.859Z" fill="#512DA8"/>
<path d="M99.5315 204.277H81.4906C81.131 204.276 80.7865 204.131 80.5326 203.874C80.2786 203.617 80.136 203.269 80.136 202.906C80.136 202.542 80.2786 202.194 80.5326 201.937C80.7865 201.68 81.131 201.535 81.4906 201.535H99.5315C99.891 201.535 100.236 201.68 100.49 201.937C100.743 202.194 100.886 202.542 100.886 202.906C100.886 203.269 100.743 203.617 100.49 203.874C100.236 204.131 99.891 204.276 99.5315 204.277Z" fill="#512DA8"/>
<path d="M63.825 185.042C70.8929 185.042 76.6226 179.254 76.6226 172.115C76.6226 164.976 70.8929 159.189 63.825 159.189C56.757 159.189 51.0273 164.976 51.0273 172.115C51.0273 179.254 56.757 185.042 63.825 185.042Z" fill="#3F3D56"/>
<path d="M289.647 52.1539H229.149C227.528 52.152 225.973 51.5006 224.827 50.3426C223.681 49.1846 223.036 47.6146 223.034 45.9769V8.34087C223.036 6.70321 223.681 5.13316 224.827 3.97516C225.973 2.81715 227.528 2.16577 229.149 2.16391H289.647C291.268 2.16576 292.822 2.81714 293.969 3.97515C295.115 5.13315 295.76 6.7032 295.762 8.34087V45.9769C295.76 47.6146 295.115 49.1846 293.969 50.3426C292.822 51.5006 291.268 52.152 289.647 52.1539Z" fill="#E6E6E6"/>
<path d="M265.61 47.3061H233.402C231.883 47.3044 230.428 46.6944 229.354 45.6099C228.28 44.5254 227.676 43.0549 227.674 41.5212V12.7965C227.676 11.2628 228.28 9.79234 229.354 8.70783C230.428 7.62333 231.883 7.01331 233.402 7.01162H285.394C286.913 7.01332 288.369 7.62335 289.442 8.70786C290.516 9.79237 291.12 11.2628 291.122 12.7965V21.538C291.114 28.3698 288.424 34.9196 283.641 39.7503C278.858 44.5811 272.374 47.2984 265.61 47.3061Z" fill="white"/>
<path d="M280.208 22.7406H238.588C238.228 22.7406 237.883 22.5961 237.629 22.339C237.374 22.0819 237.231 21.7332 237.231 21.3696C237.231 21.0059 237.374 20.6572 237.629 20.4001C237.883 20.143 238.228 19.9986 238.588 19.9986H280.208C280.568 19.9986 280.913 20.143 281.167 20.4001C281.422 20.6572 281.565 21.0059 281.565 21.3696C281.565 21.7332 281.422 22.0819 281.167 22.339C280.913 22.5961 280.568 22.7406 280.208 22.7406Z" fill="#512DA8"/>
<path d="M245.099 28.1581H238.588C238.228 28.1581 237.883 28.0137 237.629 27.7566C237.374 27.4994 237.231 27.1507 237.231 26.7871C237.231 26.4234 237.374 26.0747 237.629 25.8176C237.883 25.5604 238.228 25.416 238.588 25.416H245.099C245.459 25.416 245.804 25.5604 246.059 25.8176C246.313 26.0747 246.456 26.4234 246.456 26.7871C246.456 27.1507 246.313 27.4994 246.059 27.7566C245.804 28.0137 245.459 28.1581 245.099 28.1581Z" fill="#512DA8"/>
<path d="M256.629 33.5757H238.588C238.229 33.5749 237.884 33.4301 237.63 33.1731C237.376 32.916 237.234 32.5677 237.234 32.2046C237.234 31.8415 237.376 31.4932 237.63 31.2361C237.884 30.9791 238.229 30.8343 238.588 30.8335H256.629C256.989 30.8335 257.335 30.978 257.589 31.2351C257.844 31.4922 257.987 31.841 257.987 32.2046C257.987 32.5682 257.844 32.917 257.589 33.1741C257.335 33.4312 256.989 33.5757 256.629 33.5757Z" fill="#512DA8"/>
<path d="M220.923 59.4203C227.991 59.4203 233.72 53.6329 233.72 46.4938C233.72 39.3547 227.991 33.5673 220.923 33.5673C213.855 33.5673 208.125 39.3547 208.125 46.4938C208.125 53.6329 213.855 59.4203 220.923 59.4203Z" fill="#3F3D56"/>
</svg>