<svg width="101" height="32" viewBox="0 0 101 32" fill="none" xmlns="http://www.w3.org/2000/svg">
<rect width="101" height="32" rx="4" fill="#A950FB"/>
<path d="M17.5 16H29.5H17.5ZM23.5 22V10V22Z" fill="#F5F5FA"/>
<path d="M17.5 16H29.5M23.5 22V10" stroke="#F5F5FA" stroke-width="2" stroke-linecap="round" stroke-linejoin="round"/>
<path d="M40.62 22V10.48H47.556V12.408H42.548V15.28H46.596V17.2H42.548V22H40.62ZM52.5766 22.24C51.7126 22.24 50.958 22.0453 50.3126 21.656C49.6673 21.2667 49.166 20.7307 48.8086 20.048C48.4566 19.36 48.2806 18.5707 48.2806 17.68C48.2806 16.7733 48.462 15.9787 48.8246 15.296C49.1873 14.6133 49.6913 14.08 50.3366 13.696C50.982 13.312 51.7286 13.12 52.5766 13.12C53.446 13.12 54.2033 13.3147 54.8486 13.704C55.494 14.0933 55.9953 14.632 56.3526 15.32C56.71 16.0027 56.8886 16.7893 56.8886 17.68C56.8886 18.576 56.7073 19.368 56.3446 20.056C55.9873 20.7387 55.486 21.2747 54.8406 21.664C54.1953 22.048 53.4406 22.24 52.5766 22.24ZM52.5766 20.432C53.3446 20.432 53.9153 20.176 54.2886 19.664C54.662 19.152 54.8486 18.4907 54.8486 17.68C54.8486 16.8427 54.6593 16.176 54.2806 15.68C53.902 15.1787 53.334 14.928 52.5766 14.928C52.0593 14.928 51.6326 15.0453 51.2966 15.28C50.966 15.5093 50.7206 15.832 50.5606 16.248C50.4006 16.6587 50.3206 17.136 50.3206 17.68C50.3206 18.5173 50.51 19.1867 50.8886 19.688C51.2726 20.184 51.8353 20.432 52.5766 20.432ZM58.8113 22V10.24H60.7393V22H58.8113ZM63.2956 22V10.24H65.2236V22H63.2956ZM71.436 22.24C70.572 22.24 69.8173 22.0453 69.172 21.656C68.5267 21.2667 68.0253 20.7307 67.668 20.048C67.316 19.36 67.14 18.5707 67.14 17.68C67.14 16.7733 67.3213 15.9787 67.684 15.296C68.0467 14.6133 68.5507 14.08 69.196 13.696C69.8413 13.312 70.588 13.12 71.436 13.12C72.3053 13.12 73.0627 13.3147 73.708 13.704C74.3533 14.0933 74.8547 14.632 75.212 15.32C75.5693 16.0027 75.748 16.7893 75.748 17.68C75.748 18.576 75.5667 19.368 75.204 20.056C74.8467 20.7387 74.3453 21.2747 73.7 21.664C73.0547 22.048 72.3 22.24 71.436 22.24ZM71.436 20.432C72.204 20.432 72.7747 20.176 73.148 19.664C73.5213 19.152 73.708 18.4907 73.708 17.68C73.708 16.8427 73.5187 16.176 73.14 15.68C72.7613 15.1787 72.1933 14.928 71.436 14.928C70.9187 14.928 70.492 15.0453 70.156 15.28C69.8253 15.5093 69.58 15.832 69.42 16.248C69.26 16.6587 69.18 17.136 69.18 17.68C69.18 18.5173 69.3693 19.1867 69.748 19.688C70.132 20.184 70.6947 20.432 71.436 20.432ZM79.0381 22L76.3981 13.344L78.2861 13.36L79.9741 18.904L81.6861 13.36H83.3101L85.0141 18.904L86.7101 13.36H88.5981L85.9581 22H84.4541L82.4941 16.056L80.5421 22H79.0381Z" fill="#F5F5FA"/>
</svg>
