<svg width="320" height="283" viewBox="0 0 320 283" fill="none" xmlns="http://www.w3.org/2000/svg">
<g clip-path="url(#clip0_1457_2279)">
<path opacity="0.1" d="M160 282.91C238.118 282.91 301.445 219.583 301.445 141.465C301.445 63.347 238.118 0.0200195 160 0.0200195C81.8822 0.0200195 18.5552 63.347 18.5552 141.465C18.5552 219.583 81.8822 282.91 160 282.91Z" fill="#A950FB"/>
<path d="M68.0741 189.507L0.430664 189.302L0.708983 97.4092L47.4829 97.5509L68.2891 118.484L68.0741 189.507Z" fill="#E6E6EB"/>
<path opacity="0.3" d="M47.4833 97.5513L47.4199 118.421L68.2895 118.484L47.4833 97.5513Z" fill="#A950FB"/>
<path d="M68.715 118.458C68.7124 118.42 68.705 118.383 68.693 118.347C68.6883 118.334 68.6848 118.32 68.6788 118.307C68.6587 118.26 68.6302 118.217 68.5948 118.18L47.7885 97.2474C47.7519 97.2113 47.7092 97.1822 47.6623 97.1612C47.6492 97.1556 47.6358 97.1507 47.6222 97.1465C47.5861 97.1339 47.5484 97.1264 47.5102 97.1241C47.5011 97.1241 47.493 97.1185 47.4839 97.1185L0.710445 96.9785C0.596181 96.9785 0.486596 97.0239 0.405799 97.1047C0.325002 97.1855 0.279611 97.2951 0.279611 97.4093L0 189.301C0 189.415 0.0453913 189.524 0.126188 189.605C0.206985 189.686 0.31657 189.731 0.430834 189.731L68.0717 189.938C68.186 189.938 68.2956 189.892 68.3764 189.812C68.4572 189.731 68.5026 189.621 68.5026 189.507L68.718 118.484C68.7201 118.476 68.7154 118.468 68.715 118.458ZM47.9087 98.5929L57.5163 108.255L67.2506 118.049L47.8518 117.99L47.9087 98.5929ZM0.861667 188.872L1.1374 97.8415L47.0492 97.9806L46.9876 118.419C46.9876 118.534 47.033 118.643 47.1138 118.724C47.1946 118.805 47.3042 118.85 47.4184 118.85L67.8572 118.912L67.6448 189.074L0.861667 188.872Z" fill="#262626"/>
<path d="M205.975 185.83L113.732 185.55L114.112 60.2397L177.895 60.4332L206.268 88.9785L205.975 185.83Z" fill="#E6E6EB"/>
<path opacity="0.3" d="M177.895 60.4331L177.809 88.8923L206.268 88.9784L177.895 60.4331Z" fill="#A950FB"/>
<path d="M206.694 88.9524C206.691 88.9149 206.684 88.8778 206.672 88.8421C206.667 88.8279 206.663 88.8146 206.657 88.799C206.637 88.7523 206.609 88.7096 206.574 88.6728L178.201 60.1275C178.164 60.0915 178.122 60.0623 178.075 60.0413C178.061 60.0353 178.048 60.0318 178.035 60.0271C177.998 60.0146 177.961 60.0069 177.923 60.0043C177.914 60.0043 177.905 59.9991 177.896 59.9991L114.113 59.8057C113.998 59.8057 113.889 59.8511 113.808 59.9319C113.727 60.0126 113.682 60.1222 113.682 60.2365L113.302 185.547C113.302 185.661 113.348 185.771 113.428 185.852C113.509 185.933 113.619 185.978 113.733 185.978L205.975 186.258C206.089 186.258 206.198 186.212 206.279 186.131C206.36 186.051 206.405 185.941 206.405 185.827L206.699 88.9753C206.699 88.9701 206.694 88.9619 206.694 88.9524ZM178.322 61.4743L205.228 88.5444L178.24 88.4626L178.322 61.4743ZM114.164 185.121L114.541 60.6716L177.463 60.8625L177.377 88.8908C177.377 89.0051 177.422 89.1147 177.503 89.1955C177.584 89.2763 177.693 89.3217 177.808 89.3217L205.836 89.4078L205.545 185.398L114.164 185.121Z" fill="#262626"/>
<path d="M319.354 189.507L251.711 189.302L251.989 97.4092L298.763 97.5509L319.569 118.484L319.354 189.507Z" fill="#E6E6EB"/>
<path opacity="0.3" d="M298.763 97.5508L298.7 118.42L319.569 118.484L298.763 97.5508Z" fill="#A950FB"/>
<path d="M319.995 118.458C319.993 118.42 319.985 118.383 319.973 118.347C319.969 118.333 319.965 118.32 319.959 118.306C319.939 118.26 319.91 118.217 319.875 118.18L299.068 97.2471C299.032 97.2111 298.989 97.1819 298.943 97.161C298.929 97.1549 298.916 97.151 298.902 97.1463C298.866 97.1337 298.829 97.1262 298.791 97.1239C298.782 97.1239 298.773 97.1183 298.764 97.1183L251.99 96.9766C251.876 96.9766 251.767 97.022 251.686 97.1028C251.605 97.1835 251.56 97.2931 251.56 97.4074L251.281 189.3C251.281 189.414 251.327 189.524 251.407 189.605C251.488 189.685 251.598 189.731 251.712 189.731L319.356 189.936C319.47 189.936 319.579 189.89 319.66 189.81C319.741 189.729 319.786 189.619 319.786 189.505L320.002 118.482C320 118.476 319.995 118.467 319.995 118.458ZM299.19 98.5926L308.795 108.255L318.531 118.049L299.132 117.99L299.19 98.5926ZM252.143 188.872L252.419 97.8412L298.331 97.9804L298.269 118.419C298.269 118.533 298.315 118.643 298.395 118.724C298.476 118.805 298.586 118.85 298.7 118.85L319.139 118.912L318.926 189.073L252.143 188.872Z" fill="#262626"/>
<path d="M136.96 133.265C140.527 133.265 143.418 130.374 143.418 126.807C143.418 123.241 140.527 120.35 136.96 120.35C133.394 120.35 130.503 123.241 130.503 126.807C130.503 130.374 133.394 133.265 136.96 133.265Z" fill="#292A2E"/>
<path d="M181.238 133.265C184.804 133.265 187.695 130.374 187.695 126.807C187.695 123.241 184.804 120.35 181.238 120.35C177.672 120.35 174.781 123.241 174.781 126.807C174.781 130.374 177.672 133.265 181.238 133.265Z" fill="#292A2E"/>
<path d="M167.756 144.665H150.442C150.328 144.665 150.218 144.62 150.137 144.539C150.057 144.458 150.011 144.349 150.011 144.235C150.011 144.12 150.057 144.011 150.137 143.93C150.218 143.849 150.328 143.804 150.442 143.804H167.756C167.871 143.804 167.98 143.849 168.061 143.93C168.142 144.011 168.187 144.12 168.187 144.235C168.187 144.349 168.142 144.458 168.061 144.539C167.98 144.62 167.871 144.665 167.756 144.665Z" fill="#262626"/>
<path d="M130.299 145.278C133.481 145.278 136.06 143.921 136.06 142.247C136.06 140.572 133.481 139.215 130.299 139.215C127.118 139.215 124.539 140.572 124.539 142.247C124.539 143.921 127.118 145.278 130.299 145.278Z" fill="#E6E6EB"/>
<path d="M187.899 145.278C191.081 145.278 193.66 143.921 193.66 142.247C193.66 140.572 191.081 139.215 187.899 139.215C184.718 139.215 182.139 140.572 182.139 142.247C182.139 143.921 184.718 145.278 187.899 145.278Z" fill="#E6E6EB"/>
<g opacity="0.4">
<path d="M130.299 145.278C133.481 145.278 136.06 143.921 136.06 142.247C136.06 140.572 133.481 139.215 130.299 139.215C127.118 139.215 124.539 140.572 124.539 142.247C124.539 143.921 127.118 145.278 130.299 145.278Z" fill="#A950FB"/>
<path d="M187.899 145.278C191.081 145.278 193.66 143.921 193.66 142.247C193.66 140.572 191.081 139.215 187.899 139.215C184.718 139.215 182.139 140.572 182.139 142.247C182.139 143.921 184.718 145.278 187.899 145.278Z" fill="#A950FB"/>
</g>
<path d="M206.407 90.005C195.412 77.3813 179.852 69.6421 163.151 68.4897C146.45 67.3373 129.976 72.8661 117.351 83.86C96.2589 102.229 89.7775 132.77 101.592 158.136C103.965 163.219 107.006 167.961 110.637 172.237L111.412 173.156L53.5978 234.511C52.5405 235.65 51.9763 237.16 52.0282 238.713C52.08 240.266 52.7438 241.735 53.8746 242.8C55.0054 243.866 56.5116 244.441 58.0647 244.4C59.6178 244.359 61.0919 243.706 62.1653 242.583L119.966 181.237L120.931 181.96C133.404 191.316 148.899 195.724 164.429 194.336C179.959 192.947 194.426 185.86 205.042 174.44C215.657 163.02 221.671 148.075 221.923 132.485C222.176 116.895 216.649 101.763 206.408 90.005H206.407ZM210.031 134.996C209.136 147.959 203.361 160.1 193.869 168.974C184.377 177.847 171.875 182.793 158.881 182.814C157.682 182.814 156.478 182.771 155.27 182.685C146.836 182.112 138.673 179.467 131.506 174.984C124.339 170.501 118.389 164.319 114.183 156.986C109.978 149.653 107.647 141.395 107.397 132.945C107.147 124.495 108.987 116.114 112.752 108.545C116.517 100.976 122.092 94.4533 128.982 89.5551C135.872 84.6569 143.864 81.5346 152.25 80.465C160.636 79.3955 169.156 80.4118 177.055 83.4239C184.954 86.4359 191.987 91.3505 197.532 97.732C201.973 102.81 205.365 108.717 207.511 115.113C209.656 121.509 210.513 128.267 210.031 134.996Z" fill="#A950FB"/>
</g>
<defs>
<clipPath id="clip0_1457_2279">
<rect width="320" height="282.929" fill="white"/>
</clipPath>
</defs>
</svg>
