<svg width="36" height="36" viewBox="0 0 36 36" fill="none" xmlns="http://www.w3.org/2000/svg">
<path d="M21.7502 28.5C21.7502 25.7775 22.0577 25.1475 22.0577 25.1475C22.3066 24.2779 22.7983 23.4974 23.4752 22.8975C23.8201 22.5765 24.141 22.2305 24.4352 21.8625C25.0124 21.1288 25.4705 20.3087 25.7927 19.4325C26.1077 18.5409 26.2724 17.6031 26.2802 16.6575V16.6125C26.2902 14.4059 25.4237 12.2855 23.8711 10.7175C22.3185 9.14941 20.2069 8.26191 18.0002 8.25C15.7956 8.26783 13.6882 9.16025 12.1412 10.7311C10.5942 12.302 9.73424 14.4228 9.75022 16.6275V16.6725C9.758 17.6181 9.92274 18.5559 10.2377 19.4475C10.5599 20.3237 11.018 21.1438 11.5952 21.8775C11.8895 22.2455 12.2103 22.5915 12.5552 22.9125C13.2321 23.5124 13.7238 24.2929 13.9727 25.1625C13.9727 25.1625 14.2502 25.7925 14.2502 28.5" fill="#D1C4E9"/>
<path d="M21.7502 28.5C21.7502 25.7775 22.0577 25.1475 22.0577 25.1475C22.3066 24.2779 22.7983 23.4974 23.4752 22.8975C23.8201 22.5765 24.141 22.2305 24.4352 21.8625C25.0124 21.1288 25.4705 20.3087 25.7927 19.4325C26.1077 18.5409 26.2724 17.6031 26.2802 16.6575V16.6125C26.2902 14.4059 25.4237 12.2855 23.8711 10.7175C22.3185 9.14941 20.2069 8.26191 18.0002 8.25C15.7956 8.26783 13.6882 9.16025 12.1412 10.7311C10.5942 12.302 9.73424 14.4228 9.75022 16.6275V16.6725C9.758 17.6181 9.92274 18.5559 10.2377 19.4475C10.5599 20.3237 11.018 21.1438 11.5952 21.8775C11.8895 22.2455 12.2103 22.5915 12.5552 22.9125C13.2321 23.5124 13.7238 24.2929 13.9727 25.1625C13.9727 25.1625 14.2502 25.7925 14.2502 28.5" stroke="#512DA8" stroke-width="2" stroke-linecap="round" stroke-linejoin="round"/>
<path d="M18 1.5V5.0775M9 4.365L10.815 6.75L9 4.365ZM27 4.365L25.185 6.75L27 4.365Z" stroke="#512DA8" stroke-width="1.91" stroke-linecap="round" stroke-linejoin="round"/>
<path d="M20.25 33H15.75C15.3521 32.9624 14.9812 32.7824 14.7055 32.4929C14.4299 32.2035 14.2681 31.8243 14.25 31.425V27.75H21.75V31.425C21.7319 31.8243 21.5701 32.2035 21.2945 32.4929C21.0188 32.7824 20.6479 32.9624 20.25 33Z" fill="#A950FB" stroke="#512DA8" stroke-width="2" stroke-linecap="round" stroke-linejoin="round"/>
</svg>
