<svg width="36" height="36" viewBox="0 0 36 36" fill="none" xmlns="http://www.w3.org/2000/svg">
<g clip-path="url(#clip0_1840_1319)">
<path d="M28.1998 21.3C28.0123 19.8975 27.8923 15.6975 27.2473 15.015C25.6798 13.3575 24.3673 12.3525 23.7073 10.0725C23.2948 8.66252 23.0023 8.16002 21.7348 8.13752C21.4805 8.16183 21.2335 8.23645 21.0083 8.35705C20.7831 8.47765 20.5841 8.64182 20.4229 8.84002C20.2617 9.03822 20.1415 9.26648 20.0693 9.51155C19.9971 9.75661 19.9743 10.0136 20.0023 10.2675C20.0222 10.9079 20.0798 11.5465 20.1748 12.18C20.5314 13.9483 21.0331 15.6842 21.6748 17.37L9.60731 8.25002C8.74481 7.60502 7.4998 7.31252 6.6598 8.43752C5.8198 9.56252 6.4948 10.5975 7.35731 11.25L13.3573 15.75L15.1498 17.1L5.5573 9.90752C4.6948 9.26252 3.4498 8.97002 2.6023 10.095C1.7548 11.22 2.4448 12.255 3.2998 12.9075L9.2998 17.4075L12.8998 20.115L5.0998 14.25C4.2373 13.605 2.9923 13.3125 2.1448 14.4375C1.2973 15.5625 1.9873 16.605 2.8498 17.25L8.8498 21.75L11.8498 24L5.8498 19.5C4.9873 18.855 3.7648 18.5325 2.9548 19.6125C2.1448 20.6925 2.7373 21.8625 3.5998 22.5L14.4973 30.51C15.2858 31.0961 16.1842 31.5177 17.1389 31.7496C18.0936 31.9815 19.0853 32.0191 20.0548 31.86" fill="#A950FB"/>
<path d="M28.1998 21.3C28.0123 19.8975 27.8923 15.6975 27.2473 15.015C25.6798 13.3575 24.3673 12.3525 23.7073 10.0725C23.2948 8.66252 23.0023 8.16002 21.7348 8.13752C21.4805 8.16183 21.2335 8.23645 21.0083 8.35705C20.7831 8.47765 20.5841 8.64182 20.4229 8.84002C20.2617 9.03822 20.1415 9.26648 20.0693 9.51155C19.9971 9.75661 19.9743 10.0136 20.0023 10.2675C20.0222 10.9079 20.0798 11.5465 20.1748 12.18C20.5314 13.9483 21.0331 15.6842 21.6748 17.37L9.60731 8.25002C8.74481 7.60502 7.4998 7.31252 6.6598 8.43752C5.8198 9.56252 6.4948 10.5975 7.3573 11.25L13.3573 15.75L15.1498 17.1L5.5573 9.90752C4.6948 9.26252 3.4498 8.97002 2.6023 10.095C1.7548 11.22 2.4448 12.255 3.2998 12.9075L9.2998 17.4075L12.8998 20.115L5.0998 14.25C4.2373 13.605 2.9923 13.3125 2.1448 14.4375C1.2973 15.5625 1.9873 16.605 2.8498 17.25L8.84981 21.75L11.8498 24L5.8498 19.5C4.9873 18.855 3.7648 18.5325 2.9548 19.6125C2.1448 20.6925 2.7373 21.8625 3.5998 22.5L14.4973 30.51C15.2858 31.0961 16.1842 31.5177 17.1389 31.7496C18.0936 31.9815 19.0853 32.0191 20.0548 31.86" stroke="#512DA8" stroke-width="2" stroke-linecap="round" stroke-linejoin="round"/>
<path d="M34.3276 23.91C33.7875 23.3373 33.3736 22.6577 33.1126 21.915C32.9776 21.3525 32.9401 20.7675 32.8351 20.1975C32.6701 19.32 32.5276 18 31.8826 17.3175C30.3376 15.4763 29.2344 13.3058 28.6576 10.9725C28.2451 9.56247 27.9526 9.05997 26.6851 9.03747C26.4311 9.06084 26.1844 9.13459 25.9592 9.2544C25.734 9.37422 25.535 9.5377 25.3737 9.7353C25.2124 9.9329 25.0921 10.1607 25.0198 10.4053C24.9475 10.6499 24.9247 10.9064 24.9526 11.16C24.9726 11.8003 25.0302 12.4389 25.1251 13.0725C25.5976 15.5475 26.1076 17.5725 26.1676 17.6925L14.7376 9.14247C13.8751 8.48997 12.6301 8.19747 11.7826 9.32247C10.9351 10.4475 11.6176 11.49 12.4801 12.135L18.4801 16.635L20.2501 18L10.6801 10.785C9.81764 10.14 8.57264 9.84747 7.73264 10.9725C6.89264 12.0975 7.56764 13.1325 8.43014 13.785L14.4301 18.285L18.0001 21L10.2301 15.135C9.36764 14.4825 8.11514 14.1975 7.27514 15.315C6.43514 16.4325 7.11014 17.4825 7.97264 18.135L13.9726 22.635L16.9726 24.885L10.9726 20.385C10.1101 19.74 8.88014 19.4175 8.07014 20.4975C7.26014 21.5775 7.85264 22.7475 8.71514 23.385L19.4476 31.41C20.3342 32.0709 21.3605 32.5199 22.4476 32.7225C22.9276 32.8125 23.4376 32.8575 24.0001 32.9625C24.806 33.0844 25.5864 33.3378 26.3101 33.7125C26.8133 33.9534 27.3879 33.9988 27.9226 33.84C29.7966 33.1877 31.4321 31.9886 32.6176 30.3975C33.7449 28.8708 34.3923 27.0433 34.4776 25.1475C34.5486 24.7291 34.4965 24.2992 34.3276 23.91Z" fill="#A950FB" stroke="#512DA8" stroke-width="2" stroke-linecap="round" stroke-linejoin="round"/>
<path d="M9 1.2375L9.5925 3.8775M17.4 4.5L15.195 6M14.01 0.75L12.3975 4.95" stroke="#512DA8" stroke-width="2" stroke-linecap="round" stroke-linejoin="round"/>
</g>
<defs>
<clipPath id="clip0_1840_1319">
<rect width="36" height="36" fill="white"/>
</clipPath>
</defs>
</svg>
