<svg width="36" height="36" viewBox="0 0 36 36" fill="none" xmlns="http://www.w3.org/2000/svg">
<path d="M4.10265 22.6275C3.40515 21.1275 4.26765 20.25 5.28765 20.25C6.30765 20.25 7.08765 21.36 8.56515 22.3725C10.2353 23.4304 11.9602 24.3992 13.7327 25.275" fill="#B39DDB"/>
<path d="M4.10265 22.6275C3.40515 21.1275 4.26765 20.25 5.28765 20.25C6.30765 20.25 7.08765 21.36 8.56515 22.3725C10.2353 23.4304 11.9602 24.3992 13.7327 25.275" stroke="#512DA8" stroke-width="2"/>
<path d="M32.7373 25.74C33.5669 26.8053 33.9633 28.1447 33.8473 29.49C33.6507 30.9439 33.0593 32.3162 32.1373 33.4575C31.8298 33.7575 20.7448 32.3475 18.1498 31.8375C15.5548 31.3275 3.03734 25.8225 2.55734 25.5C2.07734 25.1775 2.03234 23.16 3.40484 22.7325C4.77734 22.305 7.79984 24.345 10.5523 24.795C13.7052 25.2216 16.881 25.4571 20.0623 25.5C21.9223 25.5 18.0523 23.88 17.1373 23.52C16.2223 23.16 14.7373 22.8675 14.4298 21.9C14.1223 20.9325 15.1198 20.22 15.9298 20.22C17.4357 20.4416 18.9156 20.8135 20.3473 21.33C22.3656 21.2684 24.3748 21.6233 26.2498 22.3725C27.7886 23.0309 29.034 24.2283 29.7523 25.74C29.9998 26.25 32.4673 25.5 32.7373 25.74Z" fill="#B39DDB" stroke="#512DA8" stroke-width="2"/>
<path d="M10.7699 7.97249C9.99352 7.20992 8.94636 6.78642 7.85813 6.79485C6.76989 6.80329 5.72943 7.24298 4.96493 8.01749C4.19481 8.79719 3.758 9.84575 3.7468 10.9416C3.73561 12.0374 4.1509 13.0947 4.90493 13.89L11.2499 20.25L17.5724 13.8825C18.036 13.4076 18.3808 12.8299 18.5789 12.1965C18.777 11.5631 18.8228 10.8919 18.7124 10.2375C18.6076 9.58531 18.3488 8.96752 17.9575 8.43535C17.5662 7.90318 17.0537 7.47197 16.4624 7.17749C15.8917 6.88614 15.2581 6.73935 14.6174 6.74999C14.0747 6.7539 13.5381 6.86528 13.0387 7.07768C12.5392 7.29007 12.0867 7.5993 11.7074 7.98749L11.2274 8.44499L10.7699 7.97249Z" fill="#DF704D" stroke="#77280C" stroke-width="2" stroke-linecap="round" stroke-linejoin="round"/>
</svg>
