<svg width="109" height="44" viewBox="0 0 109 44" fill="none" xmlns="http://www.w3.org/2000/svg">
<path d="M17 32H23C28 32 30 30 30 25V19C30 14 28 12 23 12H17C12 12 10 14 10 19V25C10 30 12 32 17 32Z" stroke="#F5F5FA" stroke-width="1.5" stroke-linecap="round" stroke-linejoin="round"/>
<path d="M17.1001 22V20.52C17.1001 18.61 18.4501 17.84 20.1001 18.79L21.3801 19.53L22.6601 20.27C24.3101 21.22 24.3101 22.78 22.6601 23.73L21.3801 24.47L20.1001 25.21C18.4501 26.16 17.1001 25.38 17.1001 23.48V22Z" stroke="#F5F5FA" stroke-width="1.5" stroke-miterlimit="10" stroke-linecap="round" stroke-linejoin="round"/>
<path d="M43.4 29V14.6H49.35C49.49 14.6 49.67 14.6067 49.89 14.62C50.11 14.6267 50.3133 14.6467 50.5 14.68C51.3333 14.8067 52.02 15.0833 52.56 15.51C53.1067 15.9367 53.51 16.4767 53.77 17.13C54.0367 17.7767 54.17 18.4967 54.17 19.29C54.17 20.0767 54.0367 20.7967 53.77 21.45C53.5033 22.0967 53.0967 22.6333 52.55 23.06C52.01 23.4867 51.3267 23.7633 50.5 23.89C50.3133 23.9167 50.1067 23.9367 49.88 23.95C49.66 23.9633 49.4833 23.97 49.35 23.97H45.81V29H43.4ZM45.81 21.72H49.25C49.3833 21.72 49.5333 21.7133 49.7 21.7C49.8667 21.6867 50.02 21.66 50.16 21.62C50.56 21.52 50.8733 21.3433 51.1 21.09C51.3333 20.8367 51.4967 20.55 51.59 20.23C51.69 19.91 51.74 19.5967 51.74 19.29C51.74 18.9833 51.69 18.67 51.59 18.35C51.4967 18.0233 51.3333 17.7333 51.1 17.48C50.8733 17.2267 50.56 17.05 50.16 16.95C50.02 16.91 49.8667 16.8867 49.7 16.88C49.5333 16.8667 49.3833 16.86 49.25 16.86H45.81V21.72ZM63.6434 29V23.8C63.6434 23.46 63.6201 23.0833 63.5734 22.67C63.5268 22.2567 63.4168 21.86 63.2434 21.48C63.0768 21.0933 62.8234 20.7767 62.4834 20.53C62.1501 20.2833 61.6968 20.16 61.1234 20.16C60.8168 20.16 60.5134 20.21 60.2134 20.31C59.9134 20.41 59.6401 20.5833 59.3934 20.83C59.1534 21.07 58.9601 21.4033 58.8134 21.83C58.6668 22.25 58.5934 22.79 58.5934 23.45L57.1634 22.84C57.1634 21.92 57.3401 21.0867 57.6934 20.34C58.0534 19.5933 58.5801 19 59.2734 18.56C59.9668 18.1133 60.8201 17.89 61.8334 17.89C62.6334 17.89 63.2934 18.0233 63.8134 18.29C64.3334 18.5567 64.7468 18.8967 65.0534 19.31C65.3601 19.7233 65.5868 20.1633 65.7334 20.63C65.8801 21.0967 65.9734 21.54 66.0134 21.96C66.0601 22.3733 66.0834 22.71 66.0834 22.97V29H63.6434ZM56.1534 29V14.6H58.3034V22.18H58.5934V29H56.1534ZM73.463 29.3C72.383 29.3 71.4396 29.0567 70.633 28.57C69.8263 28.0833 69.1996 27.4133 68.753 26.56C68.313 25.7 68.093 24.7133 68.093 23.6C68.093 22.4667 68.3196 21.4733 68.773 20.62C69.2263 19.7667 69.8563 19.1 70.663 18.62C71.4696 18.14 72.403 17.9 73.463 17.9C74.5496 17.9 75.4963 18.1433 76.303 18.63C77.1096 19.1167 77.7363 19.79 78.183 20.65C78.6296 21.5033 78.853 22.4867 78.853 23.6C78.853 24.72 78.6263 25.71 78.173 26.57C77.7263 27.4233 77.0996 28.0933 76.293 28.58C75.4863 29.06 74.543 29.3 73.463 29.3ZM73.463 27.04C74.423 27.04 75.1363 26.72 75.603 26.08C76.0696 25.44 76.303 24.6133 76.303 23.6C76.303 22.5533 76.0663 21.72 75.593 21.1C75.1196 20.4733 74.4096 20.16 73.463 20.16C72.8163 20.16 72.283 20.3067 71.863 20.6C71.4496 20.8867 71.143 21.29 70.943 21.81C70.743 22.3233 70.643 22.92 70.643 23.6C70.643 24.6467 70.8796 25.4833 71.353 26.11C71.833 26.73 72.5363 27.04 73.463 27.04ZM87.3863 29C86.6729 29.1333 85.9729 29.19 85.2863 29.17C84.6063 29.1567 83.9963 29.0333 83.4563 28.8C82.9163 28.56 82.5063 28.1833 82.2262 27.67C81.9796 27.2033 81.8496 26.7267 81.8363 26.24C81.8229 25.7533 81.8163 25.2033 81.8163 24.59V15.2H84.2163V24.45C84.2163 24.8833 84.2196 25.2633 84.2263 25.59C84.2396 25.9167 84.3096 26.1833 84.4363 26.39C84.6763 26.79 85.0596 27.0133 85.5863 27.06C86.1129 27.1067 86.7129 27.08 87.3863 26.98V29ZM79.8563 20.09V18.2H87.3863V20.09H79.8563ZM93.9317 29.3C92.8517 29.3 91.9084 29.0567 91.1017 28.57C90.2951 28.0833 89.6684 27.4133 89.2217 26.56C88.7817 25.7 88.5617 24.7133 88.5617 23.6C88.5617 22.4667 88.7884 21.4733 89.2417 20.62C89.6951 19.7667 90.3251 19.1 91.1317 18.62C91.9384 18.14 92.8717 17.9 93.9317 17.9C95.0184 17.9 95.9651 18.1433 96.7717 18.63C97.5784 19.1167 98.2051 19.79 98.6517 20.65C99.0984 21.5033 99.3217 22.4867 99.3217 23.6C99.3217 24.72 99.0951 25.71 98.6417 26.57C98.1951 27.4233 97.5684 28.0933 96.7617 28.58C95.9551 29.06 95.0117 29.3 93.9317 29.3ZM93.9317 27.04C94.8917 27.04 95.6051 26.72 96.0717 26.08C96.5384 25.44 96.7717 24.6133 96.7717 23.6C96.7717 22.5533 96.5351 21.72 96.0617 21.1C95.5884 20.4733 94.8784 20.16 93.9317 20.16C93.2851 20.16 92.7517 20.3067 92.3317 20.6C91.9184 20.8867 91.6117 21.29 91.4117 21.81C91.2117 22.3233 91.1117 22.92 91.1117 23.6C91.1117 24.6467 91.3484 25.4833 91.8217 26.11C92.3017 26.73 93.0051 27.04 93.9317 27.04Z" fill="white"/>
</svg>
