<svg width="24" height="25" viewBox="0 0 24 25" fill="none" xmlns="http://www.w3.org/2000/svg">
<path d="M9 22.5H15C20 22.5 22 20.5 22 15.5V9.5C22 4.5 20 2.5 15 2.5H9C4 2.5 2 4.5 2 9.5V15.5C2 20.5 4 22.5 9 22.5Z" stroke="#F5F5FA" stroke-width="1.5" stroke-linecap="round" stroke-linejoin="round"/>
<path d="M9.1001 12.5V11.02C9.1001 9.11001 10.4501 8.34001 12.1001 9.29001L13.3801 10.03L14.6601 10.77C16.3101 11.72 16.3101 13.28 14.6601 14.23L13.3801 14.97L12.1001 15.71C10.4501 16.66 9.1001 15.88 9.1001 13.98V12.5Z" stroke="#F5F5FA" stroke-width="1.5" stroke-miterlimit="10" stroke-linecap="round" stroke-linejoin="round"/>
</svg>
