<svg width="25" height="24" viewBox="0 0 25 24" fill="none" xmlns="http://www.w3.org/2000/svg">
<g clip-path="url(#clip0_1840_1500)">
<path d="M18.3335 16.08C17.5735 16.08 16.8935 16.38 16.3735 16.85L9.2435 12.7C9.2935 12.47 9.3335 12.24 9.3335 12C9.3335 11.76 9.2935 11.53 9.2435 11.3L16.2935 7.19C16.8335 7.69 17.5435 8 18.3335 8C19.9935 8 21.3335 6.66 21.3335 5C21.3335 3.34 19.9935 2 18.3335 2C16.6735 2 15.3335 3.34 15.3335 5C15.3335 5.24 15.3735 5.47 15.4235 5.7L8.3735 9.81C7.8335 9.31 7.1235 9 6.3335 9C4.6735 9 3.3335 10.34 3.3335 12C3.3335 13.66 4.6735 15 6.3335 15C7.1235 15 7.8335 14.69 8.3735 14.19L15.4935 18.35C15.4435 18.56 15.4135 18.78 15.4135 19C15.4135 20.61 16.7235 21.92 18.3335 21.92C19.9435 21.92 21.2535 20.61 21.2535 19C21.2535 17.39 19.9435 16.08 18.3335 16.08ZM18.3335 4C18.8835 4 19.3335 4.45 19.3335 5C19.3335 5.55 18.8835 6 18.3335 6C17.7835 6 17.3335 5.55 17.3335 5C17.3335 4.45 17.7835 4 18.3335 4ZM6.3335 13C5.7835 13 5.3335 12.55 5.3335 12C5.3335 11.45 5.7835 11 6.3335 11C6.8835 11 7.3335 11.45 7.3335 12C7.3335 12.55 6.8835 13 6.3335 13ZM18.3335 20.02C17.7835 20.02 17.3335 19.57 17.3335 19.02C17.3335 18.47 17.7835 18.02 18.3335 18.02C18.8835 18.02 19.3335 18.47 19.3335 19.02C19.3335 19.57 18.8835 20.02 18.3335 20.02Z" fill="#F5F5FA"/>
</g>
<defs>
<clipPath id="clip0_1840_1500">
<rect width="24" height="24" fill="white" transform="translate(0.333496)"/>
</clipPath>
</defs>
</svg>
