<svg width="36" height="36" viewBox="0 0 36 36" fill="none" xmlns="http://www.w3.org/2000/svg">
<path d="M18.375 30.75C25.2095 30.75 30.75 25.2095 30.75 18.375C30.75 11.5405 25.2095 6 18.375 6C11.5405 6 6 11.5405 6 18.375C6 25.2095 11.5405 30.75 18.375 30.75Z" fill="#D1C4E9" stroke="#512DA8" stroke-width="2" stroke-miterlimit="10"/>
<path d="M19.8602 23.805C20.0465 23.7729 20.2373 23.7782 20.4216 23.8205C20.6059 23.8629 20.7798 23.9416 20.9334 24.0518C21.087 24.1621 21.2171 24.3019 21.3161 24.4629C21.4151 24.624 21.4811 24.8032 21.5102 24.99C21.5522 25.359 21.4558 25.7305 21.2396 26.0325C21.0235 26.3345 20.703 26.5456 20.3402 26.625L16.7327 27.2325C16.886 27.2074 17.0429 27.2138 17.1938 27.2512C17.3446 27.2886 17.4863 27.3562 17.6102 27.45C17.8577 27.6291 18.0248 27.8986 18.0752 28.2C18.1236 28.5028 18.0564 28.8128 17.8869 29.0685C17.7174 29.3241 17.458 29.5067 17.1602 29.58C17.3263 29.6651 17.4699 29.7883 17.5794 29.9395C17.6889 30.0907 17.7611 30.2656 17.7902 30.45C17.8362 30.7286 17.7873 31.0147 17.6513 31.2622C17.5153 31.5098 17.3001 31.7044 17.0402 31.815C17.222 32.066 17.2974 32.3786 17.2502 32.685C17.2191 32.9757 17.0914 33.2476 16.8874 33.457C16.6834 33.6664 16.415 33.8013 16.1252 33.84L15.7052 33.93C14.6152 34.16 13.5202 34.34 12.4202 34.47C11.1639 34.4854 9.90885 34.3875 8.67018 34.1775C8.25353 34.0877 7.867 33.8923 7.5478 33.6098C7.2286 33.3274 6.98749 32.9676 6.84768 32.565C6.03018 30.8625 5.58018 27.645 6.58518 26.715C7.22214 26.2894 7.68728 25.6515 7.89768 24.915C8.37768 23.8125 8.88018 22.545 9.26268 21.465C9.64518 20.385 9.79518 19.8975 10.5077 19.635C10.8514 19.5332 11.2206 19.5618 11.5444 19.7155C11.8683 19.8691 12.1241 20.1369 12.2627 20.4675C12.37 21.2174 12.3344 21.9808 12.1577 22.7175C11.9777 24.2175 11.9702 24.5625 12.1577 25.0725L19.8602 23.805ZM16.5002 20.25H18.7502H16.5002Z" fill="#D1C4E9"/>
<path d="M16.5002 20.25H18.7502M19.8602 23.805C20.0465 23.7729 20.2373 23.7782 20.4216 23.8205C20.6059 23.8629 20.7798 23.9416 20.9334 24.0518C21.087 24.1621 21.2171 24.3019 21.3161 24.4629C21.4151 24.624 21.4811 24.8032 21.5102 24.99C21.5522 25.359 21.4558 25.7305 21.2396 26.0325C21.0235 26.3345 20.703 26.5456 20.3402 26.625L16.7327 27.2325C16.886 27.2074 17.0429 27.2138 17.1938 27.2512C17.3446 27.2886 17.4863 27.3562 17.6102 27.45C17.8577 27.6291 18.0248 27.8986 18.0752 28.2C18.1236 28.5028 18.0564 28.8128 17.8869 29.0685C17.7174 29.3241 17.458 29.5067 17.1602 29.58C17.3263 29.6651 17.4699 29.7883 17.5794 29.9395C17.6889 30.0907 17.7611 30.2656 17.7902 30.45C17.8362 30.7286 17.7873 31.0147 17.6513 31.2622C17.5153 31.5098 17.3001 31.7044 17.0402 31.815C17.222 32.066 17.2974 32.3786 17.2502 32.685C17.2191 32.9757 17.0914 33.2476 16.8874 33.457C16.6834 33.6664 16.415 33.8013 16.1252 33.84L15.7052 33.93C14.6152 34.16 13.5202 34.34 12.4202 34.47C11.1639 34.4854 9.90885 34.3875 8.67018 34.1775C8.25353 34.0877 7.867 33.8923 7.5478 33.6098C7.2286 33.3274 6.98749 32.9676 6.84768 32.565C6.03018 30.8625 5.58018 27.645 6.58518 26.715C7.22214 26.2894 7.68728 25.6515 7.89768 24.915C8.37768 23.8125 8.88018 22.545 9.26268 21.465C9.64518 20.385 9.79518 19.8975 10.5077 19.635C10.8514 19.5332 11.2206 19.5618 11.5444 19.7155C11.8683 19.8691 12.1241 20.1369 12.2627 20.4675C12.37 21.2174 12.3344 21.9808 12.1577 22.7175C11.9777 24.2175 11.9702 24.5625 12.1577 25.0725L19.8602 23.805Z" stroke="#512DA8" stroke-width="2" stroke-linecap="round" stroke-linejoin="round"/>
<path d="M12 10.5C12.5494 9.94744 13.2844 9.61867 14.0625 9.5775C14.8344 9.46482 15.6206 9.64399 16.2675 10.08" stroke="#512DA8" stroke-width="2" stroke-linecap="round" stroke-linejoin="round"/>
<path d="M13.875 16.5C14.7034 16.5 15.375 15.8284 15.375 15C15.375 14.1716 14.7034 13.5 13.875 13.5C13.0466 13.5 12.375 14.1716 12.375 15C12.375 15.8284 13.0466 16.5 13.875 16.5Z" fill="#512DA8"/>
<path d="M22.5 18C23.3284 18 24 17.3284 24 16.5C24 15.6716 23.3284 15 22.5 15C21.6716 15 21 15.6716 21 16.5C21 17.3284 21.6716 18 22.5 18Z" fill="#512DA8"/>
<path d="M21.75 12.51C22.4743 12.2323 23.2757 12.2323 24 12.51C24.749 12.6978 25.4029 13.1542 25.8375 13.7925" stroke="#512DA8" stroke-width="2" stroke-linecap="round" stroke-linejoin="round"/>
</svg>
