<svg width="103" height="43" viewBox="0 0 103 43" fill="none" xmlns="http://www.w3.org/2000/svg">
<path d="M20.53 28.4201H14.21C11.05 28.4201 10 26.3201 10 24.2101V15.7901C10 12.6301 11.05 11.5801 14.21 11.5801H20.53C23.69 11.5801 24.74 12.6301 24.74 15.7901V24.2101C24.74 27.3701 23.68 28.4201 20.53 28.4201V28.4201Z" stroke="#F5F5FA" stroke-width="1.5" stroke-linecap="round" stroke-linejoin="round"/>
<path d="M27.52 25.1001L24.74 23.1501V16.8401L27.52 14.8901C28.88 13.9401 30 14.5201 30 16.1901V23.8101C30 25.4801 28.88 26.0601 27.52 25.1001V25.1001ZM19.5 19.0001C19.8978 19.0001 20.2794 18.8421 20.5607 18.5608C20.842 18.2795 21 17.898 21 17.5001C21 17.1023 20.842 16.7208 20.5607 16.4395C20.2794 16.1582 19.8978 16.0001 19.5 16.0001C19.1022 16.0001 18.7206 16.1582 18.4393 16.4395C18.158 16.7208 18 17.1023 18 17.5001C18 17.898 18.158 18.2795 18.4393 18.5608C18.7206 18.8421 19.1022 19.0001 19.5 19.0001Z" stroke="#F5F5FA" stroke-width="1.5" stroke-linecap="round" stroke-linejoin="round"/>
<path d="M44.64 29L40.1 14.6H42.58L46.38 26.66L50.23 14.6H52.71L48.17 29H44.64ZM54.0219 16.56V14.35H56.4319V16.56H54.0219ZM54.0219 29V18.2H56.4319V29H54.0219ZM63.7573 29.3C62.764 29.3 61.8973 29.05 61.1573 28.55C60.4173 28.05 59.844 27.37 59.4373 26.51C59.0307 25.65 58.8273 24.68 58.8273 23.6C58.8273 22.5067 59.0307 21.5333 59.4373 20.68C59.8507 19.82 60.434 19.1433 61.1873 18.65C61.9407 18.15 62.8273 17.9 63.8473 17.9C64.874 17.9 65.734 18.15 66.4273 18.65C67.1273 19.1433 67.6573 19.82 68.0173 20.68C68.3773 21.54 68.5573 22.5133 68.5573 23.6C68.5573 24.6733 68.3773 25.6433 68.0173 26.51C67.6573 27.37 67.1207 28.05 66.4073 28.55C65.694 29.05 64.8107 29.3 63.7573 29.3ZM64.1273 27.14C64.774 27.14 65.294 26.9933 65.6873 26.7C66.0873 26.4 66.3773 25.9833 66.5573 25.45C66.744 24.9167 66.8373 24.3 66.8373 23.6C66.8373 22.8933 66.744 22.2767 66.5573 21.75C66.3773 21.2167 66.094 20.8033 65.7073 20.51C65.3207 20.21 64.8207 20.06 64.2073 20.06C63.5607 20.06 63.0273 20.22 62.6073 20.54C62.1873 20.8533 61.8773 21.28 61.6773 21.82C61.4773 22.3533 61.3773 22.9467 61.3773 23.6C61.3773 24.26 61.474 24.86 61.6673 25.4C61.8673 25.9333 62.1707 26.3567 62.5773 26.67C62.984 26.9833 63.5007 27.14 64.1273 27.14ZM66.8373 29V21.42H66.5373V14.6H68.9673V29H66.8373ZM76.6811 29.3C75.5878 29.3 74.6278 29.0633 73.8011 28.59C72.9744 28.1167 72.3278 27.46 71.8611 26.62C71.4011 25.78 71.1711 24.8133 71.1711 23.72C71.1711 22.54 71.3978 21.5167 71.8511 20.65C72.3044 19.7767 72.9344 19.1 73.7411 18.62C74.5478 18.14 75.4811 17.9 76.5411 17.9C77.6611 17.9 78.6111 18.1633 79.3911 18.69C80.1778 19.21 80.7611 19.9467 81.1411 20.9C81.5211 21.8533 81.6644 22.9767 81.5711 24.27H79.1811V23.39C79.1744 22.2167 78.9678 21.36 78.5611 20.82C78.1544 20.28 77.5144 20.01 76.6411 20.01C75.6544 20.01 74.9211 20.3167 74.4411 20.93C73.9611 21.5367 73.7211 22.4267 73.7211 23.6C73.7211 24.6933 73.9611 25.54 74.4411 26.14C74.9211 26.74 75.6211 27.04 76.5411 27.04C77.1344 27.04 77.6444 26.91 78.0711 26.65C78.5044 26.3833 78.8378 26 79.0711 25.5L81.4511 26.22C81.0378 27.1933 80.3978 27.95 79.5311 28.49C78.6711 29.03 77.7211 29.3 76.6811 29.3ZM72.9611 24.27V22.45H80.3911V24.27H72.9611ZM88.5723 29.3C87.4923 29.3 86.549 29.0567 85.7423 28.57C84.9357 28.0833 84.309 27.4133 83.8623 26.56C83.4223 25.7 83.2023 24.7133 83.2023 23.6C83.2023 22.4667 83.429 21.4733 83.8823 20.62C84.3357 19.7667 84.9657 19.1 85.7723 18.62C86.579 18.14 87.5123 17.9 88.5723 17.9C89.659 17.9 90.6057 18.1433 91.4123 18.63C92.219 19.1167 92.8457 19.79 93.2923 20.65C93.739 21.5033 93.9623 22.4867 93.9623 23.6C93.9623 24.72 93.7357 25.71 93.2823 26.57C92.8357 27.4233 92.209 28.0933 91.4023 28.58C90.5957 29.06 89.6523 29.3 88.5723 29.3ZM88.5723 27.04C89.5323 27.04 90.2457 26.72 90.7123 26.08C91.179 25.44 91.4123 24.6133 91.4123 23.6C91.4123 22.5533 91.1757 21.72 90.7023 21.1C90.229 20.4733 89.519 20.16 88.5723 20.16C87.9257 20.16 87.3923 20.3067 86.9723 20.6C86.559 20.8867 86.2523 21.29 86.0523 21.81C85.8523 22.3233 85.7523 22.92 85.7523 23.6C85.7523 24.6467 85.989 25.4833 86.4623 26.11C86.9423 26.73 87.6457 27.04 88.5723 27.04Z" fill="white"/>
</svg>
