<svg width="24" height="24" viewBox="0 0 24 24" fill="none" xmlns="http://www.w3.org/2000/svg">
<path d="M9.31006 14.7L10.8101 16.2L14.8101 12.2" stroke="#EFF5F7" stroke-width="2" stroke-linecap="round" stroke-linejoin="round"/>
<path d="M10 6H14C16 6 16 5 16 4C16 2 15 2 14 2H10C9 2 8 2 8 4C8 6 9 6 10 6Z" stroke="#EFF5F7" stroke-width="2" stroke-miterlimit="10" stroke-linecap="round" stroke-linejoin="round"/>
<path d="M16 4.02C19.33 4.2 21 5.43 21 10V16C21 20 20 22 15 22H9C4 22 3 20 3 16V10C3 5.44 4.67 4.2 8 4.02" stroke="#EFF5F7" stroke-width="2" stroke-miterlimit="10" stroke-linecap="round" stroke-linejoin="round"/>
</svg>
