<svg width="28" height="28" viewBox="0 0 28 28" fill="none" xmlns="http://www.w3.org/2000/svg">
<path d="M25.6668 7.29167V13.2417C25.6668 14.7233 25.1768 15.9717 24.3018 16.835C23.4385 17.71 22.1902 18.2 20.7085 18.2V20.3117C20.7085 21.105 19.8218 21.5833 19.1685 21.14L18.0368 20.3933C18.1418 20.0317 18.1885 19.635 18.1885 19.215V14.4667C18.1885 12.0867 16.6018 10.5 14.2218 10.5H6.30016C6.13683 10.5 5.98516 10.5117 5.8335 10.5233V7.29167C5.8335 4.31667 7.81683 2.33333 10.7918 2.33333H20.7085C23.6835 2.33333 25.6668 4.31667 25.6668 7.29167Z" stroke="#EFF5F7" stroke-width="1.5" stroke-miterlimit="10" stroke-linecap="round" stroke-linejoin="round"/>
<path d="M18.1885 14.4667V19.215C18.1885 19.635 18.1418 20.0317 18.0368 20.3933C17.6052 22.1083 16.1818 23.1817 14.2218 23.1817H11.0485L7.52516 25.5267C7.40705 25.6075 7.26904 25.6544 7.12612 25.6623C6.98321 25.6702 6.84086 25.6388 6.71457 25.5714C6.58828 25.5041 6.48287 25.4034 6.4098 25.2803C6.33674 25.1572 6.29882 25.0165 6.30016 24.8733V23.1817C5.11016 23.1817 4.1185 22.785 3.43016 22.0967C2.73016 21.3967 2.3335 20.405 2.3335 19.215V14.4667C2.3335 12.25 3.71016 10.7217 5.8335 10.5233C5.98516 10.5117 6.13683 10.5 6.30016 10.5H14.2218C16.6018 10.5 18.1885 12.0867 18.1885 14.4667V14.4667Z" stroke="#EFF5F7" stroke-width="1.5" stroke-miterlimit="10" stroke-linecap="round" stroke-linejoin="round"/>
</svg>
