<svg width="26" height="26" viewBox="0 0 26 26" fill="none" xmlns="http://www.w3.org/2000/svg">
<path d="M18.9925 15.9261C20.6394 16.2021 22.4545 15.9141 23.7288 15.0622C25.4237 13.9344 25.4237 12.0866 23.7288 10.9588C22.4425 10.1069 20.6033 9.8189 18.9564 10.1069M7.00751 15.9261C5.36063 16.2021 3.54545 15.9141 2.27122 15.0622C0.576259 13.9344 0.576259 12.0866 2.27122 10.9588C3.55748 10.1069 5.39669 9.8189 7.04358 10.1069M20.2307 7.19123C20.155 7.17922 20.0779 7.17922 20.0023 7.19123C19.2 7.16227 18.4405 6.82312 17.8842 6.24546C17.3278 5.6678 17.0183 4.89687 17.021 4.09561C17.021 2.37983 18.4035 1 20.1225 1C20.945 1 21.7339 1.32614 22.3155 1.90668C22.8971 2.48722 23.2239 3.27461 23.2239 4.09561C23.2217 4.89744 22.9089 5.66736 22.3511 6.24432C21.7932 6.82127 21.0334 7.16057 20.2307 7.19123ZM5.76935 7.19123C5.84147 7.17923 5.92562 7.17923 5.99775 7.19123C6.79999 7.16227 7.55953 6.82312 8.11585 6.24546C8.67216 5.6678 8.98167 4.89687 8.97896 4.09561C8.97896 2.37983 7.59654 1 5.87754 1C5.05499 1 4.26613 1.32614 3.68449 1.90668C3.10286 2.48722 2.77611 3.27461 2.77611 4.09561C2.78813 5.7754 4.11044 7.13123 5.76935 7.19123ZM13.018 16.1541C12.9424 16.1421 12.8653 16.1421 12.7896 16.1541C11.9874 16.1251 11.2278 15.786 10.6715 15.2083C10.1152 14.6307 9.80571 13.8598 9.80841 13.0585C9.80841 11.3427 11.1908 9.96288 12.9098 9.96288C13.7324 9.96288 14.5213 10.289 15.1029 10.8696C15.6845 11.4501 16.0113 12.2375 16.0113 13.0585C15.9992 14.7383 14.6769 16.1061 13.018 16.1541ZM9.51991 19.9336C7.82494 21.0615 7.82494 22.9093 9.51991 24.0371C11.4433 25.321 14.5928 25.321 16.5162 24.0371C18.2111 22.9093 18.2111 21.0615 16.5162 19.9336C14.6048 18.6618 11.4433 18.6618 9.51991 19.9336Z" stroke="#EFF5F7" stroke-width="2" stroke-linecap="round" stroke-linejoin="round"/>
</svg>
