<svg width="24" height="24" viewBox="0 0 24 24" fill="none" xmlns="http://www.w3.org/2000/svg">
<path d="M11.9999 6.44V9.77M12.0199 2C8.3399 2 5.3599 4.98 5.3599 8.66V10.76C5.3599 11.44 5.0799 12.46 4.7299 13.04L3.4599 15.16C2.6799 16.47 3.2199 17.93 4.6599 18.41C9.44118 20 14.6086 20 19.3899 18.41C19.7054 18.3048 19.9932 18.13 20.2321 17.8986C20.471 17.6671 20.6548 17.385 20.77 17.073C20.8852 16.761 20.9288 16.4271 20.8976 16.096C20.8665 15.7649 20.7613 15.445 20.5899 15.16L19.3199 13.04C18.9699 12.46 18.6899 11.43 18.6899 10.76V8.66C18.6799 5 15.6799 2 12.0199 2Z" stroke="#EFF5F7" stroke-width="1.5" stroke-miterlimit="10" stroke-linecap="round"/>
<path d="M15.3299 18.82C15.3299 20.65 13.8299 22.15 11.9999 22.15C11.0899 22.15 10.2499 21.77 9.64992 21.17C9.04992 20.57 8.66992 19.73 8.66992 18.82" stroke="#EFF5F7" stroke-width="1.5" stroke-miterlimit="10"/>
</svg>
