<svg width="22" height="22" viewBox="0 0 22 22" fill="none" xmlns="http://www.w3.org/2000/svg">
<path d="M10.5 20.75C4.85 20.75 0.25 16.15 0.25 10.5C0.25 4.85 4.85 0.25 10.5 0.25C16.15 0.25 20.75 4.85 20.75 10.5C20.75 16.15 16.15 20.75 10.5 20.75ZM10.5 1.75C5.67 1.75 1.75 5.68 1.75 10.5C1.75 15.32 5.67 19.25 10.5 19.25C15.33 19.25 19.25 15.32 19.25 10.5C19.25 5.68 15.33 1.75 10.5 1.75ZM21 21.751C20.81 21.751 20.62 21.681 20.47 21.531L18.47 19.531C18.3305 19.3899 18.2523 19.1994 18.2523 19.001C18.2523 18.8026 18.3305 18.6121 18.47 18.471C18.76 18.181 19.24 18.181 19.53 18.471L21.53 20.471C21.82 20.761 21.82 21.241 21.53 21.531C21.38 21.681 21.19 21.751 21 21.751Z" fill="#EFF5F7"/>
</svg>
