<svg width="396" height="371" viewBox="0 0 396 371" fill="none" xmlns="http://www.w3.org/2000/svg">
<path d="M238.558 30.2216C230.242 35.1383 227.866 43.6155 226.881 47.1081C226.644 47.9558 223.86 58.3658 228.68 69.2165C230.106 72.4379 231.633 75.7609 235.096 77.3546C237.098 78.3041 238.897 78.2363 245.958 77.6259C249.25 77.3546 252.815 77.0155 256.616 76.6086C259.298 73.1839 263.914 66.3343 265.272 56.7042C265.51 54.9071 268.293 33.4768 256.616 27.7801C248.979 24.0163 239.78 29.4756 238.558 30.2216Z" fill="#D1C4E9"/>
<path d="M84.9956 80.7795C89.2324 80.7795 92.667 76.9842 92.667 72.3024C92.667 67.6206 89.2324 63.8252 84.9956 63.8252C80.7588 63.8252 77.3242 67.6206 77.3242 72.3024C77.3242 76.9842 80.7588 80.7795 84.9956 80.7795Z" fill="#D1C4E9"/>
<path d="M258.959 216.617C262.109 216.617 264.662 214.158 264.662 211.124C264.662 208.09 262.109 205.631 258.959 205.631C255.81 205.631 253.257 208.09 253.257 211.124C253.257 214.158 255.81 216.617 258.959 216.617Z" fill="#D1C4E9"/>
<path d="M85.0633 183.455C87.4067 183.455 89.3063 181.557 89.3063 179.216C89.3063 176.875 87.4067 174.978 85.0633 174.978C82.72 174.978 80.8203 176.875 80.8203 179.216C80.8203 181.557 82.72 183.455 85.0633 183.455Z" fill="#D1C4E9"/>
<path d="M77.1543 77.9648C80.8849 77.9648 83.9092 74.7919 83.9092 70.8779C83.9092 66.9639 80.8849 63.791 77.1543 63.791C73.4237 63.791 70.3994 66.9639 70.3994 70.8779C70.3994 74.7919 73.4237 77.9648 77.1543 77.9648Z" fill="#512DA8"/>
<path d="M257.4 207.936C259.706 207.936 261.575 205.993 261.575 203.596C261.575 201.199 259.706 199.256 257.4 199.256C255.094 199.256 253.225 201.199 253.225 203.596C253.225 205.993 255.094 207.936 257.4 207.936Z" fill="#512DA8"/>
<path d="M313.203 88.2393C315.733 88.2393 317.785 86.0532 317.785 83.3565C317.785 80.6598 315.733 78.4736 313.203 78.4736C310.672 78.4736 308.62 80.6598 308.62 83.3565C308.62 86.0532 310.672 88.2393 313.203 88.2393Z" fill="#512DA8"/>
<path d="M213.678 118.417C212.932 117.23 211.71 118.349 211.2 119.163C210.148 120.859 209.469 122.961 210.25 124.894C210.827 126.352 212.253 127.573 213.916 127.335C215.443 127.132 216.598 125.877 216.564 124.351C216.564 123.944 215.987 123.639 215.681 123.978C213.882 126.25 211.676 129.471 213.475 132.388C214.731 134.388 217.82 134.659 219.042 132.489C218.736 132.455 218.431 132.421 218.125 132.354C218.295 133.303 218.464 134.253 218.6 135.202C218.702 135.846 219.686 135.575 219.585 134.931C219.415 133.981 219.245 133.032 219.109 132.082C219.042 131.642 218.363 131.608 218.193 131.947C217.65 132.896 216.428 133.235 215.443 132.761C214.357 132.218 213.882 130.997 213.882 129.81C213.882 127.844 215.274 126.114 216.428 124.656C216.122 124.521 215.851 124.419 215.545 124.283C215.579 125.572 214.323 126.521 213.067 126.25C212.117 126.047 211.506 125.233 211.166 124.351C210.827 123.436 210.861 122.52 211.133 121.605C211.166 121.537 212.558 118.519 212.762 118.858C213.135 119.468 214.018 118.96 213.678 118.417Z" fill="#D1C4E9"/>
<path d="M75.0849 121.47C75.8317 119.435 78.3096 120.317 79.0904 121.741C79.3619 122.215 79.4977 122.758 79.5656 123.301C79.7013 124.318 79.5995 124.725 78.717 125.335C77.7665 126.285 77.5289 125.912 78.0381 124.216C78.2757 124.114 78.5472 124.013 78.7849 123.911C79.4298 123.741 80.1766 123.775 80.8215 123.979C82.4508 124.521 83.2655 126.251 83.0279 127.844C82.96 128.251 83.3673 128.658 83.7746 128.421C85.981 127.166 88.9002 128.556 89.4094 131.032C89.5451 131.676 90.5295 131.405 90.3937 130.76C89.7488 127.641 86.0489 126.013 83.2655 127.573C83.5031 127.777 83.7746 127.946 84.0123 128.15C84.4535 125.166 82.1793 122.385 79.0225 122.86C77.9362 123.029 76.3069 123.707 76.1712 124.996C76.0693 126.047 77.0537 126.827 78.0381 126.929C80.9573 127.2 80.8894 122.961 79.939 121.266C78.6491 118.96 75.0849 118.384 74.0666 121.232C73.863 121.809 74.8473 122.08 75.0849 121.47Z" fill="#D1C4E9"/>
<path d="M253.802 249.102C256.415 250.831 258.622 253.036 260.387 255.613C260.76 256.155 261.643 255.646 261.269 255.104C259.402 252.391 257.094 250.085 254.345 248.254C253.768 247.847 253.258 248.729 253.802 249.102Z" fill="#512DA8"/>
<path d="M260.419 250.967C260.963 251.611 261.472 252.289 262.015 252.933C262.422 253.442 263.135 252.73 262.728 252.221C262.185 251.577 261.675 250.899 261.132 250.255C260.725 249.746 260.012 250.492 260.419 250.967Z" fill="#512DA8"/>
<path d="M257.296 241.473C259.639 243.643 261.573 246.118 263.067 248.933C263.372 249.509 264.255 249.001 263.949 248.424C262.422 245.542 260.419 242.965 258.009 240.761C257.534 240.286 256.821 241.032 257.296 241.473Z" fill="#512DA8"/>
<path d="M22.6087 279.653C23.3555 287.011 24.6454 294.268 26.4444 301.456C26.6141 302.101 27.5985 301.829 27.4288 301.185C25.6637 294.098 24.3738 286.91 23.627 279.653C23.5592 279.009 22.5408 279.009 22.6087 279.653Z" fill="#D1C4E9"/>
<path d="M26.6471 301.795C33.3341 303.525 40.2927 303.525 46.9797 301.795C47.6246 301.626 47.3531 300.643 46.7081 300.812C40.1909 302.507 33.436 302.507 26.9187 300.812C26.3077 300.643 26.0361 301.626 26.6471 301.795Z" fill="#D1C4E9"/>
<path d="M47.7584 300.779C48.1997 293.556 48.7767 286.334 49.4556 279.111C49.5235 278.467 48.5052 278.467 48.4373 279.111C47.7584 286.334 47.1814 293.556 46.7401 300.779C46.7061 301.423 47.7245 301.423 47.7584 300.779Z" fill="#D1C4E9"/>
<path d="M23.1852 280.196C31.6373 281.925 40.327 281.857 48.7791 279.959C49.424 279.823 49.1524 278.84 48.5075 278.975C40.2591 280.806 31.7391 280.908 23.4567 279.213C22.8118 279.077 22.5402 280.06 23.1852 280.196Z" fill="#D1C4E9"/>
<path d="M23.0818 282.637C23.3534 284.027 25.1185 283.96 26.2047 284.061C28.9542 284.299 31.7376 284.366 34.4871 284.299C37.1347 284.231 39.7824 284.027 42.43 283.722C44.5345 283.451 46.5712 283.18 48.4381 282.129C49.0151 281.823 48.506 280.942 47.9289 281.247C44.5685 283.112 39.9181 283.044 36.1503 283.214C34.2834 283.281 32.3825 283.315 30.5156 283.281C29.5312 283.247 24.2699 283.485 24.0662 282.366C23.9304 281.722 22.98 281.993 23.0818 282.637Z" fill="#D1C4E9"/>
<path d="M25.0174 294.404C26.6468 297.286 28.7174 299.829 31.1953 302.033C31.6705 302.474 32.4173 301.762 31.9081 301.321C29.4641 299.185 27.4614 296.71 25.9 293.895C25.5945 293.319 24.7119 293.827 25.0174 294.404Z" fill="#D1C4E9"/>
<path d="M23.6935 286.571C27.1558 292.403 31.3649 297.761 36.185 302.576C36.6602 303.05 37.373 302.304 36.8978 301.863C32.1456 297.116 28.0044 291.827 24.5761 286.062C24.2366 285.519 23.3541 286.028 23.6935 286.571Z" fill="#D1C4E9"/>
<path d="M29.3612 284.129C32.9593 290.538 37.1344 296.608 41.8526 302.271C42.26 302.779 42.9728 302.067 42.5655 301.558C37.9151 295.964 33.7739 289.962 30.2437 283.621C29.9382 283.044 29.0557 283.553 29.3612 284.129Z" fill="#D1C4E9"/>
<path d="M35.8461 284.367C39.3423 289.589 42.8725 294.777 46.4366 299.965C46.81 300.508 47.6926 299.999 47.3192 299.456C43.7551 294.268 40.2249 289.08 36.7286 283.858C36.3552 283.316 35.4727 283.825 35.8461 284.367Z" fill="#D1C4E9"/>
<path d="M41.2765 284.061C43.0416 286.91 44.9425 289.69 46.9113 292.403C47.2846 292.912 48.1672 292.403 47.7938 291.894C45.825 289.182 43.9242 286.401 42.1591 283.553C41.8196 283.01 40.9371 283.519 41.2765 284.061Z" fill="#D1C4E9"/>
<path d="M11.9132 249.814C12.3206 252.153 12.7279 254.527 13.1692 256.867C13.3049 257.511 13.4068 258.189 13.9499 258.596C14.3233 258.901 15.5452 258.867 15.7829 259.206C15.8168 259.003 15.8507 258.799 15.8507 258.596C15.3416 259.105 14.8324 259.613 14.2893 260.088C14.1535 260.224 14.1196 260.427 14.1535 260.597C14.459 261.512 14.6627 262.868 15.2737 263.648C15.5792 264.055 16.1223 263.987 16.3599 264.225C16.5636 264.428 16.4957 264.293 16.3938 264.903C16.326 265.412 16.326 265.954 16.3938 266.497C16.4957 267.31 16.7333 268.09 17.0388 268.836C18.8039 273.109 22.2322 276.568 25.5248 279.755C26 280.196 26.7129 279.484 26.2376 279.043C24.1331 277.008 22.0286 274.906 20.2974 272.532C18.6002 270.193 16.5975 267.039 17.6498 264.055C17.7177 263.886 17.6498 263.648 17.514 263.547C16.8691 263.038 16.2241 263.241 15.7829 262.428C14.9343 260.902 15.4095 260.393 16.4957 259.342C16.6654 259.206 16.6993 258.901 16.5636 258.732C16.292 258.325 16.0884 258.189 15.6471 258.053C15.3755 257.952 14.9682 258.053 14.6966 257.918C14.1196 257.613 14.1196 256.867 14.0178 256.324C13.6104 254.086 13.2031 251.814 12.8297 249.576C12.7618 248.898 11.7775 249.169 11.9132 249.814Z" fill="#D1C4E9"/>
<path d="M12.6608 249.678C25.899 254.086 34.9621 266.429 35.2337 280.399C35.2337 281.043 36.252 281.043 36.252 280.399C35.9804 265.988 26.6119 253.272 12.9324 248.695C12.3214 248.491 12.0498 249.474 12.6608 249.678Z" fill="#D1C4E9"/>
<path d="M32.9934 266.497C36.286 257.375 41.14 248.559 48.9132 242.557C49.4224 242.15 48.9132 241.269 48.404 241.676C40.3932 247.881 35.4034 256.833 32.009 266.225C31.8054 266.836 32.7897 267.107 32.9934 266.497Z" fill="#D1C4E9"/>
<path d="M48.0311 242.354C48.2687 245.473 48.5403 248.593 48.7779 251.746C48.8458 252.391 49.8641 252.391 49.7962 251.746C49.5586 248.627 49.287 245.507 49.0494 242.354C49.0155 241.71 47.9972 241.71 48.0311 242.354Z" fill="#D1C4E9"/>
<path d="M49.2202 251.407C48.7789 251.509 48.3376 251.611 47.9303 251.746C47.2854 251.916 47.5569 252.899 48.2019 252.73C48.6431 252.628 49.0844 252.526 49.4917 252.391C50.1367 252.221 49.8651 251.272 49.2202 251.407Z" fill="#D1C4E9"/>
<path d="M47.4206 252.662C47.5564 253.306 48.0995 253.713 48.7105 253.781C48.9821 253.815 49.2197 253.543 49.2197 253.272C49.2197 252.967 48.9821 252.797 48.7105 252.763C48.8123 252.763 48.7105 252.763 48.6766 252.763C48.6426 252.763 48.5747 252.729 48.6426 252.763C48.6087 252.729 48.5747 252.73 48.5408 252.696C48.4729 252.662 48.6087 252.763 48.5068 252.662C48.4729 252.628 48.4729 252.628 48.4389 252.594C48.5068 252.662 48.4389 252.594 48.4389 252.56C48.405 252.526 48.405 252.458 48.405 252.526C48.405 252.492 48.3711 252.424 48.3711 252.39C48.3032 252.119 47.9977 251.95 47.7601 252.051C47.4885 252.119 47.3527 252.39 47.4206 252.662Z" fill="#D1C4E9"/>
<path d="M48.2007 253.407C48.2346 255.34 48.1667 257.239 47.9631 259.138C47.8952 259.748 47.997 261.173 47.5897 261.647C47.5557 261.681 46.9447 261.783 46.809 261.885C46.2998 262.292 47.0126 263.004 47.5218 262.597C47.6915 262.461 48.0988 262.597 48.3704 262.292C48.7777 261.885 48.7098 260.935 48.7777 260.46C49.0832 258.121 49.219 255.747 49.185 253.374C49.219 252.763 48.2007 252.763 48.2007 253.407Z" fill="#D1C4E9"/>
<path d="M46.4014 262.767C47.4876 264.055 47.1821 266.191 47.0803 267.751C46.9445 269.548 46.639 271.21 45.7565 272.77C44.5005 275.075 42.7354 277.008 41.8189 279.517C41.5813 280.128 42.5657 280.399 42.8033 279.789C44.0253 276.5 46.8427 274.058 47.6913 270.599C48.3023 268.124 48.8793 264.157 47.1142 262.055C46.7069 261.58 45.9941 262.292 46.4014 262.767Z" fill="#D1C4E9"/>
<path d="M38.3897 279.993C39.3402 270.363 41.886 260.97 45.9593 252.222C46.2308 251.645 45.3483 251.103 45.0767 251.713C40.9355 260.665 38.3218 270.193 37.3714 280.027C37.3035 280.671 38.3218 280.637 38.3897 279.993Z" fill="#D1C4E9"/>
<path d="M18.3658 255.341C24.306 262.801 28.6508 271.379 31.1966 280.535C31.3664 281.179 32.3507 280.908 32.181 280.264C29.5673 270.905 25.1206 262.224 19.0786 254.629C18.6713 254.12 17.9584 254.832 18.3658 255.341Z" fill="#D1C4E9"/>
<path d="M19.0092 267.853C21.8605 267.683 24.5081 268.362 26.9181 269.854C27.4612 270.193 28.0044 269.311 27.4273 268.972C24.8815 267.412 21.9962 266.666 19.0092 266.836C18.3303 266.87 18.3303 267.887 19.0092 267.853Z" fill="#D1C4E9"/>
<path d="M25.2218 263.31C25.0181 261.445 25.2557 259.648 25.9686 257.884C26.2062 257.274 25.2218 257.003 24.9842 257.613C24.2374 259.444 23.9998 261.343 24.2035 263.31C24.2714 263.954 25.2897 263.954 25.2218 263.31Z" fill="#D1C4E9"/>
<path d="M36.2184 257.681C37.3385 260.427 38.9678 263.344 39.3752 266.26C39.477 266.904 40.4614 266.633 40.3595 265.988C39.9183 263.038 38.289 260.122 37.2027 257.409C36.9651 256.799 35.9807 257.07 36.2184 257.681Z" fill="#D1C4E9"/>
<path d="M42.463 260.902C43.4474 259.783 44.3978 258.461 45.6538 257.613C46.706 256.901 47.8601 256.426 48.6748 255.443C49.0821 254.934 48.3693 254.222 47.962 254.731C47.0794 255.782 45.7895 256.223 44.7373 257.036C43.5832 257.918 42.7006 259.105 41.7502 260.19C41.3089 260.699 42.0217 261.411 42.463 260.902Z" fill="#D1C4E9"/>
<path d="M42.8054 279.653C44.4347 279.213 46.0979 279.043 47.7951 279.145C48.4401 279.179 48.4401 278.161 47.7951 278.128C45.9961 278.026 44.2649 278.195 42.5338 278.67C41.9228 278.84 42.1604 279.823 42.8054 279.653Z" fill="#D1C4E9"/>
<path d="M42.6683 280.06C44.5691 280.229 46.4021 279.992 48.2351 279.416C48.8461 279.212 48.5746 278.229 47.9636 278.432C46.2324 278.975 44.4673 279.178 42.6683 279.043C42.0233 279.009 42.0233 280.026 42.6683 280.06Z" fill="#D1C4E9"/>
<path d="M23.6263 279.891H24.9162C25.5611 279.891 25.5611 278.874 24.9162 278.874C24.4749 278.874 24.0676 278.874 23.6263 278.874C22.9813 278.874 22.9813 279.891 23.6263 279.891Z" fill="#D1C4E9"/>
<path d="M48.5052 288.097H80.82C81.465 288.097 81.465 287.08 80.82 287.08C70.0597 287.08 59.2655 287.08 48.5052 287.08C47.8602 287.08 47.8602 288.097 48.5052 288.097Z" fill="#D1C4E9"/>
<path d="M230.652 281.382H249.864C250.509 281.382 250.509 280.365 249.864 280.365C243.449 280.365 237.067 280.365 230.652 280.365C230.007 280.365 230.007 281.382 230.652 281.382Z" fill="#D1C4E9"/>
<path d="M288.898 281.993H371.891H395.516C396.161 281.993 396.161 280.976 395.516 280.976C367.852 280.976 340.187 280.976 312.523 280.976C304.648 280.976 296.773 280.976 288.898 280.976C288.253 280.976 288.253 281.993 288.898 281.993Z" fill="#D1C4E9"/>
<path d="M247.927 170.67C245.347 175.994 242.564 181.216 239.611 186.336C239.475 186.608 239.577 187.048 239.916 187.082C254.478 189.286 267.513 196.509 280.072 203.799C280.649 204.138 281.159 203.257 280.581 202.918C267.92 195.593 254.818 188.337 240.154 186.099C240.256 186.336 240.358 186.608 240.46 186.845C243.447 181.725 246.196 176.503 248.776 171.179C249.081 170.603 248.233 170.06 247.927 170.67Z" fill="#D1C4E9"/>
<path d="M250.166 189.15C251.185 186.234 252.203 183.284 253.221 180.368C253.662 179.147 253.968 177.791 254.545 176.604C254.681 175.892 255.122 175.35 255.801 174.943C256.208 175.044 256.616 175.146 257.023 175.248C257.634 175.417 258.245 175.553 258.822 175.723C260.214 176.062 262.454 176.062 262.216 177.927C262.047 179.249 261.266 180.673 260.825 181.962C259.806 184.844 258.822 187.726 257.804 190.609C257.6 191.219 258.584 191.49 258.788 190.88C260.112 187.082 261.436 183.25 262.76 179.453C263.065 178.571 263.914 177.079 263.235 176.13C262.488 175.112 260.248 175.044 259.094 174.739C257.973 174.468 256.005 173.451 254.851 173.993C253.866 174.434 253.662 176.13 253.357 176.977C251.965 180.945 250.574 184.946 249.182 188.913C248.978 189.49 249.963 189.761 250.166 189.15Z" fill="#D1C4E9"/>
<path d="M263.271 192.779C265.444 188.201 267.65 183.59 269.822 179.012C270.909 176.706 271.995 174.434 273.115 172.129C273.624 171.078 274.031 169.823 274.676 168.84C275.219 167.992 275.355 167.788 276.306 168.161C276.815 168.365 277.426 168.873 277.867 169.179C278.444 169.586 279.361 170.026 279.768 170.569C280.277 171.213 280.073 171.891 279.768 172.705C279.361 173.79 278.75 174.841 278.24 175.893C277.12 178.198 276 180.504 274.812 182.81C272.572 187.184 270.23 191.524 267.82 195.831C267.48 196.407 268.363 196.916 268.702 196.339C271.655 191.118 274.473 185.828 277.12 180.47C278.444 177.825 279.904 175.113 281.024 172.366C281.805 170.365 280.107 169.552 278.614 168.5C277.426 167.687 275.559 165.822 274.269 167.348C273.454 168.297 273.013 169.891 272.47 171.044C271.791 172.434 271.146 173.824 270.467 175.248C267.752 180.945 265.036 186.642 262.355 192.338C262.117 192.847 263 193.389 263.271 192.779Z" fill="#D1C4E9"/>
<path d="M274.54 199.832C277.459 195.254 280.751 190.914 284.383 186.913C284.18 186.947 283.976 186.981 283.772 186.981C285.062 187.862 286.318 188.71 287.608 189.592C287.54 189.354 287.472 189.117 287.438 188.88C284.553 193.389 281.668 197.865 278.783 202.375C278.443 202.918 279.292 203.426 279.665 202.884C282.55 198.374 285.436 193.898 288.321 189.388C288.491 189.151 288.355 188.846 288.151 188.676C286.861 187.794 285.605 186.947 284.315 186.065C284.146 185.93 283.84 185.997 283.704 186.133C280.005 190.236 276.644 194.61 273.691 199.256C273.318 199.9 274.2 200.409 274.54 199.832Z" fill="#D1C4E9"/>
<path d="M315.035 167.585C311.64 166.296 309.502 162.905 310.113 159.277C310.724 155.581 314.356 152.292 318.09 154.496C320.67 156.022 321.993 159.48 321.009 162.295C319.991 165.313 316.664 167.11 313.575 166.635C312.93 166.533 312.659 167.517 313.304 167.619C316.936 168.161 320.771 166.16 321.993 162.566C323.215 158.972 321.247 154.632 317.716 153.173C313.575 151.478 309.807 155.038 309.095 159.006C308.348 163.21 310.826 167.076 314.729 168.568C315.374 168.805 315.646 167.822 315.035 167.585Z" fill="#D1C4E9"/>
<path d="M321.993 166.941C315.238 166.737 317.784 155.92 323.758 156.327C329.732 156.768 327.288 168.941 320.737 166.703C320.126 166.5 319.855 167.483 320.466 167.687C328.035 170.264 331.43 156.497 324.2 155.344C320.669 154.767 317.479 158.091 316.936 161.38C316.392 164.635 318.599 167.822 321.993 167.924C322.638 167.992 322.638 166.975 321.993 166.941Z" fill="#D1C4E9"/>
<path d="M316.937 136.253C316.36 135.643 316.089 134.659 316.53 133.913C316.971 133.201 318.058 132.862 318.736 133.405C319.347 133.879 319.483 134.897 318.906 135.405C318.227 136.016 317.141 135.711 316.496 135.202C315.987 134.795 315.274 135.507 315.783 135.914C316.836 136.728 318.465 137.135 319.585 136.151C320.603 135.236 320.502 133.54 319.483 132.659C318.431 131.743 316.768 132.015 315.885 133.032C314.901 134.185 315.172 135.914 316.191 136.965C316.666 137.44 317.379 136.728 316.937 136.253Z" fill="#D1C4E9"/>
<path d="M218.429 161.787C217.479 156.022 220.839 149.071 227.357 149.139C230.683 149.173 233.908 150.529 237.268 150.054C239.644 149.715 241.681 148.359 243.107 146.494C244.532 144.629 245.347 142.289 245.483 139.949C245.653 136.491 244.329 132.964 245.279 129.54C245.754 127.81 246.773 126.216 248.504 125.572C250.167 124.996 251.966 125.335 253.697 125.267C256.209 125.165 258.178 124.08 259.434 121.876C261.199 118.79 260.792 115.094 262.014 111.839C263.473 107.906 267.58 104.549 271.925 106.482C272.502 106.753 273.045 105.871 272.434 105.6C266.528 102.955 261.606 108.279 260.452 113.636C259.705 117.129 259.841 122.554 255.666 123.945C252.747 124.928 249.454 123.402 246.773 125.403C244.566 127.03 243.921 130.014 243.955 132.625C244.057 136.457 245.245 140.187 243.548 143.849C241.987 147.308 238.898 149.376 235.062 149.139C231.668 148.935 228.307 147.545 224.879 148.427C219.074 149.885 216.596 156.734 217.513 162.092C217.581 162.668 218.565 162.397 218.429 161.787Z" fill="#D1C4E9"/>
<path d="M261.334 137.61C260.078 134.761 261.809 132.049 264.559 131.133C266.562 130.455 268.768 130.421 270.499 129.065C271.857 128.013 272.298 126.691 272.128 124.996C271.959 123.402 271.959 122.147 273.215 121.062C274.267 120.147 275.659 119.808 277.016 119.74C280.75 119.604 285.876 121.503 288.591 117.875C289.847 116.179 289.474 114.077 290.051 112.178C290.832 109.533 293.377 107.906 296.093 108.041C296.738 108.075 296.738 107.058 296.093 107.024C294.022 106.922 292.02 107.702 290.594 109.194C288.829 111.059 289.067 113.161 288.523 115.501C287.064 121.91 278.137 117.4 273.927 119.401C272.366 120.147 271.11 121.469 270.974 123.232C270.805 125.301 271.755 126.996 269.65 128.42C268.53 129.166 267.24 129.404 265.951 129.709C263.812 130.218 261.708 130.862 260.621 132.93C259.739 134.558 259.739 136.423 260.486 138.084C260.723 138.729 261.572 138.186 261.334 137.61Z" fill="#D1C4E9"/>
<path d="M321.824 92.4433C321.689 92.1381 321.553 91.799 321.451 91.4599C321.892 90.9513 322.3 90.4427 322.741 89.934C322.877 89.9001 323.488 90.307 323.691 90.307C324.2 90.3749 324.642 90.2392 325.049 89.934C326.305 88.9507 325.864 87.3909 326.237 86.0684C326.848 83.7966 329.53 85.3564 330.752 83.6609C331.974 81.9994 331.532 78.4729 334.791 79.4223C335.436 79.5919 335.708 78.6085 335.063 78.439C333.196 77.8965 331.498 78.7781 330.82 80.5752C330.616 81.0839 330.548 81.6603 330.344 82.1689C329.903 83.3558 329.428 83.5253 328.138 83.5931C327.188 83.6609 326.441 83.5931 325.796 84.4069C325.253 85.119 325.253 86.0345 325.151 86.8823C325.049 88.1369 325.151 89.188 323.284 89.0524C322.911 89.0185 322.605 88.6794 322.198 88.6794C319.957 88.6455 320.331 91.3921 320.874 92.7146C321.078 93.3249 322.096 93.0536 321.824 92.4433Z" fill="#D1C4E9"/>
<path d="M328.206 95.2573C327.663 94.5452 326.747 92.4768 328.342 91.9342C328.919 91.7308 329.666 91.9681 330.277 91.9681C330.82 91.9681 331.295 91.9681 331.737 91.5951C333.094 90.5101 332.11 88.5773 332.823 87.2209C333.977 85.0168 336.285 86.7462 337.914 85.5933C339.069 84.7795 339.374 83.2197 339.578 81.9312C339.68 81.2869 338.695 81.0156 338.593 81.6599C338.356 83.1858 338.084 84.8812 336.183 85.0508C335.199 85.1525 334.452 84.8134 333.536 85.2542C332.042 85.9663 331.567 87.2887 331.533 88.8146C331.499 90.1032 331.804 90.7474 329.632 90.8491C329.361 90.8491 329.089 90.7813 328.817 90.7813C328.037 90.8491 327.358 91.2561 326.917 91.9003C325.966 93.2567 326.509 94.8165 327.46 96.0033C327.901 96.5119 328.614 95.7659 328.206 95.2573Z" fill="#D1C4E9"/>
<path d="M39.6128 113.636C42.4302 110.245 46.4356 107.465 51.052 107.94C56.0758 108.448 58.5537 112.45 59.0289 117.129C59.8435 124.894 57.9427 134.185 63.204 140.797C65.2746 143.408 68.3635 144.798 71.69 143.985C75.6955 143.035 78.8183 139.882 82.3825 138.017C86.5915 135.813 92.396 134.626 96.1977 138.322C98.9811 141.035 99.5921 145.171 100.509 148.766C101.357 152.021 102.817 155.615 105.736 157.548C107.501 158.701 109.436 158.803 111.473 158.667C113.747 158.498 118.397 158.362 117.922 161.922C117.854 162.567 118.872 162.567 118.94 161.922C119.11 160.532 118.465 159.413 117.345 158.599C115.58 157.311 113.543 157.514 111.473 157.65C109.13 157.819 107.128 157.616 105.329 155.954C103.699 154.462 102.715 152.36 102.002 150.292C100.814 146.731 100.475 142.832 98.438 139.576C96.4353 136.355 92.973 134.795 89.2392 134.931C84.5209 135.101 80.5495 137.813 76.7817 140.322C74.9826 141.509 73.0478 142.764 70.8414 143.137C68.1938 143.578 65.8517 142.425 64.1545 140.458C60.9637 136.728 60.4545 131.404 60.2848 126.725C60.1151 122.351 60.6922 117.604 59.2326 113.365C57.9087 109.499 54.5483 107.092 50.5089 106.889C45.8246 106.651 41.7174 109.466 38.8321 112.924C38.4587 113.433 39.1716 114.145 39.6128 113.636Z" fill="#D1C4E9"/>
<path d="M22.4719 165.958C27.7671 174.774 32.4854 183.895 36.6605 193.288C36.9321 193.898 37.8146 193.356 37.5431 192.779C33.3679 183.387 28.6157 174.265 23.3544 165.449C23.015 164.872 22.1324 165.381 22.4719 165.958Z" fill="#D1C4E9"/>
<path d="M23.1155 165.551C31.364 160.431 39.85 155.649 48.5736 151.309C49.1507 151.004 48.6415 150.122 48.0645 150.428C39.3748 154.768 30.8887 159.549 22.6064 164.669C22.0293 165.042 22.5385 165.924 23.1155 165.551Z" fill="#D1C4E9"/>
<path d="M47.963 150.868C52.2739 159.922 56.8224 168.84 61.6425 177.622C61.948 178.199 62.8305 177.69 62.525 177.113C57.7049 168.331 53.1225 159.413 48.8455 150.36C48.54 149.749 47.6914 150.258 47.963 150.868Z" fill="#D1C4E9"/>
<path d="M37.8126 193.491C45.9253 188.609 53.9361 183.59 61.879 178.436C62.4221 178.097 61.913 177.215 61.3699 177.554C53.4269 182.708 45.4161 187.727 37.3035 192.61C36.7604 192.949 37.2695 193.83 37.8126 193.491Z" fill="#D1C4E9"/>
<path d="M37.1682 162.566C36.9645 169.077 37.3379 175.553 38.2883 181.996C38.3902 182.64 39.3745 182.369 39.2727 181.725C38.3223 175.384 37.9828 168.975 38.1865 162.566C38.2204 161.922 37.2021 161.922 37.1682 162.566Z" fill="#D1C4E9"/>
<path d="M37.2015 162.227C41.9198 165.923 46.638 169.551 51.4241 173.146C51.9333 173.553 52.4424 172.671 51.9333 172.264C47.2151 168.738 42.5308 165.143 37.9144 161.515C37.4052 161.108 36.6924 161.82 37.2015 162.227Z" fill="#D1C4E9"/>
<path d="M39.3406 182.2C43.2442 178.707 48.3358 176.842 52.0357 173.079C52.5109 172.604 51.7641 171.892 51.3229 172.367C47.6229 176.096 42.5653 177.995 38.6277 181.488C38.1186 181.895 38.8654 182.607 39.3406 182.2Z" fill="#D1C4E9"/>
<path d="M23.8304 171.281C24.9166 170.739 26.0028 170.23 27.089 169.688C27.6661 169.416 27.1569 168.535 26.5799 168.806C25.4937 169.349 24.4074 169.857 23.3212 170.4C22.7442 170.705 23.2533 171.553 23.8304 171.281Z" fill="#D1C4E9"/>
<path d="M27.3254 177.046C28.2419 176.435 29.2263 175.927 30.2446 175.486C30.8556 175.248 30.5841 174.265 29.9731 174.502C28.8529 174.977 27.8006 175.52 26.7823 176.164C26.2732 176.537 26.7823 177.419 27.3254 177.046Z" fill="#D1C4E9"/>
<path d="M31.1614 183.691C32.1119 183.217 33.0623 182.742 34.0127 182.301C34.5898 181.996 34.0806 181.148 33.5036 181.419C32.5531 181.894 31.6027 182.369 30.6523 182.81C30.0752 183.081 30.5844 183.963 31.1614 183.691Z" fill="#D1C4E9"/>
<path d="M33.1292 190.338C34.1815 189.422 35.2677 188.642 36.4897 187.964C37.0667 187.625 36.5576 186.778 35.9805 187.083C34.7246 187.795 33.5365 188.643 32.4164 189.626C31.9072 190.067 32.62 190.779 33.1292 190.338Z" fill="#D1C4E9"/>
<path d="M49.8987 157.548C50.6794 157.005 51.494 156.632 52.4105 156.395C53.0555 156.225 52.7839 155.276 52.139 155.412C51.1546 155.649 50.2042 156.056 49.3556 156.666C48.8464 157.039 49.3556 157.921 49.8987 157.548Z" fill="#D1C4E9"/>
<path d="M52.9202 163.347C54.0064 162.668 55.0927 161.99 56.1449 161.278C56.688 160.939 56.1789 160.057 55.6358 160.397C54.5495 161.075 53.4633 161.753 52.4111 162.465C51.834 162.838 52.3432 163.72 52.9202 163.347Z" fill="#D1C4E9"/>
<path d="M56.3796 170.298C57.5337 169.789 58.7217 169.28 59.8758 168.772C60.4868 168.5 59.9437 167.619 59.3667 167.89C58.2126 168.399 57.0245 168.907 55.8704 169.416C55.2594 169.687 55.8026 170.569 56.3796 170.298Z" fill="#D1C4E9"/>
<path d="M58.8598 174.842C59.7763 173.96 60.7946 173.214 61.9148 172.57C62.4918 172.265 61.9826 171.383 61.4056 171.688C60.2175 172.366 59.1313 173.146 58.147 174.096C57.6717 174.571 58.3846 175.283 58.8598 174.842Z" fill="#D1C4E9"/>
<path d="M40.6996 189.016C41.5482 190.27 42.261 191.593 42.8041 192.983C43.0417 193.593 44.0261 193.322 43.7885 192.712C43.2115 191.22 42.4986 189.795 41.5821 188.473C41.2088 187.964 40.3262 188.473 40.6996 189.016Z" fill="#D1C4E9"/>
<path d="M45.8934 186.201C46.5384 187.354 47.1494 188.473 47.7943 189.625C48.0998 190.202 48.9823 189.693 48.6768 189.117C48.0319 187.964 47.4209 186.845 46.776 185.692C46.4705 185.116 45.5879 185.624 45.8934 186.201Z" fill="#D1C4E9"/>
<path d="M51.9003 181.895C52.5791 183.115 53.258 184.336 53.9369 185.557C54.2424 186.133 55.1249 185.625 54.8195 185.048C54.1406 183.827 53.4617 182.607 52.7828 181.386C52.4773 180.809 51.5948 181.318 51.9003 181.895Z" fill="#D1C4E9"/>
<path d="M57.2964 178.674C57.8395 179.962 58.3826 181.251 58.9596 182.506C59.2312 183.116 60.0798 182.573 59.8422 181.997C59.2991 180.708 58.756 179.42 58.1789 178.165C57.9074 177.589 57.0248 178.097 57.2964 178.674Z" fill="#D1C4E9"/>
<path d="M26.5109 160.328C27.1559 161.38 27.7668 162.431 28.4118 163.448C28.7512 164.025 29.6338 163.482 29.2943 162.939C28.6494 161.888 28.0384 160.837 27.3935 159.82C27.054 159.277 26.1715 159.786 26.5109 160.328Z" fill="#D1C4E9"/>
<path d="M32.3477 156.938L34.1807 161.007C34.4523 161.617 35.3348 161.075 35.0633 160.498C34.4523 159.142 33.8413 157.786 33.2303 156.429C32.9248 155.819 32.0762 156.328 32.3477 156.938Z" fill="#D1C4E9"/>
<path d="M37.6107 153.682C38.5272 154.903 39.24 156.225 39.7153 157.649C39.9189 158.26 40.9033 157.989 40.6996 157.378C40.1905 155.852 39.4777 154.428 38.4933 153.174C38.1199 152.665 37.2373 153.14 37.6107 153.682Z" fill="#D1C4E9"/>
<path d="M43.2797 151.072C43.9925 152.157 44.6714 153.208 45.3842 154.293C45.7236 154.835 46.6062 154.327 46.2667 153.784C45.5539 152.699 44.875 151.648 44.1622 150.563C43.7888 150.02 42.9063 150.529 43.2797 151.072Z" fill="#D1C4E9"/>
<path d="M96.0612 83.8305C92.7687 82.8132 92.5989 79.3206 94.1604 76.7097C95.6879 74.1665 98.641 73.4883 100.949 75.5907C102.85 77.3539 103.02 80.3718 101.255 82.3046C99.4896 84.2713 96.6044 84.2374 94.5677 82.7454C94.0585 82.3385 93.5494 83.2201 94.0585 83.627C96.6383 85.5259 100.406 85.2207 102.341 82.542C104.344 79.8293 103.631 76.0315 100.813 74.2004C94.0246 69.8262 88.1862 82.4402 95.7897 84.8138C96.4346 85.0173 96.7062 84.0339 96.0612 83.8305Z" fill="#D1C4E9"/>
<path d="M101.526 84.7123C98.98 85.4922 98.369 82.4404 99.4892 80.8128C100.406 79.4903 102.205 78.7104 103.834 79.1512C105.395 79.5581 106.516 81.1519 106.108 82.7456C105.599 84.7462 103.495 85.4582 101.628 85.1531C100.983 85.0513 100.711 86.0347 101.356 86.1364C103.868 86.5772 106.583 85.4922 107.127 82.7795C107.602 80.4398 105.769 78.3035 103.495 78.0322C100.983 77.7271 98.2332 79.5581 97.8938 82.1352C97.5883 84.3732 99.6249 86.3738 101.865 85.6617C102.442 85.4922 102.171 84.5088 101.526 84.7123Z" fill="#D1C4E9"/>
<path d="M79.8706 106.787C79.056 108.448 80.2101 110.11 81.9073 110.551C83.1972 110.89 84.5549 110.585 85.8788 110.652C87.3044 110.72 88.7301 111.059 90.0199 111.636C92.8712 112.924 94.7042 115.264 94.8061 118.417C94.9079 121.062 94.1272 123.809 95.2813 126.318C97.7253 131.608 104.446 127.573 107.909 130.998C110.794 133.88 109.606 139.136 113.475 141.34C114.052 141.679 114.562 140.797 113.985 140.458C110.522 138.491 111.337 133.371 108.893 130.523C107.603 129.031 105.736 128.624 103.835 128.488C101.527 128.353 98.5399 128.827 96.8427 126.861C94.874 124.555 95.9262 121.096 95.8244 118.384C95.7565 116.247 95.0437 114.315 93.5501 112.789C92.2263 111.466 90.4952 110.551 88.6961 110.076C87.7796 109.839 86.8292 109.669 85.8788 109.635C84.6568 109.567 79.3615 110.178 80.7871 107.295C81.0587 106.719 80.1761 106.21 79.8706 106.787Z" fill="#D1C4E9"/>
<path d="M0.509162 289.826H18.9069C19.5518 289.826 19.5518 288.809 18.9069 288.809C12.763 288.809 6.65305 288.809 0.509162 288.809C-0.169721 288.809 -0.169721 289.826 0.509162 289.826Z" fill="#D1C4E9"/>
<path d="M10.4203 312.816H45.824C46.469 312.816 46.469 311.799 45.824 311.799C34.0115 311.799 22.2329 311.799 10.4203 311.799C9.74141 311.799 9.74141 312.816 10.4203 312.816Z" fill="#D1C4E9"/>
<path d="M44.3978 306.441H77.3236C77.9686 306.441 77.9686 305.424 77.3236 305.424C66.3597 305.424 55.3618 305.424 44.3978 305.424C43.719 305.424 43.719 306.441 44.3978 306.441Z" fill="#D1C4E9"/>
<path d="M226.985 304.678C232.518 303.322 238.085 303.186 243.719 304.068C246.096 304.441 248.506 304.814 250.916 304.61C253.258 304.407 255.532 303.695 257.806 303.084C260.386 302.372 262.966 301.83 265.681 302.033C268.465 302.237 271.146 303.017 273.862 303.627C276.204 304.169 278.58 304.542 280.99 304.509C283.536 304.441 286.048 304 288.526 303.627C295.315 302.542 301.696 303.22 308.417 304.339C309.062 304.441 309.333 303.457 308.689 303.356C303.257 302.474 297.792 301.558 292.26 302.101C286.489 302.677 281.126 304.102 275.288 302.915C270.4 301.931 265.749 300.406 260.725 301.355C258.044 301.864 255.498 302.813 252.817 303.322C249.829 303.898 246.944 303.559 243.957 303.084C238.153 302.203 232.416 302.271 226.68 303.695C226.102 303.864 226.374 304.848 226.985 304.678Z" fill="#D1C4E9"/>
<path d="M279.121 294.37C289.779 293.793 300.438 293.217 311.096 292.674C316.358 292.403 321.449 292.505 326.677 293.217C329.019 293.522 331.259 293.59 333.601 293.319C336.215 293.013 338.93 292.607 341.374 293.861C341.951 294.166 342.461 293.285 341.884 292.98C337.742 290.877 332.956 292.844 328.51 292.437C325.862 292.2 323.282 291.691 320.634 291.555C317.885 291.42 315.136 291.488 312.386 291.623C301.286 292.132 290.187 292.81 279.087 293.386C278.476 293.386 278.476 294.404 279.121 294.37Z" fill="#D1C4E9"/>
<path d="M70.3998 323.497C75.4236 323.971 80.4812 324.446 85.505 323.87C87.8471 323.598 90.0874 323.09 92.3617 322.412C95.3148 321.53 97.9625 321.293 101.017 321.835C103.36 322.242 105.668 322.818 108.01 323.022C110.488 323.225 112.966 323.09 115.444 322.852C120.637 322.344 125.831 321.462 130.99 322.615C131.635 322.751 131.907 321.767 131.262 321.632C126.306 320.547 121.35 321.259 116.36 321.767C113.882 322.005 111.404 322.242 108.926 322.106C106.109 321.971 103.394 321.225 100.644 320.784C98.3358 320.411 96.1295 320.411 93.8552 320.954C91.4113 321.564 89.1031 322.378 86.5912 322.751C81.228 323.531 75.763 322.988 70.3998 322.513C69.721 322.412 69.7549 323.429 70.3998 323.497Z" fill="#D1C4E9"/>
<path d="M124.099 49.8879C122.775 48.9723 120.976 47.5143 121.519 45.6832C122.097 43.7843 123.522 44.6998 124.846 44.259C126.611 43.6826 126.509 41.5463 126 40.1561C125.491 38.7997 124.405 35.5106 127.222 36.6296C127.867 36.9008 128.342 37.3417 129.089 37.1043C129.768 36.9009 130.107 36.2905 130.277 35.6462C130.413 35.0698 130.311 34.4594 130.277 33.8491C130.209 33.4422 130.175 33.0014 130.175 32.5944C130.039 31.6111 130.65 31.2042 131.94 31.3737C131.974 32.018 132.993 32.018 132.959 31.3737C132.891 30.4243 132.178 29.7461 131.16 29.78C129.972 29.8139 129.327 30.9668 129.191 32.0519C129.089 32.7979 129.7 34.5272 129.361 35.1376C128.953 35.4089 128.546 35.714 128.105 35.9853C127.935 35.8836 127.765 35.7819 127.595 35.6801C127.29 35.5784 127.052 35.375 126.747 35.3071C125.695 35.0698 124.846 35.714 124.473 36.6635C123.828 38.2911 124.982 39.6475 125.321 41.1733C125.763 43.2757 124.167 43.0383 122.775 43.2757C122.164 43.3774 121.655 43.6826 121.248 44.1234C119.109 46.5987 121.587 49.3453 123.624 50.7695C124.133 51.1425 124.642 50.2609 124.099 49.8879Z" fill="#D1C4E9"/>
<path d="M130.788 48.9387C129.668 47.6502 128.819 45.8869 130.992 45.2087C131.535 45.0392 132.146 45.107 132.655 44.7679C133.775 43.988 133.3 42.9369 133.096 41.8518C132.994 41.2414 132.757 40.4276 133.13 39.8173C133.402 39.3765 134.386 39.2069 134.895 39.1052C135.608 38.9356 136.355 38.8339 136.966 38.427C137.882 37.7827 138.222 36.6298 137.611 35.6465C137.271 35.104 136.389 35.6126 136.728 36.1551C137.746 37.7827 132.994 38.2236 132.18 39.4104C131.229 40.8006 133.232 43.242 131.569 44.1237C130.924 44.4628 130.109 44.2254 129.498 44.6662C129.057 44.9714 128.751 45.4461 128.615 45.9547C128.242 47.4128 129.226 48.6674 130.109 49.6847C130.516 50.1594 131.229 49.4473 130.788 48.9387Z" fill="#D1C4E9"/>
<path d="M90.6975 40.9024C89.815 40.2921 89.7132 39.207 89.9847 38.2575C90.1545 37.6133 90.9691 35.85 91.7498 35.7822C93.0397 35.6466 93.6846 37.2742 94.0241 38.2236C94.3296 39.1392 94.4314 40.0547 94.4654 41.0041C94.4654 41.6484 95.4837 41.6484 95.4837 41.0041C95.4497 39.1053 94.1938 33.273 91.0709 34.9684C89.8829 35.6127 89.0003 37.4776 88.8646 38.7662C88.7288 39.9869 89.204 41.072 90.1884 41.784C90.6975 42.157 91.2067 41.2754 90.6975 40.9024Z" fill="#D1C4E9"/>
<path d="M90.2919 41.4449C89.07 41.7501 87.848 42.0553 86.592 42.3605C85.8792 42.53 84.6572 42.5978 84.0802 43.1404C83.0958 44.0559 83.3673 46.8703 83.3673 48.0571C83.3673 48.3962 83.7068 48.6336 84.0123 48.5319C84.182 48.498 84.3517 48.4301 84.5554 48.3962C85.4379 47.9215 85.8792 48.2267 85.9132 49.2439C86.592 49.9221 86.592 50.329 85.9132 50.3968C85.5058 50.5664 85.0985 50.6342 84.6572 50.6342C84.3857 50.6681 84.1481 50.8377 84.1481 51.1428C84.2159 53.313 84.3857 55.4492 84.6233 57.6194C84.6912 58.2637 85.7095 58.2637 85.6416 57.6194C85.404 55.4492 85.2343 53.313 85.1664 51.1428C84.9967 51.3124 84.8269 51.4819 84.6572 51.6515C86.0829 51.4819 88.3571 50.9055 88.0516 48.9727C87.7122 46.9042 85.2003 47.1416 83.7747 47.5485C83.9783 47.7181 84.2159 47.8876 84.4196 48.0232C84.4196 47.2433 84.4196 46.4973 84.4875 45.7174C84.5893 44.4967 84.5214 44.0559 85.6416 43.6151C87.1691 43.0047 88.9681 42.8013 90.5635 42.3944C91.2084 42.2927 90.9369 41.3093 90.2919 41.4449Z" fill="#D1C4E9"/>
<path d="M95.18 41.7501C96.6056 41.6823 98.0652 41.6823 99.4909 41.8519C100.849 42.0214 100.781 42.2249 100.984 43.4117C101.12 44.1576 101.154 44.9375 101.222 45.6835C101.494 48.5997 101.697 51.5158 101.867 54.432C101.901 55.0762 102.919 55.0762 102.885 54.432C102.682 50.4647 102.546 46.3956 101.901 42.4622C101.731 41.4789 101.561 41.1737 100.543 41.0041C98.7781 40.6651 96.9451 40.6651 95.18 40.7668C94.5351 40.7668 94.5351 41.784 95.18 41.7501Z" fill="#D1C4E9"/>
<path d="M85.3698 58.3311C87.3725 57.992 89.3752 57.6529 91.344 57.3138C93.6182 56.9408 95.7907 57.1104 98.0649 56.9408C99.1172 56.8391 104.107 56.3305 102.274 54.262C101.833 53.7873 101.12 54.4994 101.561 54.9741C101.833 55.2793 97.2163 55.9575 97.1145 55.9575C95.6888 55.9914 94.2632 55.9236 92.8375 56.0931C90.2578 56.3983 87.678 56.9408 85.0983 57.3816C84.4533 57.4494 84.7249 58.4328 85.3698 58.3311Z" fill="#D1C4E9"/>
<path d="M265.681 253.612C265.58 257.172 265.478 260.733 265.376 264.327C269.891 264.632 274.371 264.903 278.886 265.209C278.886 261.546 278.886 257.884 278.886 254.222C274.473 254.019 270.094 253.815 265.681 253.612Z" fill="#F5F5FA" stroke="#0C0C0F" stroke-width="0.341715" stroke-miterlimit="10"/>
<path d="M271.554 293.183C272.165 297.117 272.437 300.372 272.572 302.712C273.014 310.477 272.674 312.274 271.995 313.698C270.332 317.191 267.311 318.649 267.583 319.124C267.786 319.429 269.28 319.09 275.933 315.597C275.525 307.866 275.152 300.169 274.745 292.438C273.693 292.709 272.64 292.946 271.554 293.183Z" fill="#F5F5FA" stroke="#0C0C0F" stroke-width="0.341715" stroke-miterlimit="10"/>
<path d="M262.762 268.26C268.532 268.294 274.303 268.361 280.073 268.395C279.428 276.127 278.817 283.824 278.172 291.555C273.149 291.148 268.091 290.775 263.067 290.368C262.931 283.01 262.83 275.652 262.762 268.26Z" fill="#F5F5FA" stroke="#0C0C0F" stroke-width="0.341715" stroke-miterlimit="10"/>
<path d="M265.104 292.911C266.937 297.353 267.548 301.185 267.752 303.762C268.058 307.56 268.261 310.476 266.428 312.409C265.749 313.155 264.629 313.867 262.457 315.325C260.522 316.613 259.606 317.088 259.673 317.224C259.775 317.427 261.642 317.02 269.789 314.138C270.332 311.391 270.773 307.865 270.671 303.728C270.536 299.32 269.823 295.556 269.042 292.742C267.752 292.81 266.428 292.843 265.104 292.911Z" fill="#F5F5FA" stroke="#0C0C0F" stroke-width="0.341715" stroke-miterlimit="10"/>
<path d="M268.057 319.429C269.075 318.581 270.026 317.665 270.942 316.682C271.995 315.529 273.556 313.766 275.185 315.292C275.219 315.021 275.253 314.749 275.287 314.478C272.877 315.665 270.501 316.852 268.091 318.005C267.616 318.242 267.854 318.954 268.363 318.954C270.637 318.988 272.063 315.021 274.405 315.767C275.016 315.97 275.287 314.987 274.676 314.783C273.658 314.478 272.877 314.749 272.029 315.36C271.044 316.072 269.653 317.937 268.397 317.937C268.498 318.242 268.566 318.581 268.668 318.886C271.078 317.699 273.454 316.513 275.864 315.36C276.17 315.224 276.204 314.783 275.966 314.546C275.05 313.698 273.42 313.393 272.266 313.935C271.418 314.308 270.875 315.292 270.264 315.936C269.347 316.919 268.397 317.801 267.378 318.683C266.835 319.123 267.548 319.869 268.057 319.429Z" fill="#0C0C0F"/>
<path d="M272.231 314.138C273.249 314.172 274.234 314.375 275.184 314.782C275.761 315.054 276.304 314.172 275.693 313.901C274.573 313.392 273.453 313.121 272.231 313.087C271.586 313.121 271.586 314.138 272.231 314.138Z" fill="#0C0C0F"/>
<path d="M266.664 312.952C267.445 313.155 268.123 313.562 268.667 314.172C269.108 314.647 269.821 313.935 269.379 313.46C268.701 312.748 267.852 312.24 266.902 312.002C266.324 311.799 266.053 312.782 266.664 312.952Z" fill="#0C0C0F"/>
<path d="M261.166 317.055C262.218 316.275 263.304 315.563 264.424 314.885C264.933 314.58 265.477 314.173 266.02 314.003C266.868 313.698 267.377 313.902 268.158 314.241C268.158 313.935 268.158 313.664 268.158 313.359C267.072 313.834 265.85 313.8 264.73 314.275C263.644 314.715 262.625 315.8 261.505 316.004C261.641 316.309 261.777 316.614 261.912 316.919C263.915 315.936 266.155 315.767 268.158 314.783C268.735 314.478 268.226 313.63 267.649 313.902C265.646 314.885 263.406 315.054 261.403 316.038C260.86 316.309 261.267 317.055 261.811 316.953C263.033 316.75 264.017 315.631 265.171 315.19C266.325 314.749 267.581 314.715 268.701 314.241C269.041 314.105 269.041 313.495 268.701 313.359C267.411 312.783 266.834 312.443 265.544 313.122C263.847 314.003 262.252 315.054 260.724 316.173C260.113 316.546 260.623 317.428 261.166 317.055Z" fill="#0C0C0F"/>
<path d="M266.97 298.1C267.819 297.795 268.668 297.829 269.448 298.236C270.025 298.541 270.535 297.659 269.958 297.354C268.939 296.812 267.785 296.71 266.699 297.117C266.088 297.354 266.359 298.338 266.97 298.1Z" fill="#0C0C0F"/>
<path d="M267.82 301.491C268.532 301.423 269.211 301.592 269.754 302.067C270.264 302.474 270.976 301.762 270.467 301.355C269.721 300.745 268.804 300.406 267.82 300.473C267.175 300.507 267.175 301.525 267.82 301.491Z" fill="#0C0C0F"/>
<path d="M268.194 305.729C268.839 305.662 269.45 305.899 269.824 306.442C270.163 306.984 271.046 306.475 270.706 305.933C270.197 305.085 269.213 304.577 268.228 304.712C267.957 304.746 267.719 304.916 267.719 305.221C267.685 305.458 267.923 305.763 268.194 305.729Z" fill="#0C0C0F"/>
<path d="M272.572 297.863C273.183 297.524 273.963 297.558 274.54 298.032C275.05 298.439 275.762 297.727 275.253 297.32C274.337 296.574 273.115 296.405 272.062 296.981C271.485 297.32 271.995 298.202 272.572 297.863Z" fill="#0C0C0F"/>
<path d="M273.149 304.271C273.692 304.034 274.303 304.136 274.744 304.542C275.219 304.983 275.966 304.271 275.457 303.83C274.676 303.118 273.59 302.949 272.606 303.423C272.029 303.661 272.572 304.542 273.149 304.271Z" fill="#0C0C0F"/>
<path d="M273.285 309.697C273.828 309.358 274.507 309.358 275.016 309.765C275.526 310.171 276.238 309.459 275.729 309.052C274.881 308.34 273.693 308.239 272.776 308.849C272.233 309.188 272.742 310.07 273.285 309.697Z" fill="#0C0C0F"/>
<path d="M280.888 268.361C280.209 276.16 279.53 283.959 278.852 291.758" stroke="#0C0C0F" stroke-width="1.02514" stroke-miterlimit="10"/>
<path d="M262.966 290.673C268.634 291.08 274.303 291.453 279.972 291.86" stroke="#0C0C0F" stroke-width="1.02514" stroke-miterlimit="10"/>
<path d="M280.004 253.917C279.868 257.783 279.698 261.614 279.562 265.48" stroke="#0C0C0F" stroke-width="1.02514" stroke-miterlimit="10"/>
<path d="M280.717 272.939C283.874 272.363 287.234 274.838 287.472 278.093C287.811 282.163 283.161 282.875 280.106 282.434C279.461 282.332 279.19 283.315 279.835 283.417C283.568 283.96 288.83 282.909 288.49 278.093C288.219 274.126 284.247 271.244 280.446 271.956C279.801 272.058 280.072 273.041 280.717 272.939Z" fill="#0C0C0F"/>
<path d="M279.97 284.231C281.294 284.502 282.346 285.452 282.72 286.74C282.889 287.385 283.874 287.113 283.704 286.469C283.263 284.842 281.939 283.553 280.276 283.248C279.597 283.146 279.325 284.096 279.97 284.231Z" fill="#0C0C0F"/>
<path d="M279.461 283.892C280.276 285.079 280.65 286.401 280.514 287.859C280.48 288.504 281.498 288.504 281.532 287.859C281.634 286.266 281.227 284.706 280.31 283.383C279.971 282.841 279.088 283.349 279.461 283.892Z" fill="#0C0C0F"/>
<path d="M262.727 272.465C260.487 271.04 256.379 275.143 255.87 277.144C254.852 281.213 260.079 280.738 262.252 282.095C262.795 282.434 263.304 281.552 262.761 281.213C261.2 280.23 258.891 280.603 257.534 279.382C255.87 277.89 257.398 276.093 258.552 275.042C259.163 274.499 261.233 272.702 262.218 273.312C262.761 273.719 263.304 272.838 262.727 272.465Z" fill="#0C0C0F"/>
<path d="M262.185 281.62C261.303 281.959 260.488 282.468 259.809 283.18C259.3 283.723 258.655 284.57 259.164 285.316C259.538 285.859 260.42 285.35 260.047 284.808C259.809 284.468 260.692 283.723 260.929 283.519C261.371 283.112 261.88 282.807 262.457 282.604C263.068 282.366 262.83 281.383 262.185 281.62Z" fill="#0C0C0F"/>
<path d="M261.776 282.333C261.131 283.35 260.928 284.503 261.165 285.656C261.301 286.3 262.285 286.029 262.15 285.384C261.946 284.469 262.15 283.621 262.659 282.841C263.032 282.299 262.15 281.79 261.776 282.333Z" fill="#0C0C0F"/>
<path d="M265.002 271.82C264.832 274.295 264.866 276.805 265.036 279.28C265.104 279.924 266.122 279.924 266.054 279.28C265.851 276.805 265.851 274.295 266.021 271.82C266.088 271.176 265.07 271.176 265.002 271.82Z" fill="#0C0C0F"/>
<path d="M265.748 272.091C269.346 272.295 272.911 272.43 276.509 272.498C276.339 272.329 276.169 272.159 275.999 271.99C275.898 274.533 275.796 277.11 275.66 279.653C275.626 280.297 276.644 280.297 276.678 279.653C276.78 277.11 276.882 274.533 277.018 271.99C277.018 271.718 276.78 271.481 276.509 271.481C272.911 271.413 269.346 271.278 265.748 271.074C265.103 271.04 265.103 272.057 265.748 272.091Z" fill="#0C0C0F"/>
<path d="M265.341 279.721C266.834 280.128 268.497 280.026 269.991 280.128C271.824 280.229 273.691 280.365 275.524 280.467C276.169 280.501 276.169 279.483 275.524 279.449C273.895 279.348 272.265 279.246 270.636 279.144C269.007 279.043 267.174 279.144 265.578 278.737C265.001 278.568 264.73 279.551 265.341 279.721Z" fill="#0C0C0F"/>
<path d="M266.496 284.977C267.107 286.299 268.431 285.146 269.449 285.621C269.924 285.825 269.822 286.13 270.467 286.164C271.214 286.198 273.047 284.706 273.42 286.096C273.522 286.469 273.997 286.57 274.269 286.333C274.608 286.231 274.982 286.13 275.321 286.062C275.728 286.571 276.475 285.825 276.034 285.35C275.253 284.434 274.269 284.943 273.522 285.621C273.794 285.689 274.099 285.757 274.371 285.858C274.065 284.672 272.809 283.892 271.621 284.434C271.044 284.706 270.976 285.214 270.094 284.875C269.924 284.807 269.856 284.536 269.686 284.468C269.313 284.333 267.344 284.536 267.344 284.502C267.107 283.858 266.224 284.366 266.496 284.977Z" fill="#0C0C0F"/>
<path d="M268.295 258.291C268.363 257.918 268.804 257.817 269.11 257.952C269.551 258.122 269.789 258.63 269.992 259.003C270.264 259.58 271.147 259.071 270.875 258.495C270.502 257.749 269.925 256.969 269.008 256.867C268.261 256.799 267.481 257.24 267.345 257.986C267.175 258.664 268.159 258.936 268.295 258.291Z" fill="#0C0C0F"/>
<path d="M274.541 258.766C274.608 258.427 274.914 258.223 275.253 258.359C275.661 258.494 275.83 259.003 275.898 259.376C276 260.02 276.985 259.749 276.883 259.105C276.747 258.291 276.204 257.443 275.321 257.308C274.541 257.206 273.692 257.681 273.556 258.494C273.454 259.139 274.439 259.41 274.541 258.766Z" fill="#0C0C0F"/>
<path d="M268.805 260.427C269.959 262.462 272.708 262.767 274.202 260.936C274.609 260.427 273.896 259.715 273.489 260.224C272.403 261.546 270.536 261.445 269.687 259.919C269.382 259.342 268.499 259.851 268.805 260.427Z" fill="#0C0C0F"/>
<path d="M234.146 45.7852C238.22 48.3284 241.308 52.0583 243.04 56.5343C243.277 57.1446 244.262 56.8734 244.024 56.263C242.191 51.5158 238.966 47.5824 234.689 44.9036C234.112 44.5306 233.603 45.4122 234.146 45.7852Z" fill="#0C0C0F"/>
<path d="M243.855 56.534C245.857 52.3293 248.777 48.735 252.51 45.9544C253.02 45.5815 252.51 44.6659 252.001 45.0728C248.132 47.9551 245.077 51.685 242.972 56.0253C242.701 56.6018 243.583 57.1104 243.855 56.534Z" fill="#0C0C0F"/>
<path d="M243.04 55.347C243.55 62.3322 243.787 69.3174 243.685 76.3026C243.685 76.9468 244.704 76.9468 244.704 76.3026C244.805 69.3174 244.568 62.2983 244.059 55.347C243.991 54.6688 242.972 54.6688 243.04 55.347Z" fill="#0C0C0F"/>
<path d="M234.926 78.0322C240.663 79.2869 246.501 79.2529 252.204 77.9644C252.849 77.8288 252.577 76.8454 251.932 76.9811C246.399 78.2357 240.731 78.2696 235.198 77.0489C234.553 76.9132 234.281 77.8966 234.926 78.0322Z" fill="#0C0C0F"/>
<path d="M233.198 76.1674C228.921 74.438 226.341 70.3012 224.78 66.1643C223.116 61.8579 222.404 57.1785 222.641 52.5669C223.049 44.0558 226.681 35.443 233.401 30.0176C239.749 24.8635 249.152 23.4055 256.212 28.0848C263.578 32.9677 264.902 43.0386 264.97 51.1428C265.037 60.1625 262.933 69.623 256.246 76.0995C255.771 76.5404 256.483 77.2864 256.959 76.8116C263.306 70.6403 265.716 61.824 265.954 53.2112C266.192 44.7679 265.173 34.0867 258.215 28.2883C251.697 22.8629 242.023 23.1342 235.065 27.5423C227.359 32.4252 222.811 41.2753 221.827 50.1933C221.216 55.7204 221.894 61.451 223.931 66.6729C225.662 71.0811 228.412 75.2857 232.96 77.1168C233.537 77.3881 233.775 76.4047 233.198 76.1674Z" fill="#512DA8"/>
<path d="M232.722 76.8115C231.568 78.4391 231.805 80.8466 233.503 82.0673C234.792 82.9829 236.693 83.1185 238.221 83.3219C240.054 83.5932 241.921 83.6949 243.788 83.6949C247.114 83.661 250.916 83.4237 254.005 82.1351C256.245 81.1857 257.942 78.9477 256.754 76.5402C256.483 75.9637 255.6 76.4724 255.872 77.0488C258.418 82.2369 246.367 82.6777 243.754 82.6777C241.344 82.6777 238.934 82.4742 236.591 82.0334C235.471 81.83 234.215 81.6265 233.503 80.6431C232.79 79.6259 232.925 78.3034 233.604 77.354C233.978 76.7776 233.095 76.2689 232.722 76.8115Z" fill="#512DA8"/>
<path d="M233.808 82.3046C233.808 84 233.842 85.7294 234.045 87.4248C234.147 88.2047 234.317 88.8829 234.962 89.3576C235.878 90.0358 237.406 90.0019 238.492 90.1036C240.325 90.2392 242.192 90.2392 244.025 90.1714C245.756 90.1036 247.487 89.9679 249.218 89.7984C250.237 89.6967 251.391 89.7306 252.171 88.9507C253.903 87.2553 253.936 84.0339 253.495 81.8977C253.359 81.2534 252.375 81.5247 252.511 82.1689C252.748 83.3218 252.816 84.4747 252.579 85.6615C252.239 87.3231 251.764 88.4081 249.897 88.7472C247.725 89.1541 245.281 89.1541 243.074 89.1881C240.902 89.222 238.458 89.3237 236.319 88.8151C234.351 88.3403 234.86 83.9322 234.86 82.3046C234.826 81.6603 233.808 81.6603 233.808 82.3046Z" fill="#512DA8"/>
<path d="M203.291 72.4372C207.805 70.9113 212.286 69.3854 216.8 67.8595C217.411 67.6561 217.14 66.6727 216.529 66.8762C212.014 68.4021 207.534 69.928 203.019 71.4539C202.374 71.6573 202.646 72.6407 203.291 72.4372Z" fill="#512DA8"/>
<path d="M208.45 65.6561C210.011 65.2153 211.573 64.7406 213.134 64.2998C213.745 64.1303 213.508 63.1469 212.863 63.3164C211.301 63.7573 209.74 64.232 208.178 64.6728C207.567 64.8762 207.805 65.8596 208.45 65.6561Z" fill="#512DA8"/>
<path d="M197.147 54.3641C203.121 54.2963 209.061 54.4658 215.001 54.8388C215.646 54.8727 215.646 53.8554 215.001 53.8215C209.061 53.4485 203.087 53.3129 197.147 53.3468C196.502 53.3468 196.502 54.3641 197.147 54.3641Z" fill="#512DA8"/>
<path d="M209.776 49.7524C211.202 50.1254 212.661 50.295 214.121 50.3289C214.766 50.3289 214.766 49.3116 214.121 49.3116C212.729 49.2777 211.371 49.1082 210.048 48.7691C209.403 48.5995 209.131 49.5829 209.776 49.7524Z" fill="#512DA8"/>
<path d="M207.569 18.1838C212.898 22.7615 217.752 27.78 222.131 33.2732C222.539 33.7818 223.251 33.0697 222.844 32.5611C218.465 27.0679 213.611 22.0155 208.282 17.4717C207.807 17.0309 207.06 17.743 207.569 18.1838Z" fill="#512DA8"/>
<path d="M222.47 27.8139C223.386 28.7634 224.269 29.7128 225.185 30.6962C225.627 31.1709 226.34 30.4588 225.898 29.9841C224.982 29.0347 224.099 28.0852 223.183 27.1019C222.741 26.6271 222.029 27.3392 222.47 27.8139Z" fill="#512DA8"/>
<path d="M201.799 29.7128C203.462 30.6961 205.159 31.6117 206.89 32.4594C207.467 32.7646 207.977 31.8829 207.4 31.5778C205.668 30.6961 203.971 29.7806 202.308 28.8311C201.731 28.4921 201.222 29.3737 201.799 29.7128Z" fill="#512DA8"/>
<path d="M260.862 21.9812C265.885 16.9627 270.909 11.9442 275.933 6.92577C276.408 6.45104 275.661 5.73896 275.22 6.21368C270.196 11.2322 265.173 16.2507 260.149 21.2691C259.674 21.7439 260.387 22.4559 260.862 21.9812Z" fill="#512DA8"/>
<path d="M265.918 24.3208C267.208 23.3714 268.498 22.4559 269.788 21.5064C270.297 21.1334 269.822 20.2518 269.279 20.6248C267.989 21.5742 266.699 22.4898 265.409 23.4392C264.866 23.8122 265.375 24.6938 265.918 24.3208Z" fill="#512DA8"/>
<path d="M245.179 15.3352C246.197 10.4184 246.978 5.46777 247.453 0.483199C247.521 -0.161066 246.503 -0.161066 246.435 0.483199C245.96 5.36605 245.213 10.2489 244.194 15.0639C244.059 15.7082 245.043 15.9795 245.179 15.3352Z" fill="#512DA8"/>
<path d="M273.725 46.5309C282.958 45.6832 292.157 44.8355 301.389 43.9878C302.034 43.92 302.034 42.9027 301.389 42.9705C292.157 43.8182 282.958 44.666 273.725 45.5137C273.08 45.5476 273.046 46.5648 273.725 46.5309Z" fill="#512DA8"/>
<path d="M235.778 86.6445C240.156 87.221 244.535 87.3566 248.948 87.0514C249.593 87.0175 249.593 86.0003 248.948 86.0342C244.535 86.3393 240.156 86.2037 235.778 85.6273C235.133 85.5594 235.133 86.5767 235.778 86.6445Z" fill="#512DA8"/>
<path d="M267.31 74.608C274.201 79.4569 281.227 84.1363 288.356 88.6462C288.899 88.9853 289.408 88.1036 288.865 87.7645C281.737 83.2547 274.71 78.5753 267.819 73.7264C267.276 73.3534 266.767 74.235 267.31 74.608Z" fill="#512DA8"/>
<path d="M180.584 313.121C174.134 321.022 167.719 328.889 161.27 336.789C168.839 363.374 173.116 370.359 175.662 369.986C177.495 369.715 178.377 365.747 179.362 361.305C181.806 350.217 180.346 340.689 178.853 334.755C182.926 330.211 186.965 325.633 191.039 321.09C187.542 318.445 184.08 315.8 180.584 313.121Z" fill="#0C0C0F" stroke="#0C0C0F" stroke-width="0.341715" stroke-miterlimit="10"/>
<path d="M156.788 272.431C160.828 275.55 164.697 274.431 172.708 275.788C179.531 276.941 187.202 279.484 195.349 284.57C186.659 294.743 177.969 305.492 169.348 316.817C167.277 319.564 165.206 322.31 163.204 325.057C166.53 325.837 170.536 327.058 174.88 329.024C179.124 330.923 182.586 333.059 185.335 334.992C198.268 323.735 209.809 312.85 220.094 302.576C224.846 297.828 231.567 290.572 232.619 280.298C232.687 279.721 232.687 279.212 232.687 278.704C232.45 261.648 210.963 249.305 197.895 244.761C183.604 239.811 159.029 237.132 152.172 248.966C148.133 255.951 150.509 267.582 156.788 272.431Z" fill="#D1C4E9"/>
<path opacity="0.26" d="M181.873 255.375C181.635 258.596 181.058 262.428 179.87 266.667C179.022 269.684 178.003 272.363 176.985 274.635C175.865 275.076 174.779 275.517 173.658 275.958C180.956 278.84 188.288 281.722 195.586 284.604C190.155 290.81 184.69 297.32 179.191 304.102C173.523 311.087 168.126 317.937 163 324.684C166.632 325.871 170.23 327.058 173.862 328.211C186.863 313.901 199.863 299.558 212.864 285.249C214.222 281.349 214.154 278.297 213.746 276.161C211.88 265.717 199.083 257.206 181.873 255.375Z" fill="#707070"/>
<path opacity="0.23" d="M195.517 284.536C196.705 286.333 197.86 288.164 199.048 289.962C188.932 302.135 178.817 314.274 168.702 326.447C166.903 325.973 165.07 325.464 163.271 324.989C169.754 316.105 176.746 306.984 184.316 297.794C188.084 293.217 191.818 288.809 195.517 284.536Z" fill="#707070"/>
<path d="M161.745 300.236C171.758 302.067 181.806 303.865 191.819 305.696C203.394 330.924 204.684 339.062 202.512 340.452C200.95 341.435 197.692 338.994 194.06 336.247C184.963 329.364 179.905 321.158 177.155 315.631C171.113 314.817 165.071 313.969 159.029 313.156C159.912 308.849 160.828 304.543 161.745 300.236Z" fill="#0C0C0F" stroke="#0C0C0F" stroke-width="0.341715" stroke-miterlimit="10"/>
<path d="M141.105 244.049C122.843 249.406 111.709 260.528 104.547 267.852C94.8726 277.788 82.9922 289.961 86.4205 298.947C88.1856 303.524 93.5488 306.339 118.532 310.679C137.405 313.968 153.766 315.732 166.529 316.715C168.124 310.883 169.719 305.084 171.281 299.252C158.45 295.115 145.653 291.012 132.822 286.875C140.697 285.214 148.98 283.247 157.601 280.84C164.153 279.008 170.398 277.11 176.339 275.109C181.837 264.021 183.026 252.051 177.289 245.269C169.278 235.775 151.322 241.031 141.105 244.049Z" fill="#D1C4E9"/>
<path opacity="0.29" d="M181.738 255.782C181.568 259.139 180.991 263.445 179.43 268.192C178.48 271.075 177.393 273.584 176.307 275.652C175.391 275.72 174.474 275.822 173.558 275.89C165.818 278.433 157.57 280.84 148.846 283.078C143.212 284.536 137.713 285.791 132.383 286.944C145.248 290.979 158.113 294.98 170.978 299.015C170.706 300.406 170.367 301.864 169.96 303.39C169.484 305.153 168.941 306.78 168.432 308.272C150.679 303.898 132.927 299.524 115.174 295.15C114.359 294.166 111.677 290.606 112.085 285.893C112.526 280.772 117.414 277.144 123.66 273.821C141.718 264.259 171.996 257.782 181.738 255.782Z" fill="#707070"/>
<path opacity="0.24" d="M123.251 287.655C126.476 287.418 129.734 287.18 132.959 286.909C145.62 291.114 158.281 295.352 170.942 299.557C170.399 301.558 169.856 303.592 169.313 305.593C153.97 299.591 138.594 293.623 123.251 287.655Z" fill="#707070"/>
<path d="M136.318 167.212C141.342 164.262 150.066 160.058 161.675 158.837C179.461 156.972 193.107 163.347 198.504 166.229C197.52 179.555 195.992 190.203 194.77 197.527C193.311 206.275 192.123 211.124 191.579 219.161C190.901 229.231 191.749 237.505 192.53 242.931C186.624 244.762 177.696 246.762 166.698 246.525C156.108 246.288 147.554 243.982 141.817 241.981C143.345 229.842 142.836 220.212 142.089 213.667C141.24 206.377 140.086 202.817 138.694 194C136.895 182.607 136.42 173.282 136.318 167.212Z" fill="#F5F5FA" stroke="#0C0C0F" stroke-width="0.341715" stroke-miterlimit="10"/>
<path opacity="0.14" d="M173.047 162.871C173.76 165.448 174.574 169.009 175.117 173.281C175.491 176.164 177.018 189.218 172.266 206.444C169.347 217.057 166.258 228.281 156.143 237.504C152.884 240.488 149.727 242.489 147.419 243.744C152.545 245.066 159.231 246.321 167.14 246.388C177.493 246.49 186.047 244.625 191.988 242.794C191.648 240.251 191.207 236.419 191.037 231.808C190.901 227.773 190.901 221.33 193.685 203.189C195.891 188.913 197.453 182.776 198.233 169.857C198.335 168.365 198.369 167.11 198.437 166.262C195.959 164.804 192.734 163.21 188.763 161.922C185.097 160.735 181.804 160.125 179.089 159.854C177.12 160.837 175.083 161.854 173.047 162.871Z" fill="#707070"/>
<path opacity="0.17" d="M197.454 171.79C195.553 182.539 193.041 191.219 191.072 197.255C185.302 214.888 181.262 226.756 170.366 235.436C163.611 240.828 156.585 243.1 152.07 244.185C156.653 245.473 163.136 246.728 170.977 246.558C180.006 246.355 187.304 244.32 192.09 242.591C191.446 238.454 190.699 232.249 190.902 224.687C191.14 214.887 192.735 208.987 194.5 198.238C195.485 191.931 196.741 182.912 197.454 171.79Z" fill="#707070"/>
<path d="M136.115 167.043C131.703 170.095 126.034 174.91 121.078 182.065C109.91 198.273 110.216 215.465 110.657 221.805C112.694 227.265 116.19 234.42 122.3 241.439C125.864 245.542 131.092 251.442 140.019 255.239C143.006 256.528 145.62 257.24 147.521 257.647C149.15 256.189 150.745 254.731 152.375 253.273C147.147 247.169 141.886 240.76 136.624 234.148C132.585 229.096 128.716 224.077 124.982 219.127C125.117 214.956 126 207.394 130.549 199.494C133.128 195.018 136.149 191.762 138.559 189.558C137.745 182.065 136.93 174.571 136.115 167.043Z" fill="#F5F5FA" stroke="#0C0C0F" stroke-width="0.341715" stroke-miterlimit="10"/>
<path opacity="0.13" d="M136.76 174.604C126.984 185.625 122.334 196.069 120.026 202.647C115.987 214.04 116.835 220.008 117.446 222.857C117.955 225.095 119.075 228.926 123.183 234.759C126.747 239.811 134.248 248.865 148.539 256.324C149.795 255.104 151.051 253.917 152.307 252.696C148.267 248.152 144.194 243.371 140.087 238.387C134.69 231.842 129.666 225.4 125.016 219.093C125.151 215.668 125.728 210.887 127.731 205.529C130.752 197.493 135.504 192.203 138.458 189.389C137.847 184.472 137.303 179.555 136.76 174.604Z" fill="#707070"/>
<path opacity="0.16" d="M124.983 219.534C125.594 223.501 126.85 228.553 129.498 234.013C135.336 245.881 144.467 252.425 149.118 255.273C150.034 254.46 150.917 253.68 151.833 252.866C142.872 241.744 133.945 230.622 124.983 219.534Z" fill="#707070"/>
<path d="M199.014 166.432C203.97 169.45 210.351 174.163 215.884 181.182C228.443 197.086 228.07 213.972 227.595 220.211C225.287 225.569 221.383 232.588 214.526 239.505C210.521 243.507 204.649 249.305 194.635 253.069C191.275 254.323 188.321 255.036 186.183 255.442C184.384 254.018 182.551 252.594 180.752 251.17C186.59 245.168 192.531 238.895 198.437 232.385C202.951 227.4 207.296 222.483 211.505 217.634C211.336 213.565 210.385 206.139 205.26 198.34C202.34 193.932 198.98 190.745 196.264 188.574C197.215 181.182 198.131 173.824 199.014 166.432Z" fill="#F5F5FA" stroke="#0C0C0F" stroke-width="0.341715" stroke-miterlimit="10"/>
<path opacity="0.16" d="M198.778 174.672C203.089 179.182 208.962 186.405 213.544 196.476C215.717 201.257 219.247 209.022 219.315 216.346C219.552 238.624 187.984 253.951 186.151 254.833C184.352 253.68 182.587 252.561 180.788 251.408C191.005 240.218 201.189 229.028 211.406 217.838C211.202 214.176 210.353 207.36 206.28 200.104C202.92 194.136 198.745 190.27 195.995 188.134C196.945 183.658 197.862 179.182 198.778 174.672Z" fill="#707070"/>
<path opacity="0.12" d="M211.743 217.939C211.233 220.89 210.385 224.111 209.061 227.434C203.087 242.489 191.003 250.729 184.893 254.256C183.433 253.306 182.007 252.357 180.548 251.407C190.935 240.251 201.322 229.095 211.743 217.939Z" fill="#707070"/>
<path d="M123.353 220.449H206.821V273.245H123.353V220.449Z" fill="#F5F5FA" stroke="#0C0C0F" stroke-width="0.341715" stroke-miterlimit="10"/>
<path d="M163.882 251.882C159.47 252.424 157.331 247.067 158.485 243.506C159.605 239.98 163.781 238.318 167.175 239.539C170.535 240.76 172.165 244.863 170.977 248.152C169.653 251.814 165.036 253.306 161.642 251.678C161.065 251.407 160.522 252.289 161.133 252.56C164.154 254.018 167.854 253.476 170.264 251.102C172.606 248.762 172.945 245.066 171.486 242.184C168.159 235.606 157.874 237.708 157.161 244.931C156.788 248.796 159.571 253.442 163.882 252.933C164.527 252.831 164.527 251.814 163.882 251.882Z" fill="#0C0C0F"/>
<path opacity="0.14" d="M154.683 220.313C165.986 224.247 173.692 234.318 173.929 245.135C174.235 258.698 162.83 271.448 147.283 272.736C167.073 272.906 186.862 273.075 206.685 273.245C206.618 255.544 206.584 237.844 206.516 220.178C189.238 220.178 171.961 220.246 154.683 220.313Z" fill="#707070"/>
<path opacity="0.26" d="M206.686 220.144C206.38 230.927 204.242 239.336 202.443 244.863C199.795 252.899 197.894 258.766 192.429 263.954C184.995 271.074 175.729 272.397 171.655 272.736C183.23 272.838 194.805 272.939 206.38 273.075C206.414 263.004 206.482 252.933 206.55 242.828C206.55 235.267 206.618 227.705 206.686 220.144Z" fill="#707070"/>
<path d="M162.626 139.848C160.759 142.12 162.558 144.9 162.219 152.326C162.049 156.022 161.438 159.006 160.963 161.007C162.558 161.753 165.376 162.804 169.008 162.906C173.488 163.007 176.883 161.617 178.546 160.803C177.799 159.311 176.815 157.006 176.204 154.022C174.676 146.426 177.392 142.866 175.152 140.051C172.538 136.796 165.138 136.762 162.626 139.848Z" fill="#F5F5FA" stroke="#0C0C0F" stroke-width="0.341715" stroke-miterlimit="10"/>
<path d="M150.78 107.228C148.642 112.721 149.456 117.671 149.932 119.808C149.728 119.842 145.757 120.689 144.67 123.741C143.584 126.827 145.824 131.201 150.509 132.625C152.206 136.762 156.313 144.764 164.969 149.139C166.429 149.851 167.82 150.427 169.212 150.834C170.468 150.359 172.165 149.613 174.1 148.494C180.142 145.002 183.502 140.661 184.283 139.61C185.709 137.711 187.644 134.66 189.001 130.455C189.748 130.591 191.072 130.658 192.362 130.014C195.281 128.522 196.741 123.877 194.704 120.859C193.007 118.35 189.714 118.248 189.307 118.248C189.748 116.485 191.106 110.144 187.678 103.871C183.74 96.648 175.288 92.8503 167.345 93.9353C155.6 95.4612 150.984 106.685 150.78 107.228Z" fill="#F5F5FA" stroke="#0C0C0F" stroke-width="0.341715" stroke-miterlimit="10"/>
<path d="M162.186 148.834C164.257 150.055 166.531 151.953 169.077 151.75C171.181 151.58 173.524 150.36 175.119 149.071C175.628 148.664 174.915 147.952 174.406 148.359C172.913 149.546 170.503 150.801 168.534 150.767C166.463 150.733 164.359 149.003 162.661 147.952C162.152 147.613 161.643 148.495 162.186 148.834Z" fill="#0C0C0F"/>
<path d="M162.049 149.275C163.984 150.936 166.19 152.801 168.906 152.665C171.554 152.53 174.032 150.767 175.763 148.868C176.204 148.393 175.491 147.681 175.05 148.156C173.556 149.783 171.452 151.377 169.144 151.614C166.598 151.852 164.561 150.122 162.762 148.562C162.287 148.122 161.574 148.834 162.049 149.275Z" fill="#0C0C0F"/>
<path d="M163.339 149.477C163.339 149.443 163.339 149.443 163.339 149.477C163.136 149.172 162.762 149.104 162.525 149.342C162.525 149.342 162.525 149.342 162.491 149.376C162.287 149.545 162.287 149.918 162.491 150.088C166.224 153.648 173.081 154.801 175.763 149.342C176.034 148.765 175.186 148.223 174.88 148.833C172.504 153.716 166.496 152.529 163.237 149.376V150.088C163.237 150.088 163.237 150.088 163.271 150.054C163 150.02 162.728 149.986 162.457 149.952V149.986C162.796 150.528 163.679 150.02 163.339 149.477Z" fill="#0C0C0F"/>
<path d="M167.414 118.112C166.972 123.605 167.21 129.065 168.092 134.49C168.126 134.761 168.466 134.931 168.703 134.829C170.027 134.388 170.978 133.608 171.691 132.422C172.03 131.845 171.147 131.336 170.808 131.913C170.231 132.896 169.518 133.473 168.432 133.846C168.636 133.947 168.839 134.083 169.043 134.185C168.16 128.861 167.957 123.47 168.398 118.078C168.5 117.434 167.481 117.434 167.414 118.112Z" fill="#0C0C0F"/>
<path d="M161.37 123.504C161.438 123.81 161.947 125.708 161.37 126.014C160.793 126.319 159.164 125.098 158.654 123.504C158.247 122.148 158.587 120.453 159.231 120.317C159.91 120.147 160.963 122.012 161.37 123.504Z" fill="#0C0C0F" stroke="#0C0C0F" stroke-width="0.170857" stroke-miterlimit="10"/>
<path d="M178.886 123.504C178.953 123.81 179.463 125.708 178.886 126.014C178.309 126.319 176.679 125.098 176.17 123.504C175.763 122.148 176.102 120.453 176.747 120.317C177.426 120.147 178.478 122.012 178.886 123.504Z" fill="#0C0C0F" stroke="#0C0C0F" stroke-width="0.170857" stroke-miterlimit="10"/>
<path d="M166.192 138.966C170.333 140.73 174.101 138.254 177.156 135.575C177.665 135.135 176.918 134.423 176.443 134.863C173.795 137.169 170.401 139.644 166.735 138.085C166.09 137.847 165.581 138.729 166.192 138.966Z" fill="#0C0C0F"/>
<path d="M178.14 128.895C178.785 128.895 178.785 127.878 178.14 127.878C177.495 127.878 177.495 128.895 178.14 128.895Z" fill="#0C0C0F"/>
<path d="M181.908 126.997C181.942 126.963 181.975 126.929 182.009 126.895C182.213 126.691 182.213 126.386 182.009 126.183C181.806 125.979 181.5 125.979 181.297 126.183C181.263 126.217 181.229 126.251 181.195 126.285C180.991 126.488 180.991 126.793 181.195 126.997C181.398 127.2 181.704 127.2 181.908 126.997Z" fill="#0C0C0F"/>
<path d="M180.787 129.472H180.888C181.16 129.472 181.397 129.235 181.397 128.964C181.397 128.692 181.16 128.455 180.888 128.455C180.854 128.455 180.82 128.455 180.787 128.455C180.515 128.455 180.277 128.692 180.277 128.964C180.277 129.235 180.481 129.472 180.787 129.472Z" fill="#0C0C0F"/>
<path d="M157.365 117.434C158.655 116.349 160.556 116.315 161.845 117.366C162.355 117.773 163.067 117.061 162.558 116.654C160.793 115.23 158.349 115.23 156.618 116.722C156.143 117.129 156.89 117.841 157.365 117.434Z" fill="#0C0C0F"/>
<path d="M173.931 117.061C175.391 115.772 177.461 115.535 179.192 116.45C179.769 116.756 180.279 115.874 179.701 115.569C177.563 114.416 175.017 114.721 173.218 116.349C172.709 116.789 173.422 117.502 173.931 117.061Z" fill="#0C0C0F"/>
<path d="M157.637 128.794C158.282 128.794 158.282 127.776 157.637 127.776C156.992 127.776 156.992 128.794 157.637 128.794Z" fill="#0C0C0F"/>
<path d="M161.236 128.319C161.881 128.319 161.881 127.301 161.236 127.301C160.591 127.301 160.591 128.319 161.236 128.319Z" fill="#0C0C0F"/>
<path d="M159.436 129.099C159.402 129.133 159.368 129.167 159.334 129.201C159.131 129.404 159.131 129.709 159.334 129.913C159.538 130.116 159.844 130.116 160.047 129.913C160.081 129.879 160.115 129.845 160.149 129.811C160.353 129.608 160.353 129.302 160.149 129.099C159.945 128.895 159.64 128.895 159.436 129.099Z" fill="#0C0C0F"/>
<path d="M156.313 96.2071C154.277 97.4617 149.83 100.208 146.809 105.837C143.788 111.432 143.822 116.722 143.958 118.994C139.002 127.912 136.762 135.779 135.675 141.136C133.91 149.647 134.861 152.767 136.083 154.835C139.07 159.921 145.078 161.176 146.537 161.481C154.039 163.075 160.013 159.243 161.371 158.362C161.744 157.243 162.118 155.852 162.321 154.293C162.695 151.614 162.491 149.308 162.186 147.647C160.488 146.256 158.52 144.391 156.619 141.95C153.734 138.22 152.104 134.558 151.188 131.913C148.201 131.608 145.96 129.573 145.757 127.301C145.553 125.165 147.047 122.418 149.015 122.418C150.475 122.418 151.527 123.91 151.731 124.182C152.851 123.537 154.412 122.418 155.804 120.655C157.807 118.112 158.146 115.84 159.063 113.467C159.945 111.161 161.643 107.973 165.309 104.65C168.839 105.905 171.656 107.126 173.591 108.041C179.803 110.923 183.333 112.619 186.082 116.315C187.61 118.349 188.391 120.35 188.798 121.605C191.955 119.197 193.245 119.841 193.516 119.977C195.519 121.096 195.451 127.234 192.328 128.929C191.14 129.573 189.782 129.404 188.934 129.2C187.949 132.625 185.777 138.22 180.787 143.171C179.124 144.832 177.427 146.121 175.899 147.104C175.763 148.359 175.695 150.088 176.035 152.122C176.34 153.987 176.883 155.513 177.393 156.598C185.641 162.024 195.892 161.04 201.459 155.208C206.415 149.986 206.415 142.086 204.548 136.694C202.851 131.777 199.558 128.827 197.929 127.539C198.37 125.64 200.814 114.382 193.72 104.04C191.887 101.361 186.761 94.8846 177.528 92.6467C167.752 90.2731 159.708 94.1386 156.313 96.2071Z" fill="#512DA8"/>
<path opacity="0.17" d="M177.833 110.144C181.669 114.959 182.687 119.401 183.027 121.706C184.419 131.404 178.784 139.271 175.933 143.306C173.59 146.595 171.18 148.935 169.449 150.461C170.943 154.462 172.402 158.43 173.896 162.431L178.478 160.905C177.766 159.65 177.019 158.09 176.442 156.192C175.389 152.801 175.322 149.817 175.423 147.782C177.29 146.46 179.463 144.663 181.567 142.289C185.776 137.542 187.881 132.659 188.967 129.37C189.646 129.505 191.106 129.675 192.497 128.895C195.416 127.234 194.941 123.097 194.907 122.825C194.805 121.944 194.602 120.52 193.584 119.943C192.395 119.299 190.427 119.909 188.865 121.74C188.39 120.079 187.032 116.247 183.366 113.195C181.33 111.5 179.259 110.618 177.833 110.144Z" fill="#707070"/>
<path opacity="0.19" d="M167.887 118.418C167.683 118.384 167.004 121.334 164.934 134.355H168.498C168.26 132.626 167.989 130.116 167.853 127.064C167.683 121.843 168.09 118.452 167.887 118.418Z" fill="#707070"/>
<path opacity="0.54" d="M197.724 127.879C197.147 128.218 199.319 131.134 199.014 135.474C198.912 136.831 198.708 139.916 196.264 141.985C196.095 142.12 192.463 145.104 188.864 143.205C186.726 142.086 185.436 139.713 185.504 137.136C184.486 139.035 182.822 141.544 180.209 143.985C178.579 145.511 176.984 146.63 175.592 147.478C175.49 148.97 175.49 151.004 176.034 153.31C176.339 154.565 176.712 155.65 177.086 156.531C178.138 157.21 179.7 158.125 181.736 158.837C183.026 159.278 190.12 161.753 197.045 158.329C198.267 157.718 200.982 156.328 202.951 153.344C203.189 152.971 204.071 151.649 204.716 149.411C207.025 141.747 203.63 134.83 203.325 134.253C201.458 130.49 198.437 127.472 197.724 127.879Z" fill="#512DA8"/>
<path opacity="0.35" d="M151.153 132.049C150.847 132.083 151.526 134.863 150.779 137.61C150.236 139.645 148.505 142.968 145.552 143.646C142.463 144.324 138.627 142.052 136.862 137.814C136.048 139.679 134.961 142.662 134.792 146.46C134.69 148.936 134.554 151.58 135.776 154.191C138.526 160.024 146.604 162.296 152.612 161.753C156.618 161.38 159.639 159.82 161.268 158.769C161.676 157.616 162.083 156.226 162.354 154.632C162.796 151.886 162.694 149.478 162.456 147.715C159.775 145.782 157.942 143.781 156.788 142.323C155.158 140.255 152.952 137.474 151.832 133.609C151.662 133.168 151.357 132.015 151.153 132.049Z" fill="#512DA8"/>
</svg>
